%TF.GenerationSoftware,KiCad,Pcbnew,9.0.2*%
%TF.CreationDate,2025-06-03T09:59:19-04:00*%
%TF.ProjectId,PCI_Proto,5043495f-5072-46f7-946f-2e6b69636164,rev?*%
%TF.SameCoordinates,Original*%
%TF.FileFunction,Legend,Top*%
%TF.FilePolarity,Positive*%
%FSLAX46Y46*%
G04 Gerber Fmt 4.6, Leading zero omitted, Abs format (unit mm)*
G04 Created by KiCad (PCBNEW 9.0.2) date 2025-06-03 09:59:19*
%MOMM*%
%LPD*%
G01*
G04 APERTURE LIST*
%ADD10C,0.100000*%
%ADD11C,0.250000*%
%ADD12C,1.000000*%
%ADD13C,0.350000*%
G04 APERTURE END LIST*
D10*
X110165788Y-122316784D02*
X110165788Y-121316784D01*
X110451502Y-122316784D02*
X110237217Y-121745355D01*
X110451502Y-121316784D02*
X110165788Y-121888212D01*
X110665788Y-121792974D02*
X110832455Y-121792974D01*
X110903883Y-122316784D02*
X110665788Y-122316784D01*
X110665788Y-122316784D02*
X110665788Y-121316784D01*
X110665788Y-121316784D02*
X110903883Y-121316784D01*
X111213407Y-121840593D02*
X111213407Y-122316784D01*
X111046741Y-121316784D02*
X111213407Y-121840593D01*
X111213407Y-121840593D02*
X111380074Y-121316784D01*
X206665788Y-122316784D02*
X206665788Y-121316784D01*
X206951502Y-122316784D02*
X206737217Y-121745355D01*
X206951502Y-121316784D02*
X206665788Y-121888212D01*
X207165788Y-121792974D02*
X207332455Y-121792974D01*
X207403883Y-122316784D02*
X207165788Y-122316784D01*
X207165788Y-122316784D02*
X207165788Y-121316784D01*
X207165788Y-121316784D02*
X207403883Y-121316784D01*
X207713407Y-121840593D02*
X207713407Y-122316784D01*
X207546741Y-121316784D02*
X207713407Y-121840593D01*
X207713407Y-121840593D02*
X207880074Y-121316784D01*
X209675000Y-124244366D02*
X209675000Y-119344364D01*
X95200000Y-40344365D02*
X248000000Y-40344365D01*
X197100000Y-117144365D02*
X197100000Y-40444365D01*
X204725000Y-119344366D02*
X209675000Y-119344364D01*
X108200000Y-119344365D02*
X113150000Y-119344363D01*
X95200000Y-65944365D02*
X248000000Y-65944365D01*
X108250000Y-124244365D02*
X113150000Y-124244365D01*
X247600000Y-125444365D02*
X69600000Y-125444365D01*
X95200000Y-91344365D02*
X248000000Y-91344365D01*
X222500000Y-117144365D02*
X222500000Y-40344365D01*
X248000000Y-117148208D02*
X248000000Y-40348208D01*
X113150000Y-124244365D02*
X113150000Y-119344363D01*
X171700000Y-116744365D02*
X171700000Y-40444365D01*
X95200000Y-117148208D02*
X248000000Y-117148208D01*
X146300000Y-117144365D02*
X146300000Y-40444365D01*
X108200000Y-124244367D02*
X108200000Y-119344365D01*
X204725000Y-124244368D02*
X204725000Y-119344366D01*
X120900000Y-117144365D02*
X120900000Y-40444365D01*
X204775000Y-124244366D02*
X209675000Y-124244366D01*
X95200000Y-117148208D02*
X95200000Y-40344365D01*
X210780074Y-124316784D02*
X210303884Y-124316784D01*
X210303884Y-124316784D02*
X210256265Y-124792974D01*
X210256265Y-124792974D02*
X210303884Y-124745355D01*
X210303884Y-124745355D02*
X210399122Y-124697736D01*
X210399122Y-124697736D02*
X210637217Y-124697736D01*
X210637217Y-124697736D02*
X210732455Y-124745355D01*
X210732455Y-124745355D02*
X210780074Y-124792974D01*
X210780074Y-124792974D02*
X210827693Y-124888212D01*
X210827693Y-124888212D02*
X210827693Y-125126307D01*
X210827693Y-125126307D02*
X210780074Y-125221545D01*
X210780074Y-125221545D02*
X210732455Y-125269165D01*
X210732455Y-125269165D02*
X210637217Y-125316784D01*
X210637217Y-125316784D02*
X210399122Y-125316784D01*
X210399122Y-125316784D02*
X210303884Y-125269165D01*
X210303884Y-125269165D02*
X210256265Y-125221545D01*
X211208646Y-124412022D02*
X211256265Y-124364403D01*
X211256265Y-124364403D02*
X211351503Y-124316784D01*
X211351503Y-124316784D02*
X211589598Y-124316784D01*
X211589598Y-124316784D02*
X211684836Y-124364403D01*
X211684836Y-124364403D02*
X211732455Y-124412022D01*
X211732455Y-124412022D02*
X211780074Y-124507260D01*
X211780074Y-124507260D02*
X211780074Y-124602498D01*
X211780074Y-124602498D02*
X211732455Y-124745355D01*
X211732455Y-124745355D02*
X211161027Y-125316784D01*
X211161027Y-125316784D02*
X211780074Y-125316784D01*
X236132455Y-124316784D02*
X235941979Y-124316784D01*
X235941979Y-124316784D02*
X235846741Y-124364403D01*
X235846741Y-124364403D02*
X235799122Y-124412022D01*
X235799122Y-124412022D02*
X235703884Y-124554879D01*
X235703884Y-124554879D02*
X235656265Y-124745355D01*
X235656265Y-124745355D02*
X235656265Y-125126307D01*
X235656265Y-125126307D02*
X235703884Y-125221545D01*
X235703884Y-125221545D02*
X235751503Y-125269165D01*
X235751503Y-125269165D02*
X235846741Y-125316784D01*
X235846741Y-125316784D02*
X236037217Y-125316784D01*
X236037217Y-125316784D02*
X236132455Y-125269165D01*
X236132455Y-125269165D02*
X236180074Y-125221545D01*
X236180074Y-125221545D02*
X236227693Y-125126307D01*
X236227693Y-125126307D02*
X236227693Y-124888212D01*
X236227693Y-124888212D02*
X236180074Y-124792974D01*
X236180074Y-124792974D02*
X236132455Y-124745355D01*
X236132455Y-124745355D02*
X236037217Y-124697736D01*
X236037217Y-124697736D02*
X235846741Y-124697736D01*
X235846741Y-124697736D02*
X235751503Y-124745355D01*
X235751503Y-124745355D02*
X235703884Y-124792974D01*
X235703884Y-124792974D02*
X235656265Y-124888212D01*
X236608646Y-124412022D02*
X236656265Y-124364403D01*
X236656265Y-124364403D02*
X236751503Y-124316784D01*
X236751503Y-124316784D02*
X236989598Y-124316784D01*
X236989598Y-124316784D02*
X237084836Y-124364403D01*
X237084836Y-124364403D02*
X237132455Y-124412022D01*
X237132455Y-124412022D02*
X237180074Y-124507260D01*
X237180074Y-124507260D02*
X237180074Y-124602498D01*
X237180074Y-124602498D02*
X237132455Y-124745355D01*
X237132455Y-124745355D02*
X236561027Y-125316784D01*
X236561027Y-125316784D02*
X237180074Y-125316784D01*
D11*
X75122350Y-95603701D02*
X73122350Y-95603701D01*
X73122350Y-95603701D02*
X73122350Y-94841796D01*
X73122350Y-94841796D02*
X73217588Y-94651320D01*
X73217588Y-94651320D02*
X73312826Y-94556082D01*
X73312826Y-94556082D02*
X73503302Y-94460844D01*
X73503302Y-94460844D02*
X73789016Y-94460844D01*
X73789016Y-94460844D02*
X73979492Y-94556082D01*
X73979492Y-94556082D02*
X74074731Y-94651320D01*
X74074731Y-94651320D02*
X74169969Y-94841796D01*
X74169969Y-94841796D02*
X74169969Y-95603701D01*
X74931873Y-92460844D02*
X75027112Y-92556082D01*
X75027112Y-92556082D02*
X75122350Y-92841796D01*
X75122350Y-92841796D02*
X75122350Y-93032272D01*
X75122350Y-93032272D02*
X75027112Y-93317987D01*
X75027112Y-93317987D02*
X74836635Y-93508463D01*
X74836635Y-93508463D02*
X74646159Y-93603701D01*
X74646159Y-93603701D02*
X74265207Y-93698939D01*
X74265207Y-93698939D02*
X73979492Y-93698939D01*
X73979492Y-93698939D02*
X73598540Y-93603701D01*
X73598540Y-93603701D02*
X73408064Y-93508463D01*
X73408064Y-93508463D02*
X73217588Y-93317987D01*
X73217588Y-93317987D02*
X73122350Y-93032272D01*
X73122350Y-93032272D02*
X73122350Y-92841796D01*
X73122350Y-92841796D02*
X73217588Y-92556082D01*
X73217588Y-92556082D02*
X73312826Y-92460844D01*
X75122350Y-91603701D02*
X73122350Y-91603701D01*
X75122350Y-89127510D02*
X73122350Y-89127510D01*
X73122350Y-89127510D02*
X73122350Y-88365605D01*
X73122350Y-88365605D02*
X73217588Y-88175129D01*
X73217588Y-88175129D02*
X73312826Y-88079891D01*
X73312826Y-88079891D02*
X73503302Y-87984653D01*
X73503302Y-87984653D02*
X73789016Y-87984653D01*
X73789016Y-87984653D02*
X73979492Y-88079891D01*
X73979492Y-88079891D02*
X74074731Y-88175129D01*
X74074731Y-88175129D02*
X74169969Y-88365605D01*
X74169969Y-88365605D02*
X74169969Y-89127510D01*
X75122350Y-87127510D02*
X73789016Y-87127510D01*
X74169969Y-87127510D02*
X73979492Y-87032272D01*
X73979492Y-87032272D02*
X73884254Y-86937034D01*
X73884254Y-86937034D02*
X73789016Y-86746558D01*
X73789016Y-86746558D02*
X73789016Y-86556081D01*
X75122350Y-85603701D02*
X75027112Y-85794177D01*
X75027112Y-85794177D02*
X74931873Y-85889415D01*
X74931873Y-85889415D02*
X74741397Y-85984653D01*
X74741397Y-85984653D02*
X74169969Y-85984653D01*
X74169969Y-85984653D02*
X73979492Y-85889415D01*
X73979492Y-85889415D02*
X73884254Y-85794177D01*
X73884254Y-85794177D02*
X73789016Y-85603701D01*
X73789016Y-85603701D02*
X73789016Y-85317986D01*
X73789016Y-85317986D02*
X73884254Y-85127510D01*
X73884254Y-85127510D02*
X73979492Y-85032272D01*
X73979492Y-85032272D02*
X74169969Y-84937034D01*
X74169969Y-84937034D02*
X74741397Y-84937034D01*
X74741397Y-84937034D02*
X74931873Y-85032272D01*
X74931873Y-85032272D02*
X75027112Y-85127510D01*
X75027112Y-85127510D02*
X75122350Y-85317986D01*
X75122350Y-85317986D02*
X75122350Y-85603701D01*
X73789016Y-84365605D02*
X73789016Y-83603701D01*
X73122350Y-84079891D02*
X74836635Y-84079891D01*
X74836635Y-84079891D02*
X75027112Y-83984653D01*
X75027112Y-83984653D02*
X75122350Y-83794177D01*
X75122350Y-83794177D02*
X75122350Y-83603701D01*
X75122350Y-82651320D02*
X75027112Y-82841796D01*
X75027112Y-82841796D02*
X74931873Y-82937034D01*
X74931873Y-82937034D02*
X74741397Y-83032272D01*
X74741397Y-83032272D02*
X74169969Y-83032272D01*
X74169969Y-83032272D02*
X73979492Y-82937034D01*
X73979492Y-82937034D02*
X73884254Y-82841796D01*
X73884254Y-82841796D02*
X73789016Y-82651320D01*
X73789016Y-82651320D02*
X73789016Y-82365605D01*
X73789016Y-82365605D02*
X73884254Y-82175129D01*
X73884254Y-82175129D02*
X73979492Y-82079891D01*
X73979492Y-82079891D02*
X74169969Y-81984653D01*
X74169969Y-81984653D02*
X74741397Y-81984653D01*
X74741397Y-81984653D02*
X74931873Y-82079891D01*
X74931873Y-82079891D02*
X75027112Y-82175129D01*
X75027112Y-82175129D02*
X75122350Y-82365605D01*
X75122350Y-82365605D02*
X75122350Y-82651320D01*
X75122350Y-78460843D02*
X74169969Y-79127510D01*
X75122350Y-79603700D02*
X73122350Y-79603700D01*
X73122350Y-79603700D02*
X73122350Y-78841795D01*
X73122350Y-78841795D02*
X73217588Y-78651319D01*
X73217588Y-78651319D02*
X73312826Y-78556081D01*
X73312826Y-78556081D02*
X73503302Y-78460843D01*
X73503302Y-78460843D02*
X73789016Y-78460843D01*
X73789016Y-78460843D02*
X73979492Y-78556081D01*
X73979492Y-78556081D02*
X74074731Y-78651319D01*
X74074731Y-78651319D02*
X74169969Y-78841795D01*
X74169969Y-78841795D02*
X74169969Y-79603700D01*
X75027112Y-76841795D02*
X75122350Y-77032271D01*
X75122350Y-77032271D02*
X75122350Y-77413224D01*
X75122350Y-77413224D02*
X75027112Y-77603700D01*
X75027112Y-77603700D02*
X74836635Y-77698938D01*
X74836635Y-77698938D02*
X74074731Y-77698938D01*
X74074731Y-77698938D02*
X73884254Y-77603700D01*
X73884254Y-77603700D02*
X73789016Y-77413224D01*
X73789016Y-77413224D02*
X73789016Y-77032271D01*
X73789016Y-77032271D02*
X73884254Y-76841795D01*
X73884254Y-76841795D02*
X74074731Y-76746557D01*
X74074731Y-76746557D02*
X74265207Y-76746557D01*
X74265207Y-76746557D02*
X74455683Y-77698938D01*
X73789016Y-76079890D02*
X75122350Y-75603700D01*
X75122350Y-75603700D02*
X73789016Y-75127509D01*
X73122350Y-73984652D02*
X73122350Y-73794175D01*
X73122350Y-73794175D02*
X73217588Y-73603699D01*
X73217588Y-73603699D02*
X73312826Y-73508461D01*
X73312826Y-73508461D02*
X73503302Y-73413223D01*
X73503302Y-73413223D02*
X73884254Y-73317985D01*
X73884254Y-73317985D02*
X74360445Y-73317985D01*
X74360445Y-73317985D02*
X74741397Y-73413223D01*
X74741397Y-73413223D02*
X74931873Y-73508461D01*
X74931873Y-73508461D02*
X75027112Y-73603699D01*
X75027112Y-73603699D02*
X75122350Y-73794175D01*
X75122350Y-73794175D02*
X75122350Y-73984652D01*
X75122350Y-73984652D02*
X75027112Y-74175128D01*
X75027112Y-74175128D02*
X74931873Y-74270366D01*
X74931873Y-74270366D02*
X74741397Y-74365604D01*
X74741397Y-74365604D02*
X74360445Y-74460842D01*
X74360445Y-74460842D02*
X73884254Y-74460842D01*
X73884254Y-74460842D02*
X73503302Y-74365604D01*
X73503302Y-74365604D02*
X73312826Y-74270366D01*
X73312826Y-74270366D02*
X73217588Y-74175128D01*
X73217588Y-74175128D02*
X73122350Y-73984652D01*
X74931873Y-72460842D02*
X75027112Y-72365604D01*
X75027112Y-72365604D02*
X75122350Y-72460842D01*
X75122350Y-72460842D02*
X75027112Y-72556080D01*
X75027112Y-72556080D02*
X74931873Y-72460842D01*
X74931873Y-72460842D02*
X75122350Y-72460842D01*
X73122350Y-71127509D02*
X73122350Y-70937032D01*
X73122350Y-70937032D02*
X73217588Y-70746556D01*
X73217588Y-70746556D02*
X73312826Y-70651318D01*
X73312826Y-70651318D02*
X73503302Y-70556080D01*
X73503302Y-70556080D02*
X73884254Y-70460842D01*
X73884254Y-70460842D02*
X74360445Y-70460842D01*
X74360445Y-70460842D02*
X74741397Y-70556080D01*
X74741397Y-70556080D02*
X74931873Y-70651318D01*
X74931873Y-70651318D02*
X75027112Y-70746556D01*
X75027112Y-70746556D02*
X75122350Y-70937032D01*
X75122350Y-70937032D02*
X75122350Y-71127509D01*
X75122350Y-71127509D02*
X75027112Y-71317985D01*
X75027112Y-71317985D02*
X74931873Y-71413223D01*
X74931873Y-71413223D02*
X74741397Y-71508461D01*
X74741397Y-71508461D02*
X74360445Y-71603699D01*
X74360445Y-71603699D02*
X73884254Y-71603699D01*
X73884254Y-71603699D02*
X73503302Y-71508461D01*
X73503302Y-71508461D02*
X73312826Y-71413223D01*
X73312826Y-71413223D02*
X73217588Y-71317985D01*
X73217588Y-71317985D02*
X73122350Y-71127509D01*
X78342238Y-95603701D02*
X76342238Y-95603701D01*
X76342238Y-95603701D02*
X76342238Y-95127511D01*
X76342238Y-95127511D02*
X76437476Y-94841796D01*
X76437476Y-94841796D02*
X76627952Y-94651320D01*
X76627952Y-94651320D02*
X76818428Y-94556082D01*
X76818428Y-94556082D02*
X77199380Y-94460844D01*
X77199380Y-94460844D02*
X77485095Y-94460844D01*
X77485095Y-94460844D02*
X77866047Y-94556082D01*
X77866047Y-94556082D02*
X78056523Y-94651320D01*
X78056523Y-94651320D02*
X78247000Y-94841796D01*
X78247000Y-94841796D02*
X78342238Y-95127511D01*
X78342238Y-95127511D02*
X78342238Y-95603701D01*
X77294619Y-92937034D02*
X77294619Y-93603701D01*
X78342238Y-93603701D02*
X76342238Y-93603701D01*
X76342238Y-93603701D02*
X76342238Y-92651320D01*
X76342238Y-92175129D02*
X76342238Y-91032272D01*
X78342238Y-91603701D02*
X76342238Y-91603701D01*
X77580333Y-88841795D02*
X77580333Y-87317986D01*
X79104142Y-84270366D02*
X79008904Y-84365605D01*
X79008904Y-84365605D02*
X78723190Y-84556081D01*
X78723190Y-84556081D02*
X78532714Y-84651319D01*
X78532714Y-84651319D02*
X78247000Y-84746557D01*
X78247000Y-84746557D02*
X77770809Y-84841795D01*
X77770809Y-84841795D02*
X77389857Y-84841795D01*
X77389857Y-84841795D02*
X76913666Y-84746557D01*
X76913666Y-84746557D02*
X76627952Y-84651319D01*
X76627952Y-84651319D02*
X76437476Y-84556081D01*
X76437476Y-84556081D02*
X76151761Y-84365605D01*
X76151761Y-84365605D02*
X76056523Y-84270366D01*
X78342238Y-83508462D02*
X76342238Y-83508462D01*
X76342238Y-83508462D02*
X76342238Y-83032272D01*
X76342238Y-83032272D02*
X76437476Y-82746557D01*
X76437476Y-82746557D02*
X76627952Y-82556081D01*
X76627952Y-82556081D02*
X76818428Y-82460843D01*
X76818428Y-82460843D02*
X77199380Y-82365605D01*
X77199380Y-82365605D02*
X77485095Y-82365605D01*
X77485095Y-82365605D02*
X77866047Y-82460843D01*
X77866047Y-82460843D02*
X78056523Y-82556081D01*
X78056523Y-82556081D02*
X78247000Y-82746557D01*
X78247000Y-82746557D02*
X78342238Y-83032272D01*
X78342238Y-83032272D02*
X78342238Y-83508462D01*
X78342238Y-80651319D02*
X77294619Y-80651319D01*
X77294619Y-80651319D02*
X77104142Y-80746557D01*
X77104142Y-80746557D02*
X77008904Y-80937033D01*
X77008904Y-80937033D02*
X77008904Y-81317986D01*
X77008904Y-81317986D02*
X77104142Y-81508462D01*
X78247000Y-80651319D02*
X78342238Y-80841795D01*
X78342238Y-80841795D02*
X78342238Y-81317986D01*
X78342238Y-81317986D02*
X78247000Y-81508462D01*
X78247000Y-81508462D02*
X78056523Y-81603700D01*
X78056523Y-81603700D02*
X77866047Y-81603700D01*
X77866047Y-81603700D02*
X77675571Y-81508462D01*
X77675571Y-81508462D02*
X77580333Y-81317986D01*
X77580333Y-81317986D02*
X77580333Y-80841795D01*
X77580333Y-80841795D02*
X77485095Y-80651319D01*
X78342238Y-79698938D02*
X77008904Y-79698938D01*
X77389857Y-79698938D02*
X77199380Y-79603700D01*
X77199380Y-79603700D02*
X77104142Y-79508462D01*
X77104142Y-79508462D02*
X77008904Y-79317986D01*
X77008904Y-79317986D02*
X77008904Y-79127509D01*
X77008904Y-78746557D02*
X77008904Y-77984653D01*
X76342238Y-78460843D02*
X78056523Y-78460843D01*
X78056523Y-78460843D02*
X78247000Y-78365605D01*
X78247000Y-78365605D02*
X78342238Y-78175129D01*
X78342238Y-78175129D02*
X78342238Y-77984653D01*
X77294619Y-76651319D02*
X77294619Y-77317986D01*
X78342238Y-77317986D02*
X76342238Y-77317986D01*
X76342238Y-77317986D02*
X76342238Y-76365605D01*
X78342238Y-75603700D02*
X77008904Y-75603700D01*
X77389857Y-75603700D02*
X77199380Y-75508462D01*
X77199380Y-75508462D02*
X77104142Y-75413224D01*
X77104142Y-75413224D02*
X77008904Y-75222748D01*
X77008904Y-75222748D02*
X77008904Y-75032271D01*
X78342238Y-74079891D02*
X78247000Y-74270367D01*
X78247000Y-74270367D02*
X78151761Y-74365605D01*
X78151761Y-74365605D02*
X77961285Y-74460843D01*
X77961285Y-74460843D02*
X77389857Y-74460843D01*
X77389857Y-74460843D02*
X77199380Y-74365605D01*
X77199380Y-74365605D02*
X77104142Y-74270367D01*
X77104142Y-74270367D02*
X77008904Y-74079891D01*
X77008904Y-74079891D02*
X77008904Y-73794176D01*
X77008904Y-73794176D02*
X77104142Y-73603700D01*
X77104142Y-73603700D02*
X77199380Y-73508462D01*
X77199380Y-73508462D02*
X77389857Y-73413224D01*
X77389857Y-73413224D02*
X77961285Y-73413224D01*
X77961285Y-73413224D02*
X78151761Y-73508462D01*
X78151761Y-73508462D02*
X78247000Y-73603700D01*
X78247000Y-73603700D02*
X78342238Y-73794176D01*
X78342238Y-73794176D02*
X78342238Y-74079891D01*
X77008904Y-71698938D02*
X78627952Y-71698938D01*
X78627952Y-71698938D02*
X78818428Y-71794176D01*
X78818428Y-71794176D02*
X78913666Y-71889414D01*
X78913666Y-71889414D02*
X79008904Y-72079891D01*
X79008904Y-72079891D02*
X79008904Y-72365605D01*
X79008904Y-72365605D02*
X78913666Y-72556081D01*
X78247000Y-71698938D02*
X78342238Y-71889414D01*
X78342238Y-71889414D02*
X78342238Y-72270367D01*
X78342238Y-72270367D02*
X78247000Y-72460843D01*
X78247000Y-72460843D02*
X78151761Y-72556081D01*
X78151761Y-72556081D02*
X77961285Y-72651319D01*
X77961285Y-72651319D02*
X77389857Y-72651319D01*
X77389857Y-72651319D02*
X77199380Y-72556081D01*
X77199380Y-72556081D02*
X77104142Y-72460843D01*
X77104142Y-72460843D02*
X77008904Y-72270367D01*
X77008904Y-72270367D02*
X77008904Y-71889414D01*
X77008904Y-71889414D02*
X77104142Y-71698938D01*
X76342238Y-71032271D02*
X76342238Y-69889414D01*
X78342238Y-70460843D02*
X76342238Y-70460843D01*
X78247000Y-68460842D02*
X78342238Y-68651318D01*
X78342238Y-68651318D02*
X78342238Y-69032271D01*
X78342238Y-69032271D02*
X78247000Y-69222747D01*
X78247000Y-69222747D02*
X78056523Y-69317985D01*
X78056523Y-69317985D02*
X77294619Y-69317985D01*
X77294619Y-69317985D02*
X77104142Y-69222747D01*
X77104142Y-69222747D02*
X77008904Y-69032271D01*
X77008904Y-69032271D02*
X77008904Y-68651318D01*
X77008904Y-68651318D02*
X77104142Y-68460842D01*
X77104142Y-68460842D02*
X77294619Y-68365604D01*
X77294619Y-68365604D02*
X77485095Y-68365604D01*
X77485095Y-68365604D02*
X77675571Y-69317985D01*
X78342238Y-67508461D02*
X76342238Y-67508461D01*
X77580333Y-67317985D02*
X78342238Y-66746556D01*
X77008904Y-66746556D02*
X77770809Y-67508461D01*
X79104142Y-66079889D02*
X79008904Y-65984651D01*
X79008904Y-65984651D02*
X78723190Y-65794175D01*
X78723190Y-65794175D02*
X78532714Y-65698937D01*
X78532714Y-65698937D02*
X78247000Y-65603699D01*
X78247000Y-65603699D02*
X77770809Y-65508461D01*
X77770809Y-65508461D02*
X77389857Y-65508461D01*
X77389857Y-65508461D02*
X76913666Y-65603699D01*
X76913666Y-65603699D02*
X76627952Y-65698937D01*
X76627952Y-65698937D02*
X76437476Y-65794175D01*
X76437476Y-65794175D02*
X76151761Y-65984651D01*
X76151761Y-65984651D02*
X76056523Y-66079889D01*
D10*
X190332455Y-124650117D02*
X190332455Y-125316784D01*
X190094360Y-124269165D02*
X189856265Y-124983450D01*
X189856265Y-124983450D02*
X190475312Y-124983450D01*
X191284836Y-124650117D02*
X191284836Y-125316784D01*
X191046741Y-124269165D02*
X190808646Y-124983450D01*
X190808646Y-124983450D02*
X191427693Y-124983450D01*
X223480074Y-124316784D02*
X223003884Y-124316784D01*
X223003884Y-124316784D02*
X222956265Y-124792974D01*
X222956265Y-124792974D02*
X223003884Y-124745355D01*
X223003884Y-124745355D02*
X223099122Y-124697736D01*
X223099122Y-124697736D02*
X223337217Y-124697736D01*
X223337217Y-124697736D02*
X223432455Y-124745355D01*
X223432455Y-124745355D02*
X223480074Y-124792974D01*
X223480074Y-124792974D02*
X223527693Y-124888212D01*
X223527693Y-124888212D02*
X223527693Y-125126307D01*
X223527693Y-125126307D02*
X223480074Y-125221545D01*
X223480074Y-125221545D02*
X223432455Y-125269165D01*
X223432455Y-125269165D02*
X223337217Y-125316784D01*
X223337217Y-125316784D02*
X223099122Y-125316784D01*
X223099122Y-125316784D02*
X223003884Y-125269165D01*
X223003884Y-125269165D02*
X222956265Y-125221545D01*
X223861027Y-124316784D02*
X224527693Y-124316784D01*
X224527693Y-124316784D02*
X224099122Y-125316784D01*
X127027693Y-125316784D02*
X126456265Y-125316784D01*
X126741979Y-125316784D02*
X126741979Y-124316784D01*
X126741979Y-124316784D02*
X126646741Y-124459641D01*
X126646741Y-124459641D02*
X126551503Y-124554879D01*
X126551503Y-124554879D02*
X126456265Y-124602498D01*
X127503884Y-125316784D02*
X127694360Y-125316784D01*
X127694360Y-125316784D02*
X127789598Y-125269165D01*
X127789598Y-125269165D02*
X127837217Y-125221545D01*
X127837217Y-125221545D02*
X127932455Y-125078688D01*
X127932455Y-125078688D02*
X127980074Y-124888212D01*
X127980074Y-124888212D02*
X127980074Y-124507260D01*
X127980074Y-124507260D02*
X127932455Y-124412022D01*
X127932455Y-124412022D02*
X127884836Y-124364403D01*
X127884836Y-124364403D02*
X127789598Y-124316784D01*
X127789598Y-124316784D02*
X127599122Y-124316784D01*
X127599122Y-124316784D02*
X127503884Y-124364403D01*
X127503884Y-124364403D02*
X127456265Y-124412022D01*
X127456265Y-124412022D02*
X127408646Y-124507260D01*
X127408646Y-124507260D02*
X127408646Y-124745355D01*
X127408646Y-124745355D02*
X127456265Y-124840593D01*
X127456265Y-124840593D02*
X127503884Y-124888212D01*
X127503884Y-124888212D02*
X127599122Y-124935831D01*
X127599122Y-124935831D02*
X127789598Y-124935831D01*
X127789598Y-124935831D02*
X127884836Y-124888212D01*
X127884836Y-124888212D02*
X127932455Y-124840593D01*
X127932455Y-124840593D02*
X127980074Y-124745355D01*
X81727693Y-125316784D02*
X81156265Y-125316784D01*
X81441979Y-125316784D02*
X81441979Y-124316784D01*
X81441979Y-124316784D02*
X81346741Y-124459641D01*
X81346741Y-124459641D02*
X81251503Y-124554879D01*
X81251503Y-124554879D02*
X81156265Y-124602498D01*
X203032455Y-124650117D02*
X203032455Y-125316784D01*
X202794360Y-124269165D02*
X202556265Y-124983450D01*
X202556265Y-124983450D02*
X203175312Y-124983450D01*
X203603884Y-125316784D02*
X203794360Y-125316784D01*
X203794360Y-125316784D02*
X203889598Y-125269165D01*
X203889598Y-125269165D02*
X203937217Y-125221545D01*
X203937217Y-125221545D02*
X204032455Y-125078688D01*
X204032455Y-125078688D02*
X204080074Y-124888212D01*
X204080074Y-124888212D02*
X204080074Y-124507260D01*
X204080074Y-124507260D02*
X204032455Y-124412022D01*
X204032455Y-124412022D02*
X203984836Y-124364403D01*
X203984836Y-124364403D02*
X203889598Y-124316784D01*
X203889598Y-124316784D02*
X203699122Y-124316784D01*
X203699122Y-124316784D02*
X203603884Y-124364403D01*
X203603884Y-124364403D02*
X203556265Y-124412022D01*
X203556265Y-124412022D02*
X203508646Y-124507260D01*
X203508646Y-124507260D02*
X203508646Y-124745355D01*
X203508646Y-124745355D02*
X203556265Y-124840593D01*
X203556265Y-124840593D02*
X203603884Y-124888212D01*
X203603884Y-124888212D02*
X203699122Y-124935831D01*
X203699122Y-124935831D02*
X203889598Y-124935831D01*
X203889598Y-124935831D02*
X203984836Y-124888212D01*
X203984836Y-124888212D02*
X204032455Y-124840593D01*
X204032455Y-124840593D02*
X204080074Y-124745355D01*
X139156265Y-124412022D02*
X139203884Y-124364403D01*
X139203884Y-124364403D02*
X139299122Y-124316784D01*
X139299122Y-124316784D02*
X139537217Y-124316784D01*
X139537217Y-124316784D02*
X139632455Y-124364403D01*
X139632455Y-124364403D02*
X139680074Y-124412022D01*
X139680074Y-124412022D02*
X139727693Y-124507260D01*
X139727693Y-124507260D02*
X139727693Y-124602498D01*
X139727693Y-124602498D02*
X139680074Y-124745355D01*
X139680074Y-124745355D02*
X139108646Y-125316784D01*
X139108646Y-125316784D02*
X139727693Y-125316784D01*
X140584836Y-124650117D02*
X140584836Y-125316784D01*
X140346741Y-124269165D02*
X140108646Y-124983450D01*
X140108646Y-124983450D02*
X140727693Y-124983450D01*
X164508646Y-124316784D02*
X165127693Y-124316784D01*
X165127693Y-124316784D02*
X164794360Y-124697736D01*
X164794360Y-124697736D02*
X164937217Y-124697736D01*
X164937217Y-124697736D02*
X165032455Y-124745355D01*
X165032455Y-124745355D02*
X165080074Y-124792974D01*
X165080074Y-124792974D02*
X165127693Y-124888212D01*
X165127693Y-124888212D02*
X165127693Y-125126307D01*
X165127693Y-125126307D02*
X165080074Y-125221545D01*
X165080074Y-125221545D02*
X165032455Y-125269165D01*
X165032455Y-125269165D02*
X164937217Y-125316784D01*
X164937217Y-125316784D02*
X164651503Y-125316784D01*
X164651503Y-125316784D02*
X164556265Y-125269165D01*
X164556265Y-125269165D02*
X164508646Y-125221545D01*
X165984836Y-124650117D02*
X165984836Y-125316784D01*
X165746741Y-124269165D02*
X165508646Y-124983450D01*
X165508646Y-124983450D02*
X166127693Y-124983450D01*
X177208646Y-124316784D02*
X177827693Y-124316784D01*
X177827693Y-124316784D02*
X177494360Y-124697736D01*
X177494360Y-124697736D02*
X177637217Y-124697736D01*
X177637217Y-124697736D02*
X177732455Y-124745355D01*
X177732455Y-124745355D02*
X177780074Y-124792974D01*
X177780074Y-124792974D02*
X177827693Y-124888212D01*
X177827693Y-124888212D02*
X177827693Y-125126307D01*
X177827693Y-125126307D02*
X177780074Y-125221545D01*
X177780074Y-125221545D02*
X177732455Y-125269165D01*
X177732455Y-125269165D02*
X177637217Y-125316784D01*
X177637217Y-125316784D02*
X177351503Y-125316784D01*
X177351503Y-125316784D02*
X177256265Y-125269165D01*
X177256265Y-125269165D02*
X177208646Y-125221545D01*
X178303884Y-125316784D02*
X178494360Y-125316784D01*
X178494360Y-125316784D02*
X178589598Y-125269165D01*
X178589598Y-125269165D02*
X178637217Y-125221545D01*
X178637217Y-125221545D02*
X178732455Y-125078688D01*
X178732455Y-125078688D02*
X178780074Y-124888212D01*
X178780074Y-124888212D02*
X178780074Y-124507260D01*
X178780074Y-124507260D02*
X178732455Y-124412022D01*
X178732455Y-124412022D02*
X178684836Y-124364403D01*
X178684836Y-124364403D02*
X178589598Y-124316784D01*
X178589598Y-124316784D02*
X178399122Y-124316784D01*
X178399122Y-124316784D02*
X178303884Y-124364403D01*
X178303884Y-124364403D02*
X178256265Y-124412022D01*
X178256265Y-124412022D02*
X178208646Y-124507260D01*
X178208646Y-124507260D02*
X178208646Y-124745355D01*
X178208646Y-124745355D02*
X178256265Y-124840593D01*
X178256265Y-124840593D02*
X178303884Y-124888212D01*
X178303884Y-124888212D02*
X178399122Y-124935831D01*
X178399122Y-124935831D02*
X178589598Y-124935831D01*
X178589598Y-124935831D02*
X178684836Y-124888212D01*
X178684836Y-124888212D02*
X178732455Y-124840593D01*
X178732455Y-124840593D02*
X178780074Y-124745355D01*
X94432455Y-124316784D02*
X94241979Y-124316784D01*
X94241979Y-124316784D02*
X94146741Y-124364403D01*
X94146741Y-124364403D02*
X94099122Y-124412022D01*
X94099122Y-124412022D02*
X94003884Y-124554879D01*
X94003884Y-124554879D02*
X93956265Y-124745355D01*
X93956265Y-124745355D02*
X93956265Y-125126307D01*
X93956265Y-125126307D02*
X94003884Y-125221545D01*
X94003884Y-125221545D02*
X94051503Y-125269165D01*
X94051503Y-125269165D02*
X94146741Y-125316784D01*
X94146741Y-125316784D02*
X94337217Y-125316784D01*
X94337217Y-125316784D02*
X94432455Y-125269165D01*
X94432455Y-125269165D02*
X94480074Y-125221545D01*
X94480074Y-125221545D02*
X94527693Y-125126307D01*
X94527693Y-125126307D02*
X94527693Y-124888212D01*
X94527693Y-124888212D02*
X94480074Y-124792974D01*
X94480074Y-124792974D02*
X94432455Y-124745355D01*
X94432455Y-124745355D02*
X94337217Y-124697736D01*
X94337217Y-124697736D02*
X94146741Y-124697736D01*
X94146741Y-124697736D02*
X94051503Y-124745355D01*
X94051503Y-124745355D02*
X94003884Y-124792974D01*
X94003884Y-124792974D02*
X93956265Y-124888212D01*
X151856265Y-124412022D02*
X151903884Y-124364403D01*
X151903884Y-124364403D02*
X151999122Y-124316784D01*
X151999122Y-124316784D02*
X152237217Y-124316784D01*
X152237217Y-124316784D02*
X152332455Y-124364403D01*
X152332455Y-124364403D02*
X152380074Y-124412022D01*
X152380074Y-124412022D02*
X152427693Y-124507260D01*
X152427693Y-124507260D02*
X152427693Y-124602498D01*
X152427693Y-124602498D02*
X152380074Y-124745355D01*
X152380074Y-124745355D02*
X151808646Y-125316784D01*
X151808646Y-125316784D02*
X152427693Y-125316784D01*
X152903884Y-125316784D02*
X153094360Y-125316784D01*
X153094360Y-125316784D02*
X153189598Y-125269165D01*
X153189598Y-125269165D02*
X153237217Y-125221545D01*
X153237217Y-125221545D02*
X153332455Y-125078688D01*
X153332455Y-125078688D02*
X153380074Y-124888212D01*
X153380074Y-124888212D02*
X153380074Y-124507260D01*
X153380074Y-124507260D02*
X153332455Y-124412022D01*
X153332455Y-124412022D02*
X153284836Y-124364403D01*
X153284836Y-124364403D02*
X153189598Y-124316784D01*
X153189598Y-124316784D02*
X152999122Y-124316784D01*
X152999122Y-124316784D02*
X152903884Y-124364403D01*
X152903884Y-124364403D02*
X152856265Y-124412022D01*
X152856265Y-124412022D02*
X152808646Y-124507260D01*
X152808646Y-124507260D02*
X152808646Y-124745355D01*
X152808646Y-124745355D02*
X152856265Y-124840593D01*
X152856265Y-124840593D02*
X152903884Y-124888212D01*
X152903884Y-124888212D02*
X152999122Y-124935831D01*
X152999122Y-124935831D02*
X153189598Y-124935831D01*
X153189598Y-124935831D02*
X153284836Y-124888212D01*
X153284836Y-124888212D02*
X153332455Y-124840593D01*
X153332455Y-124840593D02*
X153380074Y-124745355D01*
X114227693Y-125316784D02*
X113656265Y-125316784D01*
X113941979Y-125316784D02*
X113941979Y-124316784D01*
X113941979Y-124316784D02*
X113846741Y-124459641D01*
X113846741Y-124459641D02*
X113751503Y-124554879D01*
X113751503Y-124554879D02*
X113656265Y-124602498D01*
X115084836Y-124650117D02*
X115084836Y-125316784D01*
X114846741Y-124269165D02*
X114608646Y-124983450D01*
X114608646Y-124983450D02*
X115227693Y-124983450D01*
X106827693Y-125316784D02*
X106256265Y-125316784D01*
X106541979Y-125316784D02*
X106541979Y-124316784D01*
X106541979Y-124316784D02*
X106446741Y-124459641D01*
X106446741Y-124459641D02*
X106351503Y-124554879D01*
X106351503Y-124554879D02*
X106256265Y-124602498D01*
X107780074Y-125316784D02*
X107208646Y-125316784D01*
X107494360Y-125316784D02*
X107494360Y-124316784D01*
X107494360Y-124316784D02*
X107399122Y-124459641D01*
X107399122Y-124459641D02*
X107303884Y-124554879D01*
X107303884Y-124554879D02*
X107208646Y-124602498D01*
D12*
G36*
X243059231Y-132836523D02*
G01*
X243156490Y-132933782D01*
X243305513Y-133231827D01*
X243305513Y-133710044D01*
X243156490Y-134008089D01*
X243033141Y-134131438D01*
X242735097Y-134280460D01*
X241448370Y-134280460D01*
X241448370Y-132661412D01*
X242533896Y-132661412D01*
X243059231Y-132836523D01*
G37*
G36*
X242795049Y-130429483D02*
G01*
X242918394Y-130552829D01*
X243067417Y-130850874D01*
X243067417Y-131090997D01*
X242918394Y-131389042D01*
X242795049Y-131512388D01*
X242497002Y-131661412D01*
X241448370Y-131661412D01*
X241448370Y-130280460D01*
X242497002Y-130280460D01*
X242795049Y-130429483D01*
G37*
G36*
X244861069Y-135836016D02*
G01*
X239892814Y-135836016D01*
X239892814Y-129780460D01*
X240448370Y-129780460D01*
X240448370Y-134780460D01*
X240452648Y-134845723D01*
X240486430Y-134971802D01*
X240551693Y-135084841D01*
X240643989Y-135177137D01*
X240757028Y-135242400D01*
X240883107Y-135276182D01*
X240948370Y-135280460D01*
X242853132Y-135280460D01*
X242880091Y-135278692D01*
X242888576Y-135279202D01*
X242896235Y-135277634D01*
X242918395Y-135276182D01*
X242967076Y-135263138D01*
X243016453Y-135253034D01*
X243036921Y-135244423D01*
X243044474Y-135242400D01*
X243051834Y-135238150D01*
X243076739Y-135227674D01*
X243552929Y-134989578D01*
X243609389Y-134956566D01*
X243620659Y-134946571D01*
X243633703Y-134939041D01*
X243682876Y-134895918D01*
X243920971Y-134657822D01*
X243964094Y-134608649D01*
X243971626Y-134595602D01*
X243981617Y-134584336D01*
X244014630Y-134527877D01*
X244252726Y-134051687D01*
X244263200Y-134026786D01*
X244267453Y-134019421D01*
X244269478Y-134011863D01*
X244278086Y-133991400D01*
X244288188Y-133942032D01*
X244301235Y-133893342D01*
X244302687Y-133871183D01*
X244304255Y-133863524D01*
X244303745Y-133855039D01*
X244305513Y-133828079D01*
X244305513Y-133113793D01*
X244303745Y-133086832D01*
X244304255Y-133078348D01*
X244302687Y-133070688D01*
X244301235Y-133048530D01*
X244288188Y-132999839D01*
X244278086Y-132950472D01*
X244269478Y-132930008D01*
X244267453Y-132922451D01*
X244263200Y-132915085D01*
X244252726Y-132890185D01*
X244014630Y-132413995D01*
X243981617Y-132357536D01*
X243971626Y-132346269D01*
X243964094Y-132333223D01*
X243920971Y-132284050D01*
X243682876Y-132045954D01*
X243679051Y-132042599D01*
X243682875Y-132038776D01*
X243725998Y-131989603D01*
X243733530Y-131976557D01*
X243743523Y-131965288D01*
X243776536Y-131908828D01*
X244014631Y-131432638D01*
X244025107Y-131407733D01*
X244029357Y-131400373D01*
X244031380Y-131392820D01*
X244039991Y-131372352D01*
X244050095Y-131322975D01*
X244063139Y-131274294D01*
X244064591Y-131252134D01*
X244066159Y-131244475D01*
X244065649Y-131235990D01*
X244067417Y-131209031D01*
X244067417Y-130732841D01*
X244065649Y-130705881D01*
X244066159Y-130697397D01*
X244064591Y-130689737D01*
X244063139Y-130667578D01*
X244050095Y-130618896D01*
X244039991Y-130569520D01*
X244031380Y-130549051D01*
X244029357Y-130541499D01*
X244025107Y-130534138D01*
X244014631Y-130509234D01*
X243776536Y-130033044D01*
X243743523Y-129976584D01*
X243733530Y-129965314D01*
X243725998Y-129952269D01*
X243682875Y-129903096D01*
X243444780Y-129665002D01*
X243395607Y-129621879D01*
X243382563Y-129614348D01*
X243371293Y-129604354D01*
X243314833Y-129571341D01*
X242838642Y-129333246D01*
X242813741Y-129322771D01*
X242806378Y-129318520D01*
X242798823Y-129316495D01*
X242778356Y-129307886D01*
X242728982Y-129297782D01*
X242680299Y-129284738D01*
X242658139Y-129283285D01*
X242650480Y-129281718D01*
X242641995Y-129282227D01*
X242615036Y-129280460D01*
X240948370Y-129280460D01*
X240883107Y-129284738D01*
X240757028Y-129318520D01*
X240643989Y-129383783D01*
X240551693Y-129476079D01*
X240486430Y-129589118D01*
X240452648Y-129715197D01*
X240448370Y-129780460D01*
X239892814Y-129780460D01*
X239892814Y-128724904D01*
X244861069Y-128724904D01*
X244861069Y-135836016D01*
G37*
D13*
X198280000Y-64644365D03*
X200820000Y-64644365D03*
X203360000Y-64644365D03*
X205900000Y-64644365D03*
X208440000Y-64644365D03*
X210980000Y-64644365D03*
X213520000Y-64644365D03*
X216060000Y-64644365D03*
X218600000Y-64644365D03*
X221140000Y-64644365D03*
X198280000Y-62104365D03*
X200820000Y-62104365D03*
X203360000Y-62104365D03*
X205900000Y-62104365D03*
X208440000Y-62104365D03*
X210980000Y-62104365D03*
X213520000Y-62104365D03*
X216060000Y-62104365D03*
X218600000Y-62104365D03*
X221140000Y-62104365D03*
X198280000Y-59564365D03*
X200820000Y-59564365D03*
X203360000Y-59564365D03*
X205900000Y-59564365D03*
X208440000Y-59564365D03*
X210980000Y-59564365D03*
X213520000Y-59564365D03*
X216060000Y-59564365D03*
X218600000Y-59564365D03*
X221140000Y-59564365D03*
X198280000Y-57024365D03*
X200820000Y-57024365D03*
X203360000Y-57024365D03*
X205900000Y-57024365D03*
X208440000Y-57024365D03*
X210980000Y-57024365D03*
X213520000Y-57024365D03*
X216060000Y-57024365D03*
X218600000Y-57024365D03*
X221140000Y-57024365D03*
X198280000Y-54484365D03*
X200820000Y-54484365D03*
X203360000Y-54484365D03*
X205900000Y-54484365D03*
X208440000Y-54484365D03*
X210980000Y-54484365D03*
X213520000Y-54484365D03*
X216060000Y-54484365D03*
X218600000Y-54484365D03*
X221140000Y-54484365D03*
X198280000Y-51944365D03*
X200820000Y-51944365D03*
X203360000Y-51944365D03*
X205900000Y-51944365D03*
X208440000Y-51944365D03*
X210980000Y-51944365D03*
X213520000Y-51944365D03*
X216060000Y-51944365D03*
X218600000Y-51944365D03*
X221140000Y-51944365D03*
X198280000Y-49404365D03*
X200820000Y-49404365D03*
X203360000Y-49404365D03*
X205900000Y-49404365D03*
X208440000Y-49404365D03*
X210980000Y-49404365D03*
X213520000Y-49404365D03*
X216060000Y-49404365D03*
X218600000Y-49404365D03*
X221140000Y-49404365D03*
X198280000Y-46864365D03*
X200820000Y-46864365D03*
X203360000Y-46864365D03*
X205900000Y-46864365D03*
X208440000Y-46864365D03*
X210980000Y-46864365D03*
X213520000Y-46864365D03*
X216060000Y-46864365D03*
X218600000Y-46864365D03*
X221140000Y-46864365D03*
X198280000Y-44324365D03*
X200820000Y-44324365D03*
X203360000Y-44324365D03*
X205900000Y-44324365D03*
X208440000Y-44324365D03*
X210980000Y-44324365D03*
X213520000Y-44324365D03*
X216060000Y-44324365D03*
X218600000Y-44324365D03*
X221140000Y-44324365D03*
X198280000Y-41784365D03*
X200820000Y-41784365D03*
X203360000Y-41784365D03*
X205900000Y-41784365D03*
X208440000Y-41784365D03*
X210980000Y-41784365D03*
X213520000Y-41784365D03*
X216060000Y-41784365D03*
X218600000Y-41784365D03*
X221140000Y-41784365D03*
X81440000Y-120524365D03*
X83980000Y-120524365D03*
X86520000Y-120524365D03*
X89060000Y-120524365D03*
X91600000Y-120524365D03*
X94140000Y-120524365D03*
X96680000Y-120524365D03*
X99220000Y-120524365D03*
X101760000Y-120524365D03*
X104300000Y-120524365D03*
X106840000Y-120524365D03*
X109380000Y-120524365D03*
X111920000Y-120524365D03*
X114460000Y-120524365D03*
X117000000Y-120524365D03*
X119540000Y-120524365D03*
X122080000Y-120524365D03*
X124620000Y-120524365D03*
X127160000Y-120524365D03*
X129700000Y-120524365D03*
X132240000Y-120524365D03*
X134780000Y-120524365D03*
X137320000Y-120524365D03*
X139860000Y-120524365D03*
X142400000Y-120524365D03*
X144940000Y-120524365D03*
X147480000Y-120524365D03*
X150020000Y-120524365D03*
X152560000Y-120524365D03*
X155100000Y-120524365D03*
X157640000Y-120524365D03*
X160180000Y-120524365D03*
X162720000Y-120524365D03*
X165260000Y-120524365D03*
X167800000Y-120524365D03*
X170340000Y-120524365D03*
X172880000Y-120524365D03*
X175420000Y-120524365D03*
X177960000Y-120524365D03*
X180500000Y-120524365D03*
X183040000Y-120524365D03*
X185580000Y-120524365D03*
X188120000Y-120524365D03*
X190660000Y-120524365D03*
X193200000Y-120524365D03*
X195740000Y-120524365D03*
X198280000Y-120524365D03*
X200820000Y-120524365D03*
X203360000Y-120524365D03*
X205900000Y-120524365D03*
X208440000Y-120524365D03*
X210980000Y-120524365D03*
X213520000Y-120524365D03*
X216060000Y-120524365D03*
X218600000Y-120524365D03*
X221140000Y-120524365D03*
X223680000Y-120524365D03*
X226220000Y-120524365D03*
X228760000Y-120524365D03*
X231300000Y-120524365D03*
X233840000Y-120524365D03*
X236380000Y-120524365D03*
X81440000Y-123064365D03*
X83980000Y-123064365D03*
X86520000Y-123064365D03*
X89060000Y-123064365D03*
X91600000Y-123064365D03*
X94140000Y-123064365D03*
X96680000Y-123064365D03*
X99220000Y-123064365D03*
X101760000Y-123064365D03*
X104300000Y-123064365D03*
X106840000Y-123064365D03*
X109380000Y-123064365D03*
X111920000Y-123064365D03*
X114460000Y-123064365D03*
X117000000Y-123064365D03*
X119540000Y-123064365D03*
X122080000Y-123064365D03*
X124620000Y-123064365D03*
X127160000Y-123064365D03*
X129700000Y-123064365D03*
X132240000Y-123064365D03*
X134780000Y-123064365D03*
X137320000Y-123064365D03*
X139860000Y-123064365D03*
X142400000Y-123064365D03*
X144940000Y-123064365D03*
X147480000Y-123064365D03*
X150020000Y-123064365D03*
X152560000Y-123064365D03*
X155100000Y-123064365D03*
X157640000Y-123064365D03*
X160180000Y-123064365D03*
X162720000Y-123064365D03*
X165260000Y-123064365D03*
X167800000Y-123064365D03*
X170340000Y-123064365D03*
X172880000Y-123064365D03*
X175420000Y-123064365D03*
X177960000Y-123064365D03*
X180500000Y-123064365D03*
X183040000Y-123064365D03*
X185580000Y-123064365D03*
X188120000Y-123064365D03*
X190660000Y-123064365D03*
X193200000Y-123064365D03*
X195740000Y-123064365D03*
X198280000Y-123064365D03*
X200820000Y-123064365D03*
X203360000Y-123064365D03*
X205900000Y-123064365D03*
X208440000Y-123064365D03*
X210980000Y-123064365D03*
X213520000Y-123064365D03*
X216060000Y-123064365D03*
X218600000Y-123064365D03*
X221140000Y-123064365D03*
X223680000Y-123064365D03*
X226220000Y-123064365D03*
X228760000Y-123064365D03*
X231300000Y-123064365D03*
X233840000Y-123064365D03*
X236380000Y-123064365D03*
X223680000Y-64644365D03*
X226220000Y-64644365D03*
X228760000Y-64644365D03*
X231300000Y-64644365D03*
X233840000Y-64644365D03*
X236380000Y-64644365D03*
X238920000Y-64644365D03*
X241460000Y-64644365D03*
X244000000Y-64644365D03*
X246540000Y-64644365D03*
X223680000Y-62104365D03*
X226220000Y-62104365D03*
X228760000Y-62104365D03*
X231300000Y-62104365D03*
X233840000Y-62104365D03*
X236380000Y-62104365D03*
X238920000Y-62104365D03*
X241460000Y-62104365D03*
X244000000Y-62104365D03*
X246540000Y-62104365D03*
X223680000Y-59564365D03*
X226220000Y-59564365D03*
X228760000Y-59564365D03*
X231300000Y-59564365D03*
X233840000Y-59564365D03*
X236380000Y-59564365D03*
X238920000Y-59564365D03*
X241460000Y-59564365D03*
X244000000Y-59564365D03*
X246540000Y-59564365D03*
X223680000Y-57024365D03*
X226220000Y-57024365D03*
X228760000Y-57024365D03*
X231300000Y-57024365D03*
X233840000Y-57024365D03*
X236380000Y-57024365D03*
X238920000Y-57024365D03*
X241460000Y-57024365D03*
X244000000Y-57024365D03*
X246540000Y-57024365D03*
X223680000Y-54484365D03*
X226220000Y-54484365D03*
X228760000Y-54484365D03*
X231300000Y-54484365D03*
X233840000Y-54484365D03*
X236380000Y-54484365D03*
X238920000Y-54484365D03*
X241460000Y-54484365D03*
X244000000Y-54484365D03*
X246540000Y-54484365D03*
X223680000Y-51944365D03*
X226220000Y-51944365D03*
X228760000Y-51944365D03*
X231300000Y-51944365D03*
X233840000Y-51944365D03*
X236380000Y-51944365D03*
X238920000Y-51944365D03*
X241460000Y-51944365D03*
X244000000Y-51944365D03*
X246540000Y-51944365D03*
X223680000Y-49404365D03*
X226220000Y-49404365D03*
X228760000Y-49404365D03*
X231300000Y-49404365D03*
X233840000Y-49404365D03*
X236380000Y-49404365D03*
X238920000Y-49404365D03*
X241460000Y-49404365D03*
X244000000Y-49404365D03*
X246540000Y-49404365D03*
X223680000Y-46864365D03*
X226220000Y-46864365D03*
X228760000Y-46864365D03*
X231300000Y-46864365D03*
X233840000Y-46864365D03*
X236380000Y-46864365D03*
X238920000Y-46864365D03*
X241460000Y-46864365D03*
X244000000Y-46864365D03*
X246540000Y-46864365D03*
X223680000Y-44324365D03*
X226220000Y-44324365D03*
X228760000Y-44324365D03*
X231300000Y-44324365D03*
X233840000Y-44324365D03*
X236380000Y-44324365D03*
X238920000Y-44324365D03*
X241460000Y-44324365D03*
X244000000Y-44324365D03*
X246540000Y-44324365D03*
X223680000Y-41784365D03*
X226220000Y-41784365D03*
X228760000Y-41784365D03*
X231300000Y-41784365D03*
X233840000Y-41784365D03*
X236380000Y-41784365D03*
X238920000Y-41784365D03*
X241460000Y-41784365D03*
X244000000Y-41784365D03*
X246540000Y-41784365D03*
X172880000Y-115444365D03*
X175420000Y-115444365D03*
X177960000Y-115444365D03*
X180500000Y-115444365D03*
X183040000Y-115444365D03*
X185580000Y-115444365D03*
X188120000Y-115444365D03*
X190660000Y-115444365D03*
X193200000Y-115444365D03*
X195740000Y-115444365D03*
X172880000Y-112904365D03*
X175420000Y-112904365D03*
X177960000Y-112904365D03*
X180500000Y-112904365D03*
X183040000Y-112904365D03*
X185580000Y-112904365D03*
X188120000Y-112904365D03*
X190660000Y-112904365D03*
X193200000Y-112904365D03*
X195740000Y-112904365D03*
X172880000Y-110364365D03*
X175420000Y-110364365D03*
X177960000Y-110364365D03*
X180500000Y-110364365D03*
X183040000Y-110364365D03*
X185580000Y-110364365D03*
X188120000Y-110364365D03*
X190660000Y-110364365D03*
X193200000Y-110364365D03*
X195740000Y-110364365D03*
X172880000Y-107824365D03*
X175420000Y-107824365D03*
X177960000Y-107824365D03*
X180500000Y-107824365D03*
X183040000Y-107824365D03*
X185580000Y-107824365D03*
X188120000Y-107824365D03*
X190660000Y-107824365D03*
X193200000Y-107824365D03*
X195740000Y-107824365D03*
X172880000Y-105284365D03*
X175420000Y-105284365D03*
X177960000Y-105284365D03*
X180500000Y-105284365D03*
X183040000Y-105284365D03*
X185580000Y-105284365D03*
X188120000Y-105284365D03*
X190660000Y-105284365D03*
X193200000Y-105284365D03*
X195740000Y-105284365D03*
X172880000Y-102744365D03*
X175420000Y-102744365D03*
X177960000Y-102744365D03*
X180500000Y-102744365D03*
X183040000Y-102744365D03*
X185580000Y-102744365D03*
X188120000Y-102744365D03*
X190660000Y-102744365D03*
X193200000Y-102744365D03*
X195740000Y-102744365D03*
X172880000Y-100204365D03*
X175420000Y-100204365D03*
X177960000Y-100204365D03*
X180500000Y-100204365D03*
X183040000Y-100204365D03*
X185580000Y-100204365D03*
X188120000Y-100204365D03*
X190660000Y-100204365D03*
X193200000Y-100204365D03*
X195740000Y-100204365D03*
X172880000Y-97664365D03*
X175420000Y-97664365D03*
X177960000Y-97664365D03*
X180500000Y-97664365D03*
X183040000Y-97664365D03*
X185580000Y-97664365D03*
X188120000Y-97664365D03*
X190660000Y-97664365D03*
X193200000Y-97664365D03*
X195740000Y-97664365D03*
X172880000Y-95124365D03*
X175420000Y-95124365D03*
X177960000Y-95124365D03*
X180500000Y-95124365D03*
X183040000Y-95124365D03*
X185580000Y-95124365D03*
X188120000Y-95124365D03*
X190660000Y-95124365D03*
X193200000Y-95124365D03*
X195740000Y-95124365D03*
X172880000Y-92584365D03*
X175420000Y-92584365D03*
X177960000Y-92584365D03*
X180500000Y-92584365D03*
X183040000Y-92584365D03*
X185580000Y-92584365D03*
X188120000Y-92584365D03*
X190660000Y-92584365D03*
X193200000Y-92584365D03*
X195740000Y-92584365D03*
X122080000Y-115444365D03*
X124620000Y-115444365D03*
X127160000Y-115444365D03*
X129700000Y-115444365D03*
X132240000Y-115444365D03*
X134780000Y-115444365D03*
X137320000Y-115444365D03*
X139860000Y-115444365D03*
X142400000Y-115444365D03*
X144940000Y-115444365D03*
X122080000Y-112904365D03*
X124620000Y-112904365D03*
X127160000Y-112904365D03*
X129700000Y-112904365D03*
X132240000Y-112904365D03*
X134780000Y-112904365D03*
X137320000Y-112904365D03*
X139860000Y-112904365D03*
X142400000Y-112904365D03*
X144940000Y-112904365D03*
X122080000Y-110364365D03*
X124620000Y-110364365D03*
X127160000Y-110364365D03*
X129700000Y-110364365D03*
X132240000Y-110364365D03*
X134780000Y-110364365D03*
X137320000Y-110364365D03*
X139860000Y-110364365D03*
X142400000Y-110364365D03*
X144940000Y-110364365D03*
X122080000Y-107824365D03*
X124620000Y-107824365D03*
X127160000Y-107824365D03*
X129700000Y-107824365D03*
X132240000Y-107824365D03*
X134780000Y-107824365D03*
X137320000Y-107824365D03*
X139860000Y-107824365D03*
X142400000Y-107824365D03*
X144940000Y-107824365D03*
X122080000Y-105284365D03*
X124620000Y-105284365D03*
X127160000Y-105284365D03*
X129700000Y-105284365D03*
X132240000Y-105284365D03*
X134780000Y-105284365D03*
X137320000Y-105284365D03*
X139860000Y-105284365D03*
X142400000Y-105284365D03*
X144940000Y-105284365D03*
X122080000Y-102744365D03*
X124620000Y-102744365D03*
X127160000Y-102744365D03*
X129700000Y-102744365D03*
X132240000Y-102744365D03*
X134780000Y-102744365D03*
X137320000Y-102744365D03*
X139860000Y-102744365D03*
X142400000Y-102744365D03*
X144940000Y-102744365D03*
X122080000Y-100204365D03*
X124620000Y-100204365D03*
X127160000Y-100204365D03*
X129700000Y-100204365D03*
X132240000Y-100204365D03*
X134780000Y-100204365D03*
X137320000Y-100204365D03*
X139860000Y-100204365D03*
X142400000Y-100204365D03*
X144940000Y-100204365D03*
X122080000Y-97664365D03*
X124620000Y-97664365D03*
X127160000Y-97664365D03*
X129700000Y-97664365D03*
X132240000Y-97664365D03*
X134780000Y-97664365D03*
X137320000Y-97664365D03*
X139860000Y-97664365D03*
X142400000Y-97664365D03*
X144940000Y-97664365D03*
X122080000Y-95124365D03*
X124620000Y-95124365D03*
X127160000Y-95124365D03*
X129700000Y-95124365D03*
X132240000Y-95124365D03*
X134780000Y-95124365D03*
X137320000Y-95124365D03*
X139860000Y-95124365D03*
X142400000Y-95124365D03*
X144940000Y-95124365D03*
X122080000Y-92584365D03*
X124620000Y-92584365D03*
X127160000Y-92584365D03*
X129700000Y-92584365D03*
X132240000Y-92584365D03*
X134780000Y-92584365D03*
X137320000Y-92584365D03*
X139860000Y-92584365D03*
X142400000Y-92584365D03*
X144940000Y-92584365D03*
X96680000Y-64644365D03*
X99220000Y-64644365D03*
X101760000Y-64644365D03*
X104300000Y-64644365D03*
X106840000Y-64644365D03*
X109380000Y-64644365D03*
X111920000Y-64644365D03*
X114460000Y-64644365D03*
X117000000Y-64644365D03*
X119540000Y-64644365D03*
X96680000Y-62104365D03*
X99220000Y-62104365D03*
X101760000Y-62104365D03*
X104300000Y-62104365D03*
X106840000Y-62104365D03*
X109380000Y-62104365D03*
X111920000Y-62104365D03*
X114460000Y-62104365D03*
X117000000Y-62104365D03*
X119540000Y-62104365D03*
X96680000Y-59564365D03*
X99220000Y-59564365D03*
X101760000Y-59564365D03*
X104300000Y-59564365D03*
X106840000Y-59564365D03*
X109380000Y-59564365D03*
X111920000Y-59564365D03*
X114460000Y-59564365D03*
X117000000Y-59564365D03*
X119540000Y-59564365D03*
X96680000Y-57024365D03*
X99220000Y-57024365D03*
X101760000Y-57024365D03*
X104300000Y-57024365D03*
X106840000Y-57024365D03*
X109380000Y-57024365D03*
X111920000Y-57024365D03*
X114460000Y-57024365D03*
X117000000Y-57024365D03*
X119540000Y-57024365D03*
X96680000Y-54484365D03*
X99220000Y-54484365D03*
X101760000Y-54484365D03*
X104300000Y-54484365D03*
X106840000Y-54484365D03*
X109380000Y-54484365D03*
X111920000Y-54484365D03*
X114460000Y-54484365D03*
X117000000Y-54484365D03*
X119540000Y-54484365D03*
X96680000Y-51944365D03*
X99220000Y-51944365D03*
X101760000Y-51944365D03*
X104300000Y-51944365D03*
X106840000Y-51944365D03*
X109380000Y-51944365D03*
X111920000Y-51944365D03*
X114460000Y-51944365D03*
X117000000Y-51944365D03*
X119540000Y-51944365D03*
X96680000Y-49404365D03*
X99220000Y-49404365D03*
X101760000Y-49404365D03*
X104300000Y-49404365D03*
X106840000Y-49404365D03*
X109380000Y-49404365D03*
X111920000Y-49404365D03*
X114460000Y-49404365D03*
X117000000Y-49404365D03*
X119540000Y-49404365D03*
X96680000Y-46864365D03*
X99220000Y-46864365D03*
X101760000Y-46864365D03*
X104300000Y-46864365D03*
X106840000Y-46864365D03*
X109380000Y-46864365D03*
X111920000Y-46864365D03*
X114460000Y-46864365D03*
X117000000Y-46864365D03*
X119540000Y-46864365D03*
X96680000Y-44324365D03*
X99220000Y-44324365D03*
X101760000Y-44324365D03*
X104300000Y-44324365D03*
X106840000Y-44324365D03*
X109380000Y-44324365D03*
X111920000Y-44324365D03*
X114460000Y-44324365D03*
X117000000Y-44324365D03*
X119540000Y-44324365D03*
X96680000Y-41784365D03*
X99220000Y-41784365D03*
X101760000Y-41784365D03*
X104300000Y-41784365D03*
X106840000Y-41784365D03*
X109380000Y-41784365D03*
X111920000Y-41784365D03*
X114460000Y-41784365D03*
X117000000Y-41784365D03*
X119540000Y-41784365D03*
X147480000Y-115444365D03*
X150020000Y-115444365D03*
X152560000Y-115444365D03*
X155100000Y-115444365D03*
X157640000Y-115444365D03*
X160180000Y-115444365D03*
X162720000Y-115444365D03*
X165260000Y-115444365D03*
X167800000Y-115444365D03*
X170340000Y-115444365D03*
X147480000Y-112904365D03*
X150020000Y-112904365D03*
X152560000Y-112904365D03*
X155100000Y-112904365D03*
X157640000Y-112904365D03*
X160180000Y-112904365D03*
X162720000Y-112904365D03*
X165260000Y-112904365D03*
X167800000Y-112904365D03*
X170340000Y-112904365D03*
X147480000Y-110364365D03*
X150020000Y-110364365D03*
X152560000Y-110364365D03*
X155100000Y-110364365D03*
X157640000Y-110364365D03*
X160180000Y-110364365D03*
X162720000Y-110364365D03*
X165260000Y-110364365D03*
X167800000Y-110364365D03*
X170340000Y-110364365D03*
X147480000Y-107824365D03*
X150020000Y-107824365D03*
X152560000Y-107824365D03*
X155100000Y-107824365D03*
X157640000Y-107824365D03*
X160180000Y-107824365D03*
X162720000Y-107824365D03*
X165260000Y-107824365D03*
X167800000Y-107824365D03*
X170340000Y-107824365D03*
X147480000Y-105284365D03*
X150020000Y-105284365D03*
X152560000Y-105284365D03*
X155100000Y-105284365D03*
X157640000Y-105284365D03*
X160180000Y-105284365D03*
X162720000Y-105284365D03*
X165260000Y-105284365D03*
X167800000Y-105284365D03*
X170340000Y-105284365D03*
X147480000Y-102744365D03*
X150020000Y-102744365D03*
X152560000Y-102744365D03*
X155100000Y-102744365D03*
X157640000Y-102744365D03*
X160180000Y-102744365D03*
X162720000Y-102744365D03*
X165260000Y-102744365D03*
X167800000Y-102744365D03*
X170340000Y-102744365D03*
X147480000Y-100204365D03*
X150020000Y-100204365D03*
X152560000Y-100204365D03*
X155100000Y-100204365D03*
X157640000Y-100204365D03*
X160180000Y-100204365D03*
X162720000Y-100204365D03*
X165260000Y-100204365D03*
X167800000Y-100204365D03*
X170340000Y-100204365D03*
X147480000Y-97664365D03*
X150020000Y-97664365D03*
X152560000Y-97664365D03*
X155100000Y-97664365D03*
X157640000Y-97664365D03*
X160180000Y-97664365D03*
X162720000Y-97664365D03*
X165260000Y-97664365D03*
X167800000Y-97664365D03*
X170340000Y-97664365D03*
X147480000Y-95124365D03*
X150020000Y-95124365D03*
X152560000Y-95124365D03*
X155100000Y-95124365D03*
X157640000Y-95124365D03*
X160180000Y-95124365D03*
X162720000Y-95124365D03*
X165260000Y-95124365D03*
X167800000Y-95124365D03*
X170340000Y-95124365D03*
X147480000Y-92584365D03*
X150020000Y-92584365D03*
X152560000Y-92584365D03*
X155100000Y-92584365D03*
X157640000Y-92584365D03*
X160180000Y-92584365D03*
X162720000Y-92584365D03*
X165260000Y-92584365D03*
X167800000Y-92584365D03*
X170340000Y-92584365D03*
X223680000Y-115444365D03*
X226220000Y-115444365D03*
X228760000Y-115444365D03*
X231300000Y-115444365D03*
X233840000Y-115444365D03*
X236380000Y-115444365D03*
X238920000Y-115444365D03*
X241460000Y-115444365D03*
X244000000Y-115444365D03*
X246540000Y-115444365D03*
X223680000Y-112904365D03*
X226220000Y-112904365D03*
X228760000Y-112904365D03*
X231300000Y-112904365D03*
X233840000Y-112904365D03*
X236380000Y-112904365D03*
X238920000Y-112904365D03*
X241460000Y-112904365D03*
X244000000Y-112904365D03*
X246540000Y-112904365D03*
X223680000Y-110364365D03*
X226220000Y-110364365D03*
X228760000Y-110364365D03*
X231300000Y-110364365D03*
X233840000Y-110364365D03*
X236380000Y-110364365D03*
X238920000Y-110364365D03*
X241460000Y-110364365D03*
X244000000Y-110364365D03*
X246540000Y-110364365D03*
X223680000Y-107824365D03*
X226220000Y-107824365D03*
X228760000Y-107824365D03*
X231300000Y-107824365D03*
X233840000Y-107824365D03*
X236380000Y-107824365D03*
X238920000Y-107824365D03*
X241460000Y-107824365D03*
X244000000Y-107824365D03*
X246540000Y-107824365D03*
X223680000Y-105284365D03*
X226220000Y-105284365D03*
X228760000Y-105284365D03*
X231300000Y-105284365D03*
X233840000Y-105284365D03*
X236380000Y-105284365D03*
X238920000Y-105284365D03*
X241460000Y-105284365D03*
X244000000Y-105284365D03*
X246540000Y-105284365D03*
X223680000Y-102744365D03*
X226220000Y-102744365D03*
X228760000Y-102744365D03*
X231300000Y-102744365D03*
X233840000Y-102744365D03*
X236380000Y-102744365D03*
X238920000Y-102744365D03*
X241460000Y-102744365D03*
X244000000Y-102744365D03*
X246540000Y-102744365D03*
X223680000Y-100204365D03*
X226220000Y-100204365D03*
X228760000Y-100204365D03*
X231300000Y-100204365D03*
X233840000Y-100204365D03*
X236380000Y-100204365D03*
X238920000Y-100204365D03*
X241460000Y-100204365D03*
X244000000Y-100204365D03*
X246540000Y-100204365D03*
X223680000Y-97664365D03*
X226220000Y-97664365D03*
X228760000Y-97664365D03*
X231300000Y-97664365D03*
X233840000Y-97664365D03*
X236380000Y-97664365D03*
X238920000Y-97664365D03*
X241460000Y-97664365D03*
X244000000Y-97664365D03*
X246540000Y-97664365D03*
X223680000Y-95124365D03*
X226220000Y-95124365D03*
X228760000Y-95124365D03*
X231300000Y-95124365D03*
X233840000Y-95124365D03*
X236380000Y-95124365D03*
X238920000Y-95124365D03*
X241460000Y-95124365D03*
X244000000Y-95124365D03*
X246540000Y-95124365D03*
X223680000Y-92584365D03*
X226220000Y-92584365D03*
X228760000Y-92584365D03*
X231300000Y-92584365D03*
X233840000Y-92584365D03*
X236380000Y-92584365D03*
X238920000Y-92584365D03*
X241460000Y-92584365D03*
X244000000Y-92584365D03*
X246540000Y-92584365D03*
X147480000Y-90044365D03*
X150020000Y-90044365D03*
X152560000Y-90044365D03*
X155100000Y-90044365D03*
X157640000Y-90044365D03*
X160180000Y-90044365D03*
X162720000Y-90044365D03*
X165260000Y-90044365D03*
X167800000Y-90044365D03*
X170340000Y-90044365D03*
X147480000Y-87504365D03*
X150020000Y-87504365D03*
X152560000Y-87504365D03*
X155100000Y-87504365D03*
X157640000Y-87504365D03*
X160180000Y-87504365D03*
X162720000Y-87504365D03*
X165260000Y-87504365D03*
X167800000Y-87504365D03*
X170340000Y-87504365D03*
X147480000Y-84964365D03*
X150020000Y-84964365D03*
X152560000Y-84964365D03*
X155100000Y-84964365D03*
X157640000Y-84964365D03*
X160180000Y-84964365D03*
X162720000Y-84964365D03*
X165260000Y-84964365D03*
X167800000Y-84964365D03*
X170340000Y-84964365D03*
X147480000Y-82424365D03*
X150020000Y-82424365D03*
X152560000Y-82424365D03*
X155100000Y-82424365D03*
X157640000Y-82424365D03*
X160180000Y-82424365D03*
X162720000Y-82424365D03*
X165260000Y-82424365D03*
X167800000Y-82424365D03*
X170340000Y-82424365D03*
X147480000Y-79884365D03*
X150020000Y-79884365D03*
X152560000Y-79884365D03*
X155100000Y-79884365D03*
X157640000Y-79884365D03*
X160180000Y-79884365D03*
X162720000Y-79884365D03*
X165260000Y-79884365D03*
X167800000Y-79884365D03*
X170340000Y-79884365D03*
X147480000Y-77344365D03*
X150020000Y-77344365D03*
X152560000Y-77344365D03*
X155100000Y-77344365D03*
X157640000Y-77344365D03*
X160180000Y-77344365D03*
X162720000Y-77344365D03*
X165260000Y-77344365D03*
X167800000Y-77344365D03*
X170340000Y-77344365D03*
X147480000Y-74804365D03*
X150020000Y-74804365D03*
X152560000Y-74804365D03*
X155100000Y-74804365D03*
X157640000Y-74804365D03*
X160180000Y-74804365D03*
X162720000Y-74804365D03*
X165260000Y-74804365D03*
X167800000Y-74804365D03*
X170340000Y-74804365D03*
X147480000Y-72264365D03*
X150020000Y-72264365D03*
X152560000Y-72264365D03*
X155100000Y-72264365D03*
X157640000Y-72264365D03*
X160180000Y-72264365D03*
X162720000Y-72264365D03*
X165260000Y-72264365D03*
X167800000Y-72264365D03*
X170340000Y-72264365D03*
X147480000Y-69724365D03*
X150020000Y-69724365D03*
X152560000Y-69724365D03*
X155100000Y-69724365D03*
X157640000Y-69724365D03*
X160180000Y-69724365D03*
X162720000Y-69724365D03*
X165260000Y-69724365D03*
X167800000Y-69724365D03*
X170340000Y-69724365D03*
X147480000Y-67184365D03*
X150020000Y-67184365D03*
X152560000Y-67184365D03*
X155100000Y-67184365D03*
X157640000Y-67184365D03*
X160180000Y-67184365D03*
X162720000Y-67184365D03*
X165260000Y-67184365D03*
X167800000Y-67184365D03*
X170340000Y-67184365D03*
X172880000Y-90044365D03*
X175420000Y-90044365D03*
X177960000Y-90044365D03*
X180500000Y-90044365D03*
X183040000Y-90044365D03*
X185580000Y-90044365D03*
X188120000Y-90044365D03*
X190660000Y-90044365D03*
X193200000Y-90044365D03*
X195740000Y-90044365D03*
X172880000Y-87504365D03*
X175420000Y-87504365D03*
X177960000Y-87504365D03*
X180500000Y-87504365D03*
X183040000Y-87504365D03*
X185580000Y-87504365D03*
X188120000Y-87504365D03*
X190660000Y-87504365D03*
X193200000Y-87504365D03*
X195740000Y-87504365D03*
X172880000Y-84964365D03*
X175420000Y-84964365D03*
X177960000Y-84964365D03*
X180500000Y-84964365D03*
X183040000Y-84964365D03*
X185580000Y-84964365D03*
X188120000Y-84964365D03*
X190660000Y-84964365D03*
X193200000Y-84964365D03*
X195740000Y-84964365D03*
X172880000Y-82424365D03*
X175420000Y-82424365D03*
X177960000Y-82424365D03*
X180500000Y-82424365D03*
X183040000Y-82424365D03*
X185580000Y-82424365D03*
X188120000Y-82424365D03*
X190660000Y-82424365D03*
X193200000Y-82424365D03*
X195740000Y-82424365D03*
X172880000Y-79884365D03*
X175420000Y-79884365D03*
X177960000Y-79884365D03*
X180500000Y-79884365D03*
X183040000Y-79884365D03*
X185580000Y-79884365D03*
X188120000Y-79884365D03*
X190660000Y-79884365D03*
X193200000Y-79884365D03*
X195740000Y-79884365D03*
X172880000Y-77344365D03*
X175420000Y-77344365D03*
X177960000Y-77344365D03*
X180500000Y-77344365D03*
X183040000Y-77344365D03*
X185580000Y-77344365D03*
X188120000Y-77344365D03*
X190660000Y-77344365D03*
X193200000Y-77344365D03*
X195740000Y-77344365D03*
X172880000Y-74804365D03*
X175420000Y-74804365D03*
X177960000Y-74804365D03*
X180500000Y-74804365D03*
X183040000Y-74804365D03*
X185580000Y-74804365D03*
X188120000Y-74804365D03*
X190660000Y-74804365D03*
X193200000Y-74804365D03*
X195740000Y-74804365D03*
X172880000Y-72264365D03*
X175420000Y-72264365D03*
X177960000Y-72264365D03*
X180500000Y-72264365D03*
X183040000Y-72264365D03*
X185580000Y-72264365D03*
X188120000Y-72264365D03*
X190660000Y-72264365D03*
X193200000Y-72264365D03*
X195740000Y-72264365D03*
X172880000Y-69724365D03*
X175420000Y-69724365D03*
X177960000Y-69724365D03*
X180500000Y-69724365D03*
X183040000Y-69724365D03*
X185580000Y-69724365D03*
X188120000Y-69724365D03*
X190660000Y-69724365D03*
X193200000Y-69724365D03*
X195740000Y-69724365D03*
X172880000Y-67184365D03*
X175420000Y-67184365D03*
X177960000Y-67184365D03*
X180500000Y-67184365D03*
X183040000Y-67184365D03*
X185580000Y-67184365D03*
X188120000Y-67184365D03*
X190660000Y-67184365D03*
X193200000Y-67184365D03*
X195740000Y-67184365D03*
X172880000Y-64644365D03*
X175420000Y-64644365D03*
X177960000Y-64644365D03*
X180500000Y-64644365D03*
X183040000Y-64644365D03*
X185580000Y-64644365D03*
X188120000Y-64644365D03*
X190660000Y-64644365D03*
X193200000Y-64644365D03*
X195740000Y-64644365D03*
X172880000Y-62104365D03*
X175420000Y-62104365D03*
X177960000Y-62104365D03*
X180500000Y-62104365D03*
X183040000Y-62104365D03*
X185580000Y-62104365D03*
X188120000Y-62104365D03*
X190660000Y-62104365D03*
X193200000Y-62104365D03*
X195740000Y-62104365D03*
X172880000Y-59564365D03*
X175420000Y-59564365D03*
X177960000Y-59564365D03*
X180500000Y-59564365D03*
X183040000Y-59564365D03*
X185580000Y-59564365D03*
X188120000Y-59564365D03*
X190660000Y-59564365D03*
X193200000Y-59564365D03*
X195740000Y-59564365D03*
X172880000Y-57024365D03*
X175420000Y-57024365D03*
X177960000Y-57024365D03*
X180500000Y-57024365D03*
X183040000Y-57024365D03*
X185580000Y-57024365D03*
X188120000Y-57024365D03*
X190660000Y-57024365D03*
X193200000Y-57024365D03*
X195740000Y-57024365D03*
X172880000Y-54484365D03*
X175420000Y-54484365D03*
X177960000Y-54484365D03*
X180500000Y-54484365D03*
X183040000Y-54484365D03*
X185580000Y-54484365D03*
X188120000Y-54484365D03*
X190660000Y-54484365D03*
X193200000Y-54484365D03*
X195740000Y-54484365D03*
X172880000Y-51944365D03*
X175420000Y-51944365D03*
X177960000Y-51944365D03*
X180500000Y-51944365D03*
X183040000Y-51944365D03*
X185580000Y-51944365D03*
X188120000Y-51944365D03*
X190660000Y-51944365D03*
X193200000Y-51944365D03*
X195740000Y-51944365D03*
X172880000Y-49404365D03*
X175420000Y-49404365D03*
X177960000Y-49404365D03*
X180500000Y-49404365D03*
X183040000Y-49404365D03*
X185580000Y-49404365D03*
X188120000Y-49404365D03*
X190660000Y-49404365D03*
X193200000Y-49404365D03*
X195740000Y-49404365D03*
X172880000Y-46864365D03*
X175420000Y-46864365D03*
X177960000Y-46864365D03*
X180500000Y-46864365D03*
X183040000Y-46864365D03*
X185580000Y-46864365D03*
X188120000Y-46864365D03*
X190660000Y-46864365D03*
X193200000Y-46864365D03*
X195740000Y-46864365D03*
X172880000Y-44324365D03*
X175420000Y-44324365D03*
X177960000Y-44324365D03*
X180500000Y-44324365D03*
X183040000Y-44324365D03*
X185580000Y-44324365D03*
X188120000Y-44324365D03*
X190660000Y-44324365D03*
X193200000Y-44324365D03*
X195740000Y-44324365D03*
X172880000Y-41784365D03*
X175420000Y-41784365D03*
X177960000Y-41784365D03*
X180500000Y-41784365D03*
X183040000Y-41784365D03*
X185580000Y-41784365D03*
X188120000Y-41784365D03*
X190660000Y-41784365D03*
X193200000Y-41784365D03*
X195740000Y-41784365D03*
X122080000Y-90044365D03*
X124620000Y-90044365D03*
X127160000Y-90044365D03*
X129700000Y-90044365D03*
X132240000Y-90044365D03*
X134780000Y-90044365D03*
X137320000Y-90044365D03*
X139860000Y-90044365D03*
X142400000Y-90044365D03*
X144940000Y-90044365D03*
X122080000Y-87504365D03*
X124620000Y-87504365D03*
X127160000Y-87504365D03*
X129700000Y-87504365D03*
X132240000Y-87504365D03*
X134780000Y-87504365D03*
X137320000Y-87504365D03*
X139860000Y-87504365D03*
X142400000Y-87504365D03*
X144940000Y-87504365D03*
X122080000Y-84964365D03*
X124620000Y-84964365D03*
X127160000Y-84964365D03*
X129700000Y-84964365D03*
X132240000Y-84964365D03*
X134780000Y-84964365D03*
X137320000Y-84964365D03*
X139860000Y-84964365D03*
X142400000Y-84964365D03*
X144940000Y-84964365D03*
X122080000Y-82424365D03*
X124620000Y-82424365D03*
X127160000Y-82424365D03*
X129700000Y-82424365D03*
X132240000Y-82424365D03*
X134780000Y-82424365D03*
X137320000Y-82424365D03*
X139860000Y-82424365D03*
X142400000Y-82424365D03*
X144940000Y-82424365D03*
X122080000Y-79884365D03*
X124620000Y-79884365D03*
X127160000Y-79884365D03*
X129700000Y-79884365D03*
X132240000Y-79884365D03*
X134780000Y-79884365D03*
X137320000Y-79884365D03*
X139860000Y-79884365D03*
X142400000Y-79884365D03*
X144940000Y-79884365D03*
X122080000Y-77344365D03*
X124620000Y-77344365D03*
X127160000Y-77344365D03*
X129700000Y-77344365D03*
X132240000Y-77344365D03*
X134780000Y-77344365D03*
X137320000Y-77344365D03*
X139860000Y-77344365D03*
X142400000Y-77344365D03*
X144940000Y-77344365D03*
X122080000Y-74804365D03*
X124620000Y-74804365D03*
X127160000Y-74804365D03*
X129700000Y-74804365D03*
X132240000Y-74804365D03*
X134780000Y-74804365D03*
X137320000Y-74804365D03*
X139860000Y-74804365D03*
X142400000Y-74804365D03*
X144940000Y-74804365D03*
X122080000Y-72264365D03*
X124620000Y-72264365D03*
X127160000Y-72264365D03*
X129700000Y-72264365D03*
X132240000Y-72264365D03*
X134780000Y-72264365D03*
X137320000Y-72264365D03*
X139860000Y-72264365D03*
X142400000Y-72264365D03*
X144940000Y-72264365D03*
X122080000Y-69724365D03*
X124620000Y-69724365D03*
X127160000Y-69724365D03*
X129700000Y-69724365D03*
X132240000Y-69724365D03*
X134780000Y-69724365D03*
X137320000Y-69724365D03*
X139860000Y-69724365D03*
X142400000Y-69724365D03*
X144940000Y-69724365D03*
X122080000Y-67184365D03*
X124620000Y-67184365D03*
X127160000Y-67184365D03*
X129700000Y-67184365D03*
X132240000Y-67184365D03*
X134780000Y-67184365D03*
X137320000Y-67184365D03*
X139860000Y-67184365D03*
X142400000Y-67184365D03*
X144940000Y-67184365D03*
X96680000Y-90044365D03*
X99220000Y-90044365D03*
X101760000Y-90044365D03*
X104300000Y-90044365D03*
X106840000Y-90044365D03*
X109380000Y-90044365D03*
X111920000Y-90044365D03*
X114460000Y-90044365D03*
X117000000Y-90044365D03*
X119540000Y-90044365D03*
X96680000Y-87504365D03*
X99220000Y-87504365D03*
X101760000Y-87504365D03*
X104300000Y-87504365D03*
X106840000Y-87504365D03*
X109380000Y-87504365D03*
X111920000Y-87504365D03*
X114460000Y-87504365D03*
X117000000Y-87504365D03*
X119540000Y-87504365D03*
X96680000Y-84964365D03*
X99220000Y-84964365D03*
X101760000Y-84964365D03*
X104300000Y-84964365D03*
X106840000Y-84964365D03*
X109380000Y-84964365D03*
X111920000Y-84964365D03*
X114460000Y-84964365D03*
X117000000Y-84964365D03*
X119540000Y-84964365D03*
X96680000Y-82424365D03*
X99220000Y-82424365D03*
X101760000Y-82424365D03*
X104300000Y-82424365D03*
X106840000Y-82424365D03*
X109380000Y-82424365D03*
X111920000Y-82424365D03*
X114460000Y-82424365D03*
X117000000Y-82424365D03*
X119540000Y-82424365D03*
X96680000Y-79884365D03*
X99220000Y-79884365D03*
X101760000Y-79884365D03*
X104300000Y-79884365D03*
X106840000Y-79884365D03*
X109380000Y-79884365D03*
X111920000Y-79884365D03*
X114460000Y-79884365D03*
X117000000Y-79884365D03*
X119540000Y-79884365D03*
X96680000Y-77344365D03*
X99220000Y-77344365D03*
X101760000Y-77344365D03*
X104300000Y-77344365D03*
X106840000Y-77344365D03*
X109380000Y-77344365D03*
X111920000Y-77344365D03*
X114460000Y-77344365D03*
X117000000Y-77344365D03*
X119540000Y-77344365D03*
X96680000Y-74804365D03*
X99220000Y-74804365D03*
X101760000Y-74804365D03*
X104300000Y-74804365D03*
X106840000Y-74804365D03*
X109380000Y-74804365D03*
X111920000Y-74804365D03*
X114460000Y-74804365D03*
X117000000Y-74804365D03*
X119540000Y-74804365D03*
X96680000Y-72264365D03*
X99220000Y-72264365D03*
X101760000Y-72264365D03*
X104300000Y-72264365D03*
X106840000Y-72264365D03*
X109380000Y-72264365D03*
X111920000Y-72264365D03*
X114460000Y-72264365D03*
X117000000Y-72264365D03*
X119540000Y-72264365D03*
X96680000Y-69724365D03*
X99220000Y-69724365D03*
X101760000Y-69724365D03*
X104300000Y-69724365D03*
X106840000Y-69724365D03*
X109380000Y-69724365D03*
X111920000Y-69724365D03*
X114460000Y-69724365D03*
X117000000Y-69724365D03*
X119540000Y-69724365D03*
X96680000Y-67184365D03*
X99220000Y-67184365D03*
X101760000Y-67184365D03*
X104300000Y-67184365D03*
X106840000Y-67184365D03*
X109380000Y-67184365D03*
X111920000Y-67184365D03*
X114460000Y-67184365D03*
X117000000Y-67184365D03*
X119540000Y-67184365D03*
X198280000Y-90044365D03*
X200820000Y-90044365D03*
X203360000Y-90044365D03*
X205900000Y-90044365D03*
X208440000Y-90044365D03*
X210980000Y-90044365D03*
X213520000Y-90044365D03*
X216060000Y-90044365D03*
X218600000Y-90044365D03*
X221140000Y-90044365D03*
X198280000Y-87504365D03*
X200820000Y-87504365D03*
X203360000Y-87504365D03*
X205900000Y-87504365D03*
X208440000Y-87504365D03*
X210980000Y-87504365D03*
X213520000Y-87504365D03*
X216060000Y-87504365D03*
X218600000Y-87504365D03*
X221140000Y-87504365D03*
X198280000Y-84964365D03*
X200820000Y-84964365D03*
X203360000Y-84964365D03*
X205900000Y-84964365D03*
X208440000Y-84964365D03*
X210980000Y-84964365D03*
X213520000Y-84964365D03*
X216060000Y-84964365D03*
X218600000Y-84964365D03*
X221140000Y-84964365D03*
X198280000Y-82424365D03*
X200820000Y-82424365D03*
X203360000Y-82424365D03*
X205900000Y-82424365D03*
X208440000Y-82424365D03*
X210980000Y-82424365D03*
X213520000Y-82424365D03*
X216060000Y-82424365D03*
X218600000Y-82424365D03*
X221140000Y-82424365D03*
X198280000Y-79884365D03*
X200820000Y-79884365D03*
X203360000Y-79884365D03*
X205900000Y-79884365D03*
X208440000Y-79884365D03*
X210980000Y-79884365D03*
X213520000Y-79884365D03*
X216060000Y-79884365D03*
X218600000Y-79884365D03*
X221140000Y-79884365D03*
X198280000Y-77344365D03*
X200820000Y-77344365D03*
X203360000Y-77344365D03*
X205900000Y-77344365D03*
X208440000Y-77344365D03*
X210980000Y-77344365D03*
X213520000Y-77344365D03*
X216060000Y-77344365D03*
X218600000Y-77344365D03*
X221140000Y-77344365D03*
X198280000Y-74804365D03*
X200820000Y-74804365D03*
X203360000Y-74804365D03*
X205900000Y-74804365D03*
X208440000Y-74804365D03*
X210980000Y-74804365D03*
X213520000Y-74804365D03*
X216060000Y-74804365D03*
X218600000Y-74804365D03*
X221140000Y-74804365D03*
X198280000Y-72264365D03*
X200820000Y-72264365D03*
X203360000Y-72264365D03*
X205900000Y-72264365D03*
X208440000Y-72264365D03*
X210980000Y-72264365D03*
X213520000Y-72264365D03*
X216060000Y-72264365D03*
X218600000Y-72264365D03*
X221140000Y-72264365D03*
X198280000Y-69724365D03*
X200820000Y-69724365D03*
X203360000Y-69724365D03*
X205900000Y-69724365D03*
X208440000Y-69724365D03*
X210980000Y-69724365D03*
X213520000Y-69724365D03*
X216060000Y-69724365D03*
X218600000Y-69724365D03*
X221140000Y-69724365D03*
X198280000Y-67184365D03*
X200820000Y-67184365D03*
X203360000Y-67184365D03*
X205900000Y-67184365D03*
X208440000Y-67184365D03*
X210980000Y-67184365D03*
X213520000Y-67184365D03*
X216060000Y-67184365D03*
X218600000Y-67184365D03*
X221140000Y-67184365D03*
X147480000Y-64644365D03*
X150020000Y-64644365D03*
X152560000Y-64644365D03*
X155100000Y-64644365D03*
X157640000Y-64644365D03*
X160180000Y-64644365D03*
X162720000Y-64644365D03*
X165260000Y-64644365D03*
X167800000Y-64644365D03*
X170340000Y-64644365D03*
X147480000Y-62104365D03*
X150020000Y-62104365D03*
X152560000Y-62104365D03*
X155100000Y-62104365D03*
X157640000Y-62104365D03*
X160180000Y-62104365D03*
X162720000Y-62104365D03*
X165260000Y-62104365D03*
X167800000Y-62104365D03*
X170340000Y-62104365D03*
X147480000Y-59564365D03*
X150020000Y-59564365D03*
X152560000Y-59564365D03*
X155100000Y-59564365D03*
X157640000Y-59564365D03*
X160180000Y-59564365D03*
X162720000Y-59564365D03*
X165260000Y-59564365D03*
X167800000Y-59564365D03*
X170340000Y-59564365D03*
X147480000Y-57024365D03*
X150020000Y-57024365D03*
X152560000Y-57024365D03*
X155100000Y-57024365D03*
X157640000Y-57024365D03*
X160180000Y-57024365D03*
X162720000Y-57024365D03*
X165260000Y-57024365D03*
X167800000Y-57024365D03*
X170340000Y-57024365D03*
X147480000Y-54484365D03*
X150020000Y-54484365D03*
X152560000Y-54484365D03*
X155100000Y-54484365D03*
X157640000Y-54484365D03*
X160180000Y-54484365D03*
X162720000Y-54484365D03*
X165260000Y-54484365D03*
X167800000Y-54484365D03*
X170340000Y-54484365D03*
X147480000Y-51944365D03*
X150020000Y-51944365D03*
X152560000Y-51944365D03*
X155100000Y-51944365D03*
X157640000Y-51944365D03*
X160180000Y-51944365D03*
X162720000Y-51944365D03*
X165260000Y-51944365D03*
X167800000Y-51944365D03*
X170340000Y-51944365D03*
X147480000Y-49404365D03*
X150020000Y-49404365D03*
X152560000Y-49404365D03*
X155100000Y-49404365D03*
X157640000Y-49404365D03*
X160180000Y-49404365D03*
X162720000Y-49404365D03*
X165260000Y-49404365D03*
X167800000Y-49404365D03*
X170340000Y-49404365D03*
X147480000Y-46864365D03*
X150020000Y-46864365D03*
X152560000Y-46864365D03*
X155100000Y-46864365D03*
X157640000Y-46864365D03*
X160180000Y-46864365D03*
X162720000Y-46864365D03*
X165260000Y-46864365D03*
X167800000Y-46864365D03*
X170340000Y-46864365D03*
X147480000Y-44324365D03*
X150020000Y-44324365D03*
X152560000Y-44324365D03*
X155100000Y-44324365D03*
X157640000Y-44324365D03*
X160180000Y-44324365D03*
X162720000Y-44324365D03*
X165260000Y-44324365D03*
X167800000Y-44324365D03*
X170340000Y-44324365D03*
X147480000Y-41784365D03*
X150020000Y-41784365D03*
X152560000Y-41784365D03*
X155100000Y-41784365D03*
X157640000Y-41784365D03*
X160180000Y-41784365D03*
X162720000Y-41784365D03*
X165260000Y-41784365D03*
X167800000Y-41784365D03*
X170340000Y-41784365D03*
X122080000Y-64644365D03*
X124620000Y-64644365D03*
X127160000Y-64644365D03*
X129700000Y-64644365D03*
X132240000Y-64644365D03*
X134780000Y-64644365D03*
X137320000Y-64644365D03*
X139860000Y-64644365D03*
X142400000Y-64644365D03*
X144940000Y-64644365D03*
X122080000Y-62104365D03*
X124620000Y-62104365D03*
X127160000Y-62104365D03*
X129700000Y-62104365D03*
X132240000Y-62104365D03*
X134780000Y-62104365D03*
X137320000Y-62104365D03*
X139860000Y-62104365D03*
X142400000Y-62104365D03*
X144940000Y-62104365D03*
X122080000Y-59564365D03*
X124620000Y-59564365D03*
X127160000Y-59564365D03*
X129700000Y-59564365D03*
X132240000Y-59564365D03*
X134780000Y-59564365D03*
X137320000Y-59564365D03*
X139860000Y-59564365D03*
X142400000Y-59564365D03*
X144940000Y-59564365D03*
X122080000Y-57024365D03*
X124620000Y-57024365D03*
X127160000Y-57024365D03*
X129700000Y-57024365D03*
X132240000Y-57024365D03*
X134780000Y-57024365D03*
X137320000Y-57024365D03*
X139860000Y-57024365D03*
X142400000Y-57024365D03*
X144940000Y-57024365D03*
X122080000Y-54484365D03*
X124620000Y-54484365D03*
X127160000Y-54484365D03*
X129700000Y-54484365D03*
X132240000Y-54484365D03*
X134780000Y-54484365D03*
X137320000Y-54484365D03*
X139860000Y-54484365D03*
X142400000Y-54484365D03*
X144940000Y-54484365D03*
X122080000Y-51944365D03*
X124620000Y-51944365D03*
X127160000Y-51944365D03*
X129700000Y-51944365D03*
X132240000Y-51944365D03*
X134780000Y-51944365D03*
X137320000Y-51944365D03*
X139860000Y-51944365D03*
X142400000Y-51944365D03*
X144940000Y-51944365D03*
X122080000Y-49404365D03*
X124620000Y-49404365D03*
X127160000Y-49404365D03*
X129700000Y-49404365D03*
X132240000Y-49404365D03*
X134780000Y-49404365D03*
X137320000Y-49404365D03*
X139860000Y-49404365D03*
X142400000Y-49404365D03*
X144940000Y-49404365D03*
X122080000Y-46864365D03*
X124620000Y-46864365D03*
X127160000Y-46864365D03*
X129700000Y-46864365D03*
X132240000Y-46864365D03*
X134780000Y-46864365D03*
X137320000Y-46864365D03*
X139860000Y-46864365D03*
X142400000Y-46864365D03*
X144940000Y-46864365D03*
X122080000Y-44324365D03*
X124620000Y-44324365D03*
X127160000Y-44324365D03*
X129700000Y-44324365D03*
X132240000Y-44324365D03*
X134780000Y-44324365D03*
X137320000Y-44324365D03*
X139860000Y-44324365D03*
X142400000Y-44324365D03*
X144940000Y-44324365D03*
X122080000Y-41784365D03*
X124620000Y-41784365D03*
X127160000Y-41784365D03*
X129700000Y-41784365D03*
X132240000Y-41784365D03*
X134780000Y-41784365D03*
X137320000Y-41784365D03*
X139860000Y-41784365D03*
X142400000Y-41784365D03*
X144940000Y-41784365D03*
X223680000Y-90044365D03*
X226220000Y-90044365D03*
X228760000Y-90044365D03*
X231300000Y-90044365D03*
X233840000Y-90044365D03*
X236380000Y-90044365D03*
X238920000Y-90044365D03*
X241460000Y-90044365D03*
X244000000Y-90044365D03*
X246540000Y-90044365D03*
X223680000Y-87504365D03*
X226220000Y-87504365D03*
X228760000Y-87504365D03*
X231300000Y-87504365D03*
X233840000Y-87504365D03*
X236380000Y-87504365D03*
X238920000Y-87504365D03*
X241460000Y-87504365D03*
X244000000Y-87504365D03*
X246540000Y-87504365D03*
X223680000Y-84964365D03*
X226220000Y-84964365D03*
X228760000Y-84964365D03*
X231300000Y-84964365D03*
X233840000Y-84964365D03*
X236380000Y-84964365D03*
X238920000Y-84964365D03*
X241460000Y-84964365D03*
X244000000Y-84964365D03*
X246540000Y-84964365D03*
X223680000Y-82424365D03*
X226220000Y-82424365D03*
X228760000Y-82424365D03*
X231300000Y-82424365D03*
X233840000Y-82424365D03*
X236380000Y-82424365D03*
X238920000Y-82424365D03*
X241460000Y-82424365D03*
X244000000Y-82424365D03*
X246540000Y-82424365D03*
X223680000Y-79884365D03*
X226220000Y-79884365D03*
X228760000Y-79884365D03*
X231300000Y-79884365D03*
X233840000Y-79884365D03*
X236380000Y-79884365D03*
X238920000Y-79884365D03*
X241460000Y-79884365D03*
X244000000Y-79884365D03*
X246540000Y-79884365D03*
X223680000Y-77344365D03*
X226220000Y-77344365D03*
X228760000Y-77344365D03*
X231300000Y-77344365D03*
X233840000Y-77344365D03*
X236380000Y-77344365D03*
X238920000Y-77344365D03*
X241460000Y-77344365D03*
X244000000Y-77344365D03*
X246540000Y-77344365D03*
X223680000Y-74804365D03*
X226220000Y-74804365D03*
X228760000Y-74804365D03*
X231300000Y-74804365D03*
X233840000Y-74804365D03*
X236380000Y-74804365D03*
X238920000Y-74804365D03*
X241460000Y-74804365D03*
X244000000Y-74804365D03*
X246540000Y-74804365D03*
X223680000Y-72264365D03*
X226220000Y-72264365D03*
X228760000Y-72264365D03*
X231300000Y-72264365D03*
X233840000Y-72264365D03*
X236380000Y-72264365D03*
X238920000Y-72264365D03*
X241460000Y-72264365D03*
X244000000Y-72264365D03*
X246540000Y-72264365D03*
X223680000Y-69724365D03*
X226220000Y-69724365D03*
X228760000Y-69724365D03*
X231300000Y-69724365D03*
X233840000Y-69724365D03*
X236380000Y-69724365D03*
X238920000Y-69724365D03*
X241460000Y-69724365D03*
X244000000Y-69724365D03*
X246540000Y-69724365D03*
X223680000Y-67184365D03*
X226220000Y-67184365D03*
X228760000Y-67184365D03*
X231300000Y-67184365D03*
X233840000Y-67184365D03*
X236380000Y-67184365D03*
X238920000Y-67184365D03*
X241460000Y-67184365D03*
X244000000Y-67184365D03*
X246540000Y-67184365D03*
X198280000Y-115444365D03*
X200820000Y-115444365D03*
X203360000Y-115444365D03*
X205900000Y-115444365D03*
X208440000Y-115444365D03*
X210980000Y-115444365D03*
X213520000Y-115444365D03*
X216060000Y-115444365D03*
X218600000Y-115444365D03*
X221140000Y-115444365D03*
X198280000Y-112904365D03*
X200820000Y-112904365D03*
X203360000Y-112904365D03*
X205900000Y-112904365D03*
X208440000Y-112904365D03*
X210980000Y-112904365D03*
X213520000Y-112904365D03*
X216060000Y-112904365D03*
X218600000Y-112904365D03*
X221140000Y-112904365D03*
X198280000Y-110364365D03*
X200820000Y-110364365D03*
X203360000Y-110364365D03*
X205900000Y-110364365D03*
X208440000Y-110364365D03*
X210980000Y-110364365D03*
X213520000Y-110364365D03*
X216060000Y-110364365D03*
X218600000Y-110364365D03*
X221140000Y-110364365D03*
X198280000Y-107824365D03*
X200820000Y-107824365D03*
X203360000Y-107824365D03*
X205900000Y-107824365D03*
X208440000Y-107824365D03*
X210980000Y-107824365D03*
X213520000Y-107824365D03*
X216060000Y-107824365D03*
X218600000Y-107824365D03*
X221140000Y-107824365D03*
X198280000Y-105284365D03*
X200820000Y-105284365D03*
X203360000Y-105284365D03*
X205900000Y-105284365D03*
X208440000Y-105284365D03*
X210980000Y-105284365D03*
X213520000Y-105284365D03*
X216060000Y-105284365D03*
X218600000Y-105284365D03*
X221140000Y-105284365D03*
X198280000Y-102744365D03*
X200820000Y-102744365D03*
X203360000Y-102744365D03*
X205900000Y-102744365D03*
X208440000Y-102744365D03*
X210980000Y-102744365D03*
X213520000Y-102744365D03*
X216060000Y-102744365D03*
X218600000Y-102744365D03*
X221140000Y-102744365D03*
X198280000Y-100204365D03*
X200820000Y-100204365D03*
X203360000Y-100204365D03*
X205900000Y-100204365D03*
X208440000Y-100204365D03*
X210980000Y-100204365D03*
X213520000Y-100204365D03*
X216060000Y-100204365D03*
X218600000Y-100204365D03*
X221140000Y-100204365D03*
X198280000Y-97664365D03*
X200820000Y-97664365D03*
X203360000Y-97664365D03*
X205900000Y-97664365D03*
X208440000Y-97664365D03*
X210980000Y-97664365D03*
X213520000Y-97664365D03*
X216060000Y-97664365D03*
X218600000Y-97664365D03*
X221140000Y-97664365D03*
X198280000Y-95124365D03*
X200820000Y-95124365D03*
X203360000Y-95124365D03*
X205900000Y-95124365D03*
X208440000Y-95124365D03*
X210980000Y-95124365D03*
X213520000Y-95124365D03*
X216060000Y-95124365D03*
X218600000Y-95124365D03*
X221140000Y-95124365D03*
X198280000Y-92584365D03*
X200820000Y-92584365D03*
X203360000Y-92584365D03*
X205900000Y-92584365D03*
X208440000Y-92584365D03*
X210980000Y-92584365D03*
X213520000Y-92584365D03*
X216060000Y-92584365D03*
X218600000Y-92584365D03*
X221140000Y-92584365D03*
X96680000Y-115444365D03*
X99220000Y-115444365D03*
X101760000Y-115444365D03*
X104300000Y-115444365D03*
X106840000Y-115444365D03*
X109380000Y-115444365D03*
X111920000Y-115444365D03*
X114460000Y-115444365D03*
X117000000Y-115444365D03*
X119540000Y-115444365D03*
X96680000Y-112904365D03*
X99220000Y-112904365D03*
X101760000Y-112904365D03*
X104300000Y-112904365D03*
X106840000Y-112904365D03*
X109380000Y-112904365D03*
X111920000Y-112904365D03*
X114460000Y-112904365D03*
X117000000Y-112904365D03*
X119540000Y-112904365D03*
X96680000Y-110364365D03*
X99220000Y-110364365D03*
X101760000Y-110364365D03*
X104300000Y-110364365D03*
X106840000Y-110364365D03*
X109380000Y-110364365D03*
X111920000Y-110364365D03*
X114460000Y-110364365D03*
X117000000Y-110364365D03*
X119540000Y-110364365D03*
X96680000Y-107824365D03*
X99220000Y-107824365D03*
X101760000Y-107824365D03*
X104300000Y-107824365D03*
X106840000Y-107824365D03*
X109380000Y-107824365D03*
X111920000Y-107824365D03*
X114460000Y-107824365D03*
X117000000Y-107824365D03*
X119540000Y-107824365D03*
X96680000Y-105284365D03*
X99220000Y-105284365D03*
X101760000Y-105284365D03*
X104300000Y-105284365D03*
X106840000Y-105284365D03*
X109380000Y-105284365D03*
X111920000Y-105284365D03*
X114460000Y-105284365D03*
X117000000Y-105284365D03*
X119540000Y-105284365D03*
X96680000Y-102744365D03*
X99220000Y-102744365D03*
X101760000Y-102744365D03*
X104300000Y-102744365D03*
X106840000Y-102744365D03*
X109380000Y-102744365D03*
X111920000Y-102744365D03*
X114460000Y-102744365D03*
X117000000Y-102744365D03*
X119540000Y-102744365D03*
X96680000Y-100204365D03*
X99220000Y-100204365D03*
X101760000Y-100204365D03*
X104300000Y-100204365D03*
X106840000Y-100204365D03*
X109380000Y-100204365D03*
X111920000Y-100204365D03*
X114460000Y-100204365D03*
X117000000Y-100204365D03*
X119540000Y-100204365D03*
X96680000Y-97664365D03*
X99220000Y-97664365D03*
X101760000Y-97664365D03*
X104300000Y-97664365D03*
X106840000Y-97664365D03*
X109380000Y-97664365D03*
X111920000Y-97664365D03*
X114460000Y-97664365D03*
X117000000Y-97664365D03*
X119540000Y-97664365D03*
X96680000Y-95124365D03*
X99220000Y-95124365D03*
X101760000Y-95124365D03*
X104300000Y-95124365D03*
X106840000Y-95124365D03*
X109380000Y-95124365D03*
X111920000Y-95124365D03*
X114460000Y-95124365D03*
X117000000Y-95124365D03*
X119540000Y-95124365D03*
X96680000Y-92584365D03*
X99220000Y-92584365D03*
X101760000Y-92584365D03*
X104300000Y-92584365D03*
X106840000Y-92584365D03*
X109380000Y-92584365D03*
X111920000Y-92584365D03*
X114460000Y-92584365D03*
X117000000Y-92584365D03*
X119540000Y-92584365D03*
M02*
