%TF.GenerationSoftware,KiCad,Pcbnew,9.0.2*%
%TF.CreationDate,2025-06-03T09:59:19-04:00*%
%TF.ProjectId,PCI_Proto,5043495f-5072-46f7-946f-2e6b69636164,rev?*%
%TF.SameCoordinates,Original*%
%TF.FileFunction,Profile,NP*%
%FSLAX46Y46*%
G04 Gerber Fmt 4.6, Leading zero omitted, Abs format (unit mm)*
G04 Created by KiCad (PCBNEW 9.0.2) date 2025-06-03 09:59:19*
%MOMM*%
%LPD*%
G01*
G04 APERTURE LIST*
%TA.AperFunction,Profile*%
%ADD10C,0.050000*%
%TD*%
%ADD11C,0.350000*%
G04 APERTURE END LIST*
D10*
X84000000Y-146144365D02*
X84000000Y-139250000D01*
X84000000Y-139250000D02*
X85000000Y-138250000D01*
X190250000Y-138150000D02*
X248600000Y-138150000D01*
X174435000Y-138535000D02*
X173265000Y-138535000D01*
X189300000Y-139100000D02*
X190250000Y-138150000D01*
X172900000Y-145444365D02*
X172100000Y-146700000D01*
X188600000Y-146700000D02*
X175600000Y-146700000D01*
X69250000Y-146144365D02*
X69250000Y-39750000D01*
X69250000Y-39750000D02*
X248600000Y-39750000D01*
X110100000Y-145444365D02*
X110100000Y-138800000D01*
X174800000Y-145444365D02*
X175600000Y-146700000D01*
X174800000Y-138900000D02*
X174435000Y-138535000D01*
X174800000Y-145444365D02*
X174800000Y-138900000D01*
X78355635Y-56244365D02*
G75*
G02*
X75244365Y-56244365I-1555635J0D01*
G01*
X75244365Y-56244365D02*
G75*
G02*
X78355635Y-56244365I1555635J0D01*
G01*
X85000000Y-138250000D02*
X109500000Y-138250000D01*
X172900000Y-138900000D02*
X172900000Y-145444365D01*
X110100000Y-145444365D02*
X110850000Y-146700000D01*
X78355635Y-141744365D02*
G75*
G02*
X75244365Y-141744365I-1555635J0D01*
G01*
X75244365Y-141744365D02*
G75*
G02*
X78355635Y-141744365I1555635J0D01*
G01*
X109500000Y-138250000D02*
X110100000Y-138800000D01*
X189300000Y-145444365D02*
X188600000Y-146700000D01*
X69250000Y-146144365D02*
X84000000Y-146144365D01*
X172900000Y-138900000D02*
X173265000Y-138535000D01*
X248600000Y-39750000D02*
X248600000Y-138150000D01*
X189300000Y-145444365D02*
X189300000Y-139100000D01*
X172100000Y-146700000D02*
X110850000Y-146700000D01*
D11*
X198280000Y-64644365D03*
X200820000Y-64644365D03*
X203360000Y-64644365D03*
X205900000Y-64644365D03*
X208440000Y-64644365D03*
X210980000Y-64644365D03*
X213520000Y-64644365D03*
X216060000Y-64644365D03*
X218600000Y-64644365D03*
X221140000Y-64644365D03*
X198280000Y-62104365D03*
X200820000Y-62104365D03*
X203360000Y-62104365D03*
X205900000Y-62104365D03*
X208440000Y-62104365D03*
X210980000Y-62104365D03*
X213520000Y-62104365D03*
X216060000Y-62104365D03*
X218600000Y-62104365D03*
X221140000Y-62104365D03*
X198280000Y-59564365D03*
X200820000Y-59564365D03*
X203360000Y-59564365D03*
X205900000Y-59564365D03*
X208440000Y-59564365D03*
X210980000Y-59564365D03*
X213520000Y-59564365D03*
X216060000Y-59564365D03*
X218600000Y-59564365D03*
X221140000Y-59564365D03*
X198280000Y-57024365D03*
X200820000Y-57024365D03*
X203360000Y-57024365D03*
X205900000Y-57024365D03*
X208440000Y-57024365D03*
X210980000Y-57024365D03*
X213520000Y-57024365D03*
X216060000Y-57024365D03*
X218600000Y-57024365D03*
X221140000Y-57024365D03*
X198280000Y-54484365D03*
X200820000Y-54484365D03*
X203360000Y-54484365D03*
X205900000Y-54484365D03*
X208440000Y-54484365D03*
X210980000Y-54484365D03*
X213520000Y-54484365D03*
X216060000Y-54484365D03*
X218600000Y-54484365D03*
X221140000Y-54484365D03*
X198280000Y-51944365D03*
X200820000Y-51944365D03*
X203360000Y-51944365D03*
X205900000Y-51944365D03*
X208440000Y-51944365D03*
X210980000Y-51944365D03*
X213520000Y-51944365D03*
X216060000Y-51944365D03*
X218600000Y-51944365D03*
X221140000Y-51944365D03*
X198280000Y-49404365D03*
X200820000Y-49404365D03*
X203360000Y-49404365D03*
X205900000Y-49404365D03*
X208440000Y-49404365D03*
X210980000Y-49404365D03*
X213520000Y-49404365D03*
X216060000Y-49404365D03*
X218600000Y-49404365D03*
X221140000Y-49404365D03*
X198280000Y-46864365D03*
X200820000Y-46864365D03*
X203360000Y-46864365D03*
X205900000Y-46864365D03*
X208440000Y-46864365D03*
X210980000Y-46864365D03*
X213520000Y-46864365D03*
X216060000Y-46864365D03*
X218600000Y-46864365D03*
X221140000Y-46864365D03*
X198280000Y-44324365D03*
X200820000Y-44324365D03*
X203360000Y-44324365D03*
X205900000Y-44324365D03*
X208440000Y-44324365D03*
X210980000Y-44324365D03*
X213520000Y-44324365D03*
X216060000Y-44324365D03*
X218600000Y-44324365D03*
X221140000Y-44324365D03*
X198280000Y-41784365D03*
X200820000Y-41784365D03*
X203360000Y-41784365D03*
X205900000Y-41784365D03*
X208440000Y-41784365D03*
X210980000Y-41784365D03*
X213520000Y-41784365D03*
X216060000Y-41784365D03*
X218600000Y-41784365D03*
X221140000Y-41784365D03*
X81440000Y-120524365D03*
X83980000Y-120524365D03*
X86520000Y-120524365D03*
X89060000Y-120524365D03*
X91600000Y-120524365D03*
X94140000Y-120524365D03*
X96680000Y-120524365D03*
X99220000Y-120524365D03*
X101760000Y-120524365D03*
X104300000Y-120524365D03*
X106840000Y-120524365D03*
X109380000Y-120524365D03*
X111920000Y-120524365D03*
X114460000Y-120524365D03*
X117000000Y-120524365D03*
X119540000Y-120524365D03*
X122080000Y-120524365D03*
X124620000Y-120524365D03*
X127160000Y-120524365D03*
X129700000Y-120524365D03*
X132240000Y-120524365D03*
X134780000Y-120524365D03*
X137320000Y-120524365D03*
X139860000Y-120524365D03*
X142400000Y-120524365D03*
X144940000Y-120524365D03*
X147480000Y-120524365D03*
X150020000Y-120524365D03*
X152560000Y-120524365D03*
X155100000Y-120524365D03*
X157640000Y-120524365D03*
X160180000Y-120524365D03*
X162720000Y-120524365D03*
X165260000Y-120524365D03*
X167800000Y-120524365D03*
X170340000Y-120524365D03*
X172880000Y-120524365D03*
X175420000Y-120524365D03*
X177960000Y-120524365D03*
X180500000Y-120524365D03*
X183040000Y-120524365D03*
X185580000Y-120524365D03*
X188120000Y-120524365D03*
X190660000Y-120524365D03*
X193200000Y-120524365D03*
X195740000Y-120524365D03*
X198280000Y-120524365D03*
X200820000Y-120524365D03*
X203360000Y-120524365D03*
X205900000Y-120524365D03*
X208440000Y-120524365D03*
X210980000Y-120524365D03*
X213520000Y-120524365D03*
X216060000Y-120524365D03*
X218600000Y-120524365D03*
X221140000Y-120524365D03*
X223680000Y-120524365D03*
X226220000Y-120524365D03*
X228760000Y-120524365D03*
X231300000Y-120524365D03*
X233840000Y-120524365D03*
X236380000Y-120524365D03*
X81440000Y-123064365D03*
X83980000Y-123064365D03*
X86520000Y-123064365D03*
X89060000Y-123064365D03*
X91600000Y-123064365D03*
X94140000Y-123064365D03*
X96680000Y-123064365D03*
X99220000Y-123064365D03*
X101760000Y-123064365D03*
X104300000Y-123064365D03*
X106840000Y-123064365D03*
X109380000Y-123064365D03*
X111920000Y-123064365D03*
X114460000Y-123064365D03*
X117000000Y-123064365D03*
X119540000Y-123064365D03*
X122080000Y-123064365D03*
X124620000Y-123064365D03*
X127160000Y-123064365D03*
X129700000Y-123064365D03*
X132240000Y-123064365D03*
X134780000Y-123064365D03*
X137320000Y-123064365D03*
X139860000Y-123064365D03*
X142400000Y-123064365D03*
X144940000Y-123064365D03*
X147480000Y-123064365D03*
X150020000Y-123064365D03*
X152560000Y-123064365D03*
X155100000Y-123064365D03*
X157640000Y-123064365D03*
X160180000Y-123064365D03*
X162720000Y-123064365D03*
X165260000Y-123064365D03*
X167800000Y-123064365D03*
X170340000Y-123064365D03*
X172880000Y-123064365D03*
X175420000Y-123064365D03*
X177960000Y-123064365D03*
X180500000Y-123064365D03*
X183040000Y-123064365D03*
X185580000Y-123064365D03*
X188120000Y-123064365D03*
X190660000Y-123064365D03*
X193200000Y-123064365D03*
X195740000Y-123064365D03*
X198280000Y-123064365D03*
X200820000Y-123064365D03*
X203360000Y-123064365D03*
X205900000Y-123064365D03*
X208440000Y-123064365D03*
X210980000Y-123064365D03*
X213520000Y-123064365D03*
X216060000Y-123064365D03*
X218600000Y-123064365D03*
X221140000Y-123064365D03*
X223680000Y-123064365D03*
X226220000Y-123064365D03*
X228760000Y-123064365D03*
X231300000Y-123064365D03*
X233840000Y-123064365D03*
X236380000Y-123064365D03*
X223680000Y-64644365D03*
X226220000Y-64644365D03*
X228760000Y-64644365D03*
X231300000Y-64644365D03*
X233840000Y-64644365D03*
X236380000Y-64644365D03*
X238920000Y-64644365D03*
X241460000Y-64644365D03*
X244000000Y-64644365D03*
X246540000Y-64644365D03*
X223680000Y-62104365D03*
X226220000Y-62104365D03*
X228760000Y-62104365D03*
X231300000Y-62104365D03*
X233840000Y-62104365D03*
X236380000Y-62104365D03*
X238920000Y-62104365D03*
X241460000Y-62104365D03*
X244000000Y-62104365D03*
X246540000Y-62104365D03*
X223680000Y-59564365D03*
X226220000Y-59564365D03*
X228760000Y-59564365D03*
X231300000Y-59564365D03*
X233840000Y-59564365D03*
X236380000Y-59564365D03*
X238920000Y-59564365D03*
X241460000Y-59564365D03*
X244000000Y-59564365D03*
X246540000Y-59564365D03*
X223680000Y-57024365D03*
X226220000Y-57024365D03*
X228760000Y-57024365D03*
X231300000Y-57024365D03*
X233840000Y-57024365D03*
X236380000Y-57024365D03*
X238920000Y-57024365D03*
X241460000Y-57024365D03*
X244000000Y-57024365D03*
X246540000Y-57024365D03*
X223680000Y-54484365D03*
X226220000Y-54484365D03*
X228760000Y-54484365D03*
X231300000Y-54484365D03*
X233840000Y-54484365D03*
X236380000Y-54484365D03*
X238920000Y-54484365D03*
X241460000Y-54484365D03*
X244000000Y-54484365D03*
X246540000Y-54484365D03*
X223680000Y-51944365D03*
X226220000Y-51944365D03*
X228760000Y-51944365D03*
X231300000Y-51944365D03*
X233840000Y-51944365D03*
X236380000Y-51944365D03*
X238920000Y-51944365D03*
X241460000Y-51944365D03*
X244000000Y-51944365D03*
X246540000Y-51944365D03*
X223680000Y-49404365D03*
X226220000Y-49404365D03*
X228760000Y-49404365D03*
X231300000Y-49404365D03*
X233840000Y-49404365D03*
X236380000Y-49404365D03*
X238920000Y-49404365D03*
X241460000Y-49404365D03*
X244000000Y-49404365D03*
X246540000Y-49404365D03*
X223680000Y-46864365D03*
X226220000Y-46864365D03*
X228760000Y-46864365D03*
X231300000Y-46864365D03*
X233840000Y-46864365D03*
X236380000Y-46864365D03*
X238920000Y-46864365D03*
X241460000Y-46864365D03*
X244000000Y-46864365D03*
X246540000Y-46864365D03*
X223680000Y-44324365D03*
X226220000Y-44324365D03*
X228760000Y-44324365D03*
X231300000Y-44324365D03*
X233840000Y-44324365D03*
X236380000Y-44324365D03*
X238920000Y-44324365D03*
X241460000Y-44324365D03*
X244000000Y-44324365D03*
X246540000Y-44324365D03*
X223680000Y-41784365D03*
X226220000Y-41784365D03*
X228760000Y-41784365D03*
X231300000Y-41784365D03*
X233840000Y-41784365D03*
X236380000Y-41784365D03*
X238920000Y-41784365D03*
X241460000Y-41784365D03*
X244000000Y-41784365D03*
X246540000Y-41784365D03*
X172880000Y-115444365D03*
X175420000Y-115444365D03*
X177960000Y-115444365D03*
X180500000Y-115444365D03*
X183040000Y-115444365D03*
X185580000Y-115444365D03*
X188120000Y-115444365D03*
X190660000Y-115444365D03*
X193200000Y-115444365D03*
X195740000Y-115444365D03*
X172880000Y-112904365D03*
X175420000Y-112904365D03*
X177960000Y-112904365D03*
X180500000Y-112904365D03*
X183040000Y-112904365D03*
X185580000Y-112904365D03*
X188120000Y-112904365D03*
X190660000Y-112904365D03*
X193200000Y-112904365D03*
X195740000Y-112904365D03*
X172880000Y-110364365D03*
X175420000Y-110364365D03*
X177960000Y-110364365D03*
X180500000Y-110364365D03*
X183040000Y-110364365D03*
X185580000Y-110364365D03*
X188120000Y-110364365D03*
X190660000Y-110364365D03*
X193200000Y-110364365D03*
X195740000Y-110364365D03*
X172880000Y-107824365D03*
X175420000Y-107824365D03*
X177960000Y-107824365D03*
X180500000Y-107824365D03*
X183040000Y-107824365D03*
X185580000Y-107824365D03*
X188120000Y-107824365D03*
X190660000Y-107824365D03*
X193200000Y-107824365D03*
X195740000Y-107824365D03*
X172880000Y-105284365D03*
X175420000Y-105284365D03*
X177960000Y-105284365D03*
X180500000Y-105284365D03*
X183040000Y-105284365D03*
X185580000Y-105284365D03*
X188120000Y-105284365D03*
X190660000Y-105284365D03*
X193200000Y-105284365D03*
X195740000Y-105284365D03*
X172880000Y-102744365D03*
X175420000Y-102744365D03*
X177960000Y-102744365D03*
X180500000Y-102744365D03*
X183040000Y-102744365D03*
X185580000Y-102744365D03*
X188120000Y-102744365D03*
X190660000Y-102744365D03*
X193200000Y-102744365D03*
X195740000Y-102744365D03*
X172880000Y-100204365D03*
X175420000Y-100204365D03*
X177960000Y-100204365D03*
X180500000Y-100204365D03*
X183040000Y-100204365D03*
X185580000Y-100204365D03*
X188120000Y-100204365D03*
X190660000Y-100204365D03*
X193200000Y-100204365D03*
X195740000Y-100204365D03*
X172880000Y-97664365D03*
X175420000Y-97664365D03*
X177960000Y-97664365D03*
X180500000Y-97664365D03*
X183040000Y-97664365D03*
X185580000Y-97664365D03*
X188120000Y-97664365D03*
X190660000Y-97664365D03*
X193200000Y-97664365D03*
X195740000Y-97664365D03*
X172880000Y-95124365D03*
X175420000Y-95124365D03*
X177960000Y-95124365D03*
X180500000Y-95124365D03*
X183040000Y-95124365D03*
X185580000Y-95124365D03*
X188120000Y-95124365D03*
X190660000Y-95124365D03*
X193200000Y-95124365D03*
X195740000Y-95124365D03*
X172880000Y-92584365D03*
X175420000Y-92584365D03*
X177960000Y-92584365D03*
X180500000Y-92584365D03*
X183040000Y-92584365D03*
X185580000Y-92584365D03*
X188120000Y-92584365D03*
X190660000Y-92584365D03*
X193200000Y-92584365D03*
X195740000Y-92584365D03*
X122080000Y-115444365D03*
X124620000Y-115444365D03*
X127160000Y-115444365D03*
X129700000Y-115444365D03*
X132240000Y-115444365D03*
X134780000Y-115444365D03*
X137320000Y-115444365D03*
X139860000Y-115444365D03*
X142400000Y-115444365D03*
X144940000Y-115444365D03*
X122080000Y-112904365D03*
X124620000Y-112904365D03*
X127160000Y-112904365D03*
X129700000Y-112904365D03*
X132240000Y-112904365D03*
X134780000Y-112904365D03*
X137320000Y-112904365D03*
X139860000Y-112904365D03*
X142400000Y-112904365D03*
X144940000Y-112904365D03*
X122080000Y-110364365D03*
X124620000Y-110364365D03*
X127160000Y-110364365D03*
X129700000Y-110364365D03*
X132240000Y-110364365D03*
X134780000Y-110364365D03*
X137320000Y-110364365D03*
X139860000Y-110364365D03*
X142400000Y-110364365D03*
X144940000Y-110364365D03*
X122080000Y-107824365D03*
X124620000Y-107824365D03*
X127160000Y-107824365D03*
X129700000Y-107824365D03*
X132240000Y-107824365D03*
X134780000Y-107824365D03*
X137320000Y-107824365D03*
X139860000Y-107824365D03*
X142400000Y-107824365D03*
X144940000Y-107824365D03*
X122080000Y-105284365D03*
X124620000Y-105284365D03*
X127160000Y-105284365D03*
X129700000Y-105284365D03*
X132240000Y-105284365D03*
X134780000Y-105284365D03*
X137320000Y-105284365D03*
X139860000Y-105284365D03*
X142400000Y-105284365D03*
X144940000Y-105284365D03*
X122080000Y-102744365D03*
X124620000Y-102744365D03*
X127160000Y-102744365D03*
X129700000Y-102744365D03*
X132240000Y-102744365D03*
X134780000Y-102744365D03*
X137320000Y-102744365D03*
X139860000Y-102744365D03*
X142400000Y-102744365D03*
X144940000Y-102744365D03*
X122080000Y-100204365D03*
X124620000Y-100204365D03*
X127160000Y-100204365D03*
X129700000Y-100204365D03*
X132240000Y-100204365D03*
X134780000Y-100204365D03*
X137320000Y-100204365D03*
X139860000Y-100204365D03*
X142400000Y-100204365D03*
X144940000Y-100204365D03*
X122080000Y-97664365D03*
X124620000Y-97664365D03*
X127160000Y-97664365D03*
X129700000Y-97664365D03*
X132240000Y-97664365D03*
X134780000Y-97664365D03*
X137320000Y-97664365D03*
X139860000Y-97664365D03*
X142400000Y-97664365D03*
X144940000Y-97664365D03*
X122080000Y-95124365D03*
X124620000Y-95124365D03*
X127160000Y-95124365D03*
X129700000Y-95124365D03*
X132240000Y-95124365D03*
X134780000Y-95124365D03*
X137320000Y-95124365D03*
X139860000Y-95124365D03*
X142400000Y-95124365D03*
X144940000Y-95124365D03*
X122080000Y-92584365D03*
X124620000Y-92584365D03*
X127160000Y-92584365D03*
X129700000Y-92584365D03*
X132240000Y-92584365D03*
X134780000Y-92584365D03*
X137320000Y-92584365D03*
X139860000Y-92584365D03*
X142400000Y-92584365D03*
X144940000Y-92584365D03*
X96680000Y-64644365D03*
X99220000Y-64644365D03*
X101760000Y-64644365D03*
X104300000Y-64644365D03*
X106840000Y-64644365D03*
X109380000Y-64644365D03*
X111920000Y-64644365D03*
X114460000Y-64644365D03*
X117000000Y-64644365D03*
X119540000Y-64644365D03*
X96680000Y-62104365D03*
X99220000Y-62104365D03*
X101760000Y-62104365D03*
X104300000Y-62104365D03*
X106840000Y-62104365D03*
X109380000Y-62104365D03*
X111920000Y-62104365D03*
X114460000Y-62104365D03*
X117000000Y-62104365D03*
X119540000Y-62104365D03*
X96680000Y-59564365D03*
X99220000Y-59564365D03*
X101760000Y-59564365D03*
X104300000Y-59564365D03*
X106840000Y-59564365D03*
X109380000Y-59564365D03*
X111920000Y-59564365D03*
X114460000Y-59564365D03*
X117000000Y-59564365D03*
X119540000Y-59564365D03*
X96680000Y-57024365D03*
X99220000Y-57024365D03*
X101760000Y-57024365D03*
X104300000Y-57024365D03*
X106840000Y-57024365D03*
X109380000Y-57024365D03*
X111920000Y-57024365D03*
X114460000Y-57024365D03*
X117000000Y-57024365D03*
X119540000Y-57024365D03*
X96680000Y-54484365D03*
X99220000Y-54484365D03*
X101760000Y-54484365D03*
X104300000Y-54484365D03*
X106840000Y-54484365D03*
X109380000Y-54484365D03*
X111920000Y-54484365D03*
X114460000Y-54484365D03*
X117000000Y-54484365D03*
X119540000Y-54484365D03*
X96680000Y-51944365D03*
X99220000Y-51944365D03*
X101760000Y-51944365D03*
X104300000Y-51944365D03*
X106840000Y-51944365D03*
X109380000Y-51944365D03*
X111920000Y-51944365D03*
X114460000Y-51944365D03*
X117000000Y-51944365D03*
X119540000Y-51944365D03*
X96680000Y-49404365D03*
X99220000Y-49404365D03*
X101760000Y-49404365D03*
X104300000Y-49404365D03*
X106840000Y-49404365D03*
X109380000Y-49404365D03*
X111920000Y-49404365D03*
X114460000Y-49404365D03*
X117000000Y-49404365D03*
X119540000Y-49404365D03*
X96680000Y-46864365D03*
X99220000Y-46864365D03*
X101760000Y-46864365D03*
X104300000Y-46864365D03*
X106840000Y-46864365D03*
X109380000Y-46864365D03*
X111920000Y-46864365D03*
X114460000Y-46864365D03*
X117000000Y-46864365D03*
X119540000Y-46864365D03*
X96680000Y-44324365D03*
X99220000Y-44324365D03*
X101760000Y-44324365D03*
X104300000Y-44324365D03*
X106840000Y-44324365D03*
X109380000Y-44324365D03*
X111920000Y-44324365D03*
X114460000Y-44324365D03*
X117000000Y-44324365D03*
X119540000Y-44324365D03*
X96680000Y-41784365D03*
X99220000Y-41784365D03*
X101760000Y-41784365D03*
X104300000Y-41784365D03*
X106840000Y-41784365D03*
X109380000Y-41784365D03*
X111920000Y-41784365D03*
X114460000Y-41784365D03*
X117000000Y-41784365D03*
X119540000Y-41784365D03*
X147480000Y-115444365D03*
X150020000Y-115444365D03*
X152560000Y-115444365D03*
X155100000Y-115444365D03*
X157640000Y-115444365D03*
X160180000Y-115444365D03*
X162720000Y-115444365D03*
X165260000Y-115444365D03*
X167800000Y-115444365D03*
X170340000Y-115444365D03*
X147480000Y-112904365D03*
X150020000Y-112904365D03*
X152560000Y-112904365D03*
X155100000Y-112904365D03*
X157640000Y-112904365D03*
X160180000Y-112904365D03*
X162720000Y-112904365D03*
X165260000Y-112904365D03*
X167800000Y-112904365D03*
X170340000Y-112904365D03*
X147480000Y-110364365D03*
X150020000Y-110364365D03*
X152560000Y-110364365D03*
X155100000Y-110364365D03*
X157640000Y-110364365D03*
X160180000Y-110364365D03*
X162720000Y-110364365D03*
X165260000Y-110364365D03*
X167800000Y-110364365D03*
X170340000Y-110364365D03*
X147480000Y-107824365D03*
X150020000Y-107824365D03*
X152560000Y-107824365D03*
X155100000Y-107824365D03*
X157640000Y-107824365D03*
X160180000Y-107824365D03*
X162720000Y-107824365D03*
X165260000Y-107824365D03*
X167800000Y-107824365D03*
X170340000Y-107824365D03*
X147480000Y-105284365D03*
X150020000Y-105284365D03*
X152560000Y-105284365D03*
X155100000Y-105284365D03*
X157640000Y-105284365D03*
X160180000Y-105284365D03*
X162720000Y-105284365D03*
X165260000Y-105284365D03*
X167800000Y-105284365D03*
X170340000Y-105284365D03*
X147480000Y-102744365D03*
X150020000Y-102744365D03*
X152560000Y-102744365D03*
X155100000Y-102744365D03*
X157640000Y-102744365D03*
X160180000Y-102744365D03*
X162720000Y-102744365D03*
X165260000Y-102744365D03*
X167800000Y-102744365D03*
X170340000Y-102744365D03*
X147480000Y-100204365D03*
X150020000Y-100204365D03*
X152560000Y-100204365D03*
X155100000Y-100204365D03*
X157640000Y-100204365D03*
X160180000Y-100204365D03*
X162720000Y-100204365D03*
X165260000Y-100204365D03*
X167800000Y-100204365D03*
X170340000Y-100204365D03*
X147480000Y-97664365D03*
X150020000Y-97664365D03*
X152560000Y-97664365D03*
X155100000Y-97664365D03*
X157640000Y-97664365D03*
X160180000Y-97664365D03*
X162720000Y-97664365D03*
X165260000Y-97664365D03*
X167800000Y-97664365D03*
X170340000Y-97664365D03*
X147480000Y-95124365D03*
X150020000Y-95124365D03*
X152560000Y-95124365D03*
X155100000Y-95124365D03*
X157640000Y-95124365D03*
X160180000Y-95124365D03*
X162720000Y-95124365D03*
X165260000Y-95124365D03*
X167800000Y-95124365D03*
X170340000Y-95124365D03*
X147480000Y-92584365D03*
X150020000Y-92584365D03*
X152560000Y-92584365D03*
X155100000Y-92584365D03*
X157640000Y-92584365D03*
X160180000Y-92584365D03*
X162720000Y-92584365D03*
X165260000Y-92584365D03*
X167800000Y-92584365D03*
X170340000Y-92584365D03*
X223680000Y-115444365D03*
X226220000Y-115444365D03*
X228760000Y-115444365D03*
X231300000Y-115444365D03*
X233840000Y-115444365D03*
X236380000Y-115444365D03*
X238920000Y-115444365D03*
X241460000Y-115444365D03*
X244000000Y-115444365D03*
X246540000Y-115444365D03*
X223680000Y-112904365D03*
X226220000Y-112904365D03*
X228760000Y-112904365D03*
X231300000Y-112904365D03*
X233840000Y-112904365D03*
X236380000Y-112904365D03*
X238920000Y-112904365D03*
X241460000Y-112904365D03*
X244000000Y-112904365D03*
X246540000Y-112904365D03*
X223680000Y-110364365D03*
X226220000Y-110364365D03*
X228760000Y-110364365D03*
X231300000Y-110364365D03*
X233840000Y-110364365D03*
X236380000Y-110364365D03*
X238920000Y-110364365D03*
X241460000Y-110364365D03*
X244000000Y-110364365D03*
X246540000Y-110364365D03*
X223680000Y-107824365D03*
X226220000Y-107824365D03*
X228760000Y-107824365D03*
X231300000Y-107824365D03*
X233840000Y-107824365D03*
X236380000Y-107824365D03*
X238920000Y-107824365D03*
X241460000Y-107824365D03*
X244000000Y-107824365D03*
X246540000Y-107824365D03*
X223680000Y-105284365D03*
X226220000Y-105284365D03*
X228760000Y-105284365D03*
X231300000Y-105284365D03*
X233840000Y-105284365D03*
X236380000Y-105284365D03*
X238920000Y-105284365D03*
X241460000Y-105284365D03*
X244000000Y-105284365D03*
X246540000Y-105284365D03*
X223680000Y-102744365D03*
X226220000Y-102744365D03*
X228760000Y-102744365D03*
X231300000Y-102744365D03*
X233840000Y-102744365D03*
X236380000Y-102744365D03*
X238920000Y-102744365D03*
X241460000Y-102744365D03*
X244000000Y-102744365D03*
X246540000Y-102744365D03*
X223680000Y-100204365D03*
X226220000Y-100204365D03*
X228760000Y-100204365D03*
X231300000Y-100204365D03*
X233840000Y-100204365D03*
X236380000Y-100204365D03*
X238920000Y-100204365D03*
X241460000Y-100204365D03*
X244000000Y-100204365D03*
X246540000Y-100204365D03*
X223680000Y-97664365D03*
X226220000Y-97664365D03*
X228760000Y-97664365D03*
X231300000Y-97664365D03*
X233840000Y-97664365D03*
X236380000Y-97664365D03*
X238920000Y-97664365D03*
X241460000Y-97664365D03*
X244000000Y-97664365D03*
X246540000Y-97664365D03*
X223680000Y-95124365D03*
X226220000Y-95124365D03*
X228760000Y-95124365D03*
X231300000Y-95124365D03*
X233840000Y-95124365D03*
X236380000Y-95124365D03*
X238920000Y-95124365D03*
X241460000Y-95124365D03*
X244000000Y-95124365D03*
X246540000Y-95124365D03*
X223680000Y-92584365D03*
X226220000Y-92584365D03*
X228760000Y-92584365D03*
X231300000Y-92584365D03*
X233840000Y-92584365D03*
X236380000Y-92584365D03*
X238920000Y-92584365D03*
X241460000Y-92584365D03*
X244000000Y-92584365D03*
X246540000Y-92584365D03*
X147480000Y-90044365D03*
X150020000Y-90044365D03*
X152560000Y-90044365D03*
X155100000Y-90044365D03*
X157640000Y-90044365D03*
X160180000Y-90044365D03*
X162720000Y-90044365D03*
X165260000Y-90044365D03*
X167800000Y-90044365D03*
X170340000Y-90044365D03*
X147480000Y-87504365D03*
X150020000Y-87504365D03*
X152560000Y-87504365D03*
X155100000Y-87504365D03*
X157640000Y-87504365D03*
X160180000Y-87504365D03*
X162720000Y-87504365D03*
X165260000Y-87504365D03*
X167800000Y-87504365D03*
X170340000Y-87504365D03*
X147480000Y-84964365D03*
X150020000Y-84964365D03*
X152560000Y-84964365D03*
X155100000Y-84964365D03*
X157640000Y-84964365D03*
X160180000Y-84964365D03*
X162720000Y-84964365D03*
X165260000Y-84964365D03*
X167800000Y-84964365D03*
X170340000Y-84964365D03*
X147480000Y-82424365D03*
X150020000Y-82424365D03*
X152560000Y-82424365D03*
X155100000Y-82424365D03*
X157640000Y-82424365D03*
X160180000Y-82424365D03*
X162720000Y-82424365D03*
X165260000Y-82424365D03*
X167800000Y-82424365D03*
X170340000Y-82424365D03*
X147480000Y-79884365D03*
X150020000Y-79884365D03*
X152560000Y-79884365D03*
X155100000Y-79884365D03*
X157640000Y-79884365D03*
X160180000Y-79884365D03*
X162720000Y-79884365D03*
X165260000Y-79884365D03*
X167800000Y-79884365D03*
X170340000Y-79884365D03*
X147480000Y-77344365D03*
X150020000Y-77344365D03*
X152560000Y-77344365D03*
X155100000Y-77344365D03*
X157640000Y-77344365D03*
X160180000Y-77344365D03*
X162720000Y-77344365D03*
X165260000Y-77344365D03*
X167800000Y-77344365D03*
X170340000Y-77344365D03*
X147480000Y-74804365D03*
X150020000Y-74804365D03*
X152560000Y-74804365D03*
X155100000Y-74804365D03*
X157640000Y-74804365D03*
X160180000Y-74804365D03*
X162720000Y-74804365D03*
X165260000Y-74804365D03*
X167800000Y-74804365D03*
X170340000Y-74804365D03*
X147480000Y-72264365D03*
X150020000Y-72264365D03*
X152560000Y-72264365D03*
X155100000Y-72264365D03*
X157640000Y-72264365D03*
X160180000Y-72264365D03*
X162720000Y-72264365D03*
X165260000Y-72264365D03*
X167800000Y-72264365D03*
X170340000Y-72264365D03*
X147480000Y-69724365D03*
X150020000Y-69724365D03*
X152560000Y-69724365D03*
X155100000Y-69724365D03*
X157640000Y-69724365D03*
X160180000Y-69724365D03*
X162720000Y-69724365D03*
X165260000Y-69724365D03*
X167800000Y-69724365D03*
X170340000Y-69724365D03*
X147480000Y-67184365D03*
X150020000Y-67184365D03*
X152560000Y-67184365D03*
X155100000Y-67184365D03*
X157640000Y-67184365D03*
X160180000Y-67184365D03*
X162720000Y-67184365D03*
X165260000Y-67184365D03*
X167800000Y-67184365D03*
X170340000Y-67184365D03*
X172880000Y-90044365D03*
X175420000Y-90044365D03*
X177960000Y-90044365D03*
X180500000Y-90044365D03*
X183040000Y-90044365D03*
X185580000Y-90044365D03*
X188120000Y-90044365D03*
X190660000Y-90044365D03*
X193200000Y-90044365D03*
X195740000Y-90044365D03*
X172880000Y-87504365D03*
X175420000Y-87504365D03*
X177960000Y-87504365D03*
X180500000Y-87504365D03*
X183040000Y-87504365D03*
X185580000Y-87504365D03*
X188120000Y-87504365D03*
X190660000Y-87504365D03*
X193200000Y-87504365D03*
X195740000Y-87504365D03*
X172880000Y-84964365D03*
X175420000Y-84964365D03*
X177960000Y-84964365D03*
X180500000Y-84964365D03*
X183040000Y-84964365D03*
X185580000Y-84964365D03*
X188120000Y-84964365D03*
X190660000Y-84964365D03*
X193200000Y-84964365D03*
X195740000Y-84964365D03*
X172880000Y-82424365D03*
X175420000Y-82424365D03*
X177960000Y-82424365D03*
X180500000Y-82424365D03*
X183040000Y-82424365D03*
X185580000Y-82424365D03*
X188120000Y-82424365D03*
X190660000Y-82424365D03*
X193200000Y-82424365D03*
X195740000Y-82424365D03*
X172880000Y-79884365D03*
X175420000Y-79884365D03*
X177960000Y-79884365D03*
X180500000Y-79884365D03*
X183040000Y-79884365D03*
X185580000Y-79884365D03*
X188120000Y-79884365D03*
X190660000Y-79884365D03*
X193200000Y-79884365D03*
X195740000Y-79884365D03*
X172880000Y-77344365D03*
X175420000Y-77344365D03*
X177960000Y-77344365D03*
X180500000Y-77344365D03*
X183040000Y-77344365D03*
X185580000Y-77344365D03*
X188120000Y-77344365D03*
X190660000Y-77344365D03*
X193200000Y-77344365D03*
X195740000Y-77344365D03*
X172880000Y-74804365D03*
X175420000Y-74804365D03*
X177960000Y-74804365D03*
X180500000Y-74804365D03*
X183040000Y-74804365D03*
X185580000Y-74804365D03*
X188120000Y-74804365D03*
X190660000Y-74804365D03*
X193200000Y-74804365D03*
X195740000Y-74804365D03*
X172880000Y-72264365D03*
X175420000Y-72264365D03*
X177960000Y-72264365D03*
X180500000Y-72264365D03*
X183040000Y-72264365D03*
X185580000Y-72264365D03*
X188120000Y-72264365D03*
X190660000Y-72264365D03*
X193200000Y-72264365D03*
X195740000Y-72264365D03*
X172880000Y-69724365D03*
X175420000Y-69724365D03*
X177960000Y-69724365D03*
X180500000Y-69724365D03*
X183040000Y-69724365D03*
X185580000Y-69724365D03*
X188120000Y-69724365D03*
X190660000Y-69724365D03*
X193200000Y-69724365D03*
X195740000Y-69724365D03*
X172880000Y-67184365D03*
X175420000Y-67184365D03*
X177960000Y-67184365D03*
X180500000Y-67184365D03*
X183040000Y-67184365D03*
X185580000Y-67184365D03*
X188120000Y-67184365D03*
X190660000Y-67184365D03*
X193200000Y-67184365D03*
X195740000Y-67184365D03*
X172880000Y-64644365D03*
X175420000Y-64644365D03*
X177960000Y-64644365D03*
X180500000Y-64644365D03*
X183040000Y-64644365D03*
X185580000Y-64644365D03*
X188120000Y-64644365D03*
X190660000Y-64644365D03*
X193200000Y-64644365D03*
X195740000Y-64644365D03*
X172880000Y-62104365D03*
X175420000Y-62104365D03*
X177960000Y-62104365D03*
X180500000Y-62104365D03*
X183040000Y-62104365D03*
X185580000Y-62104365D03*
X188120000Y-62104365D03*
X190660000Y-62104365D03*
X193200000Y-62104365D03*
X195740000Y-62104365D03*
X172880000Y-59564365D03*
X175420000Y-59564365D03*
X177960000Y-59564365D03*
X180500000Y-59564365D03*
X183040000Y-59564365D03*
X185580000Y-59564365D03*
X188120000Y-59564365D03*
X190660000Y-59564365D03*
X193200000Y-59564365D03*
X195740000Y-59564365D03*
X172880000Y-57024365D03*
X175420000Y-57024365D03*
X177960000Y-57024365D03*
X180500000Y-57024365D03*
X183040000Y-57024365D03*
X185580000Y-57024365D03*
X188120000Y-57024365D03*
X190660000Y-57024365D03*
X193200000Y-57024365D03*
X195740000Y-57024365D03*
X172880000Y-54484365D03*
X175420000Y-54484365D03*
X177960000Y-54484365D03*
X180500000Y-54484365D03*
X183040000Y-54484365D03*
X185580000Y-54484365D03*
X188120000Y-54484365D03*
X190660000Y-54484365D03*
X193200000Y-54484365D03*
X195740000Y-54484365D03*
X172880000Y-51944365D03*
X175420000Y-51944365D03*
X177960000Y-51944365D03*
X180500000Y-51944365D03*
X183040000Y-51944365D03*
X185580000Y-51944365D03*
X188120000Y-51944365D03*
X190660000Y-51944365D03*
X193200000Y-51944365D03*
X195740000Y-51944365D03*
X172880000Y-49404365D03*
X175420000Y-49404365D03*
X177960000Y-49404365D03*
X180500000Y-49404365D03*
X183040000Y-49404365D03*
X185580000Y-49404365D03*
X188120000Y-49404365D03*
X190660000Y-49404365D03*
X193200000Y-49404365D03*
X195740000Y-49404365D03*
X172880000Y-46864365D03*
X175420000Y-46864365D03*
X177960000Y-46864365D03*
X180500000Y-46864365D03*
X183040000Y-46864365D03*
X185580000Y-46864365D03*
X188120000Y-46864365D03*
X190660000Y-46864365D03*
X193200000Y-46864365D03*
X195740000Y-46864365D03*
X172880000Y-44324365D03*
X175420000Y-44324365D03*
X177960000Y-44324365D03*
X180500000Y-44324365D03*
X183040000Y-44324365D03*
X185580000Y-44324365D03*
X188120000Y-44324365D03*
X190660000Y-44324365D03*
X193200000Y-44324365D03*
X195740000Y-44324365D03*
X172880000Y-41784365D03*
X175420000Y-41784365D03*
X177960000Y-41784365D03*
X180500000Y-41784365D03*
X183040000Y-41784365D03*
X185580000Y-41784365D03*
X188120000Y-41784365D03*
X190660000Y-41784365D03*
X193200000Y-41784365D03*
X195740000Y-41784365D03*
X122080000Y-90044365D03*
X124620000Y-90044365D03*
X127160000Y-90044365D03*
X129700000Y-90044365D03*
X132240000Y-90044365D03*
X134780000Y-90044365D03*
X137320000Y-90044365D03*
X139860000Y-90044365D03*
X142400000Y-90044365D03*
X144940000Y-90044365D03*
X122080000Y-87504365D03*
X124620000Y-87504365D03*
X127160000Y-87504365D03*
X129700000Y-87504365D03*
X132240000Y-87504365D03*
X134780000Y-87504365D03*
X137320000Y-87504365D03*
X139860000Y-87504365D03*
X142400000Y-87504365D03*
X144940000Y-87504365D03*
X122080000Y-84964365D03*
X124620000Y-84964365D03*
X127160000Y-84964365D03*
X129700000Y-84964365D03*
X132240000Y-84964365D03*
X134780000Y-84964365D03*
X137320000Y-84964365D03*
X139860000Y-84964365D03*
X142400000Y-84964365D03*
X144940000Y-84964365D03*
X122080000Y-82424365D03*
X124620000Y-82424365D03*
X127160000Y-82424365D03*
X129700000Y-82424365D03*
X132240000Y-82424365D03*
X134780000Y-82424365D03*
X137320000Y-82424365D03*
X139860000Y-82424365D03*
X142400000Y-82424365D03*
X144940000Y-82424365D03*
X122080000Y-79884365D03*
X124620000Y-79884365D03*
X127160000Y-79884365D03*
X129700000Y-79884365D03*
X132240000Y-79884365D03*
X134780000Y-79884365D03*
X137320000Y-79884365D03*
X139860000Y-79884365D03*
X142400000Y-79884365D03*
X144940000Y-79884365D03*
X122080000Y-77344365D03*
X124620000Y-77344365D03*
X127160000Y-77344365D03*
X129700000Y-77344365D03*
X132240000Y-77344365D03*
X134780000Y-77344365D03*
X137320000Y-77344365D03*
X139860000Y-77344365D03*
X142400000Y-77344365D03*
X144940000Y-77344365D03*
X122080000Y-74804365D03*
X124620000Y-74804365D03*
X127160000Y-74804365D03*
X129700000Y-74804365D03*
X132240000Y-74804365D03*
X134780000Y-74804365D03*
X137320000Y-74804365D03*
X139860000Y-74804365D03*
X142400000Y-74804365D03*
X144940000Y-74804365D03*
X122080000Y-72264365D03*
X124620000Y-72264365D03*
X127160000Y-72264365D03*
X129700000Y-72264365D03*
X132240000Y-72264365D03*
X134780000Y-72264365D03*
X137320000Y-72264365D03*
X139860000Y-72264365D03*
X142400000Y-72264365D03*
X144940000Y-72264365D03*
X122080000Y-69724365D03*
X124620000Y-69724365D03*
X127160000Y-69724365D03*
X129700000Y-69724365D03*
X132240000Y-69724365D03*
X134780000Y-69724365D03*
X137320000Y-69724365D03*
X139860000Y-69724365D03*
X142400000Y-69724365D03*
X144940000Y-69724365D03*
X122080000Y-67184365D03*
X124620000Y-67184365D03*
X127160000Y-67184365D03*
X129700000Y-67184365D03*
X132240000Y-67184365D03*
X134780000Y-67184365D03*
X137320000Y-67184365D03*
X139860000Y-67184365D03*
X142400000Y-67184365D03*
X144940000Y-67184365D03*
X96680000Y-90044365D03*
X99220000Y-90044365D03*
X101760000Y-90044365D03*
X104300000Y-90044365D03*
X106840000Y-90044365D03*
X109380000Y-90044365D03*
X111920000Y-90044365D03*
X114460000Y-90044365D03*
X117000000Y-90044365D03*
X119540000Y-90044365D03*
X96680000Y-87504365D03*
X99220000Y-87504365D03*
X101760000Y-87504365D03*
X104300000Y-87504365D03*
X106840000Y-87504365D03*
X109380000Y-87504365D03*
X111920000Y-87504365D03*
X114460000Y-87504365D03*
X117000000Y-87504365D03*
X119540000Y-87504365D03*
X96680000Y-84964365D03*
X99220000Y-84964365D03*
X101760000Y-84964365D03*
X104300000Y-84964365D03*
X106840000Y-84964365D03*
X109380000Y-84964365D03*
X111920000Y-84964365D03*
X114460000Y-84964365D03*
X117000000Y-84964365D03*
X119540000Y-84964365D03*
X96680000Y-82424365D03*
X99220000Y-82424365D03*
X101760000Y-82424365D03*
X104300000Y-82424365D03*
X106840000Y-82424365D03*
X109380000Y-82424365D03*
X111920000Y-82424365D03*
X114460000Y-82424365D03*
X117000000Y-82424365D03*
X119540000Y-82424365D03*
X96680000Y-79884365D03*
X99220000Y-79884365D03*
X101760000Y-79884365D03*
X104300000Y-79884365D03*
X106840000Y-79884365D03*
X109380000Y-79884365D03*
X111920000Y-79884365D03*
X114460000Y-79884365D03*
X117000000Y-79884365D03*
X119540000Y-79884365D03*
X96680000Y-77344365D03*
X99220000Y-77344365D03*
X101760000Y-77344365D03*
X104300000Y-77344365D03*
X106840000Y-77344365D03*
X109380000Y-77344365D03*
X111920000Y-77344365D03*
X114460000Y-77344365D03*
X117000000Y-77344365D03*
X119540000Y-77344365D03*
X96680000Y-74804365D03*
X99220000Y-74804365D03*
X101760000Y-74804365D03*
X104300000Y-74804365D03*
X106840000Y-74804365D03*
X109380000Y-74804365D03*
X111920000Y-74804365D03*
X114460000Y-74804365D03*
X117000000Y-74804365D03*
X119540000Y-74804365D03*
X96680000Y-72264365D03*
X99220000Y-72264365D03*
X101760000Y-72264365D03*
X104300000Y-72264365D03*
X106840000Y-72264365D03*
X109380000Y-72264365D03*
X111920000Y-72264365D03*
X114460000Y-72264365D03*
X117000000Y-72264365D03*
X119540000Y-72264365D03*
X96680000Y-69724365D03*
X99220000Y-69724365D03*
X101760000Y-69724365D03*
X104300000Y-69724365D03*
X106840000Y-69724365D03*
X109380000Y-69724365D03*
X111920000Y-69724365D03*
X114460000Y-69724365D03*
X117000000Y-69724365D03*
X119540000Y-69724365D03*
X96680000Y-67184365D03*
X99220000Y-67184365D03*
X101760000Y-67184365D03*
X104300000Y-67184365D03*
X106840000Y-67184365D03*
X109380000Y-67184365D03*
X111920000Y-67184365D03*
X114460000Y-67184365D03*
X117000000Y-67184365D03*
X119540000Y-67184365D03*
X198280000Y-90044365D03*
X200820000Y-90044365D03*
X203360000Y-90044365D03*
X205900000Y-90044365D03*
X208440000Y-90044365D03*
X210980000Y-90044365D03*
X213520000Y-90044365D03*
X216060000Y-90044365D03*
X218600000Y-90044365D03*
X221140000Y-90044365D03*
X198280000Y-87504365D03*
X200820000Y-87504365D03*
X203360000Y-87504365D03*
X205900000Y-87504365D03*
X208440000Y-87504365D03*
X210980000Y-87504365D03*
X213520000Y-87504365D03*
X216060000Y-87504365D03*
X218600000Y-87504365D03*
X221140000Y-87504365D03*
X198280000Y-84964365D03*
X200820000Y-84964365D03*
X203360000Y-84964365D03*
X205900000Y-84964365D03*
X208440000Y-84964365D03*
X210980000Y-84964365D03*
X213520000Y-84964365D03*
X216060000Y-84964365D03*
X218600000Y-84964365D03*
X221140000Y-84964365D03*
X198280000Y-82424365D03*
X200820000Y-82424365D03*
X203360000Y-82424365D03*
X205900000Y-82424365D03*
X208440000Y-82424365D03*
X210980000Y-82424365D03*
X213520000Y-82424365D03*
X216060000Y-82424365D03*
X218600000Y-82424365D03*
X221140000Y-82424365D03*
X198280000Y-79884365D03*
X200820000Y-79884365D03*
X203360000Y-79884365D03*
X205900000Y-79884365D03*
X208440000Y-79884365D03*
X210980000Y-79884365D03*
X213520000Y-79884365D03*
X216060000Y-79884365D03*
X218600000Y-79884365D03*
X221140000Y-79884365D03*
X198280000Y-77344365D03*
X200820000Y-77344365D03*
X203360000Y-77344365D03*
X205900000Y-77344365D03*
X208440000Y-77344365D03*
X210980000Y-77344365D03*
X213520000Y-77344365D03*
X216060000Y-77344365D03*
X218600000Y-77344365D03*
X221140000Y-77344365D03*
X198280000Y-74804365D03*
X200820000Y-74804365D03*
X203360000Y-74804365D03*
X205900000Y-74804365D03*
X208440000Y-74804365D03*
X210980000Y-74804365D03*
X213520000Y-74804365D03*
X216060000Y-74804365D03*
X218600000Y-74804365D03*
X221140000Y-74804365D03*
X198280000Y-72264365D03*
X200820000Y-72264365D03*
X203360000Y-72264365D03*
X205900000Y-72264365D03*
X208440000Y-72264365D03*
X210980000Y-72264365D03*
X213520000Y-72264365D03*
X216060000Y-72264365D03*
X218600000Y-72264365D03*
X221140000Y-72264365D03*
X198280000Y-69724365D03*
X200820000Y-69724365D03*
X203360000Y-69724365D03*
X205900000Y-69724365D03*
X208440000Y-69724365D03*
X210980000Y-69724365D03*
X213520000Y-69724365D03*
X216060000Y-69724365D03*
X218600000Y-69724365D03*
X221140000Y-69724365D03*
X198280000Y-67184365D03*
X200820000Y-67184365D03*
X203360000Y-67184365D03*
X205900000Y-67184365D03*
X208440000Y-67184365D03*
X210980000Y-67184365D03*
X213520000Y-67184365D03*
X216060000Y-67184365D03*
X218600000Y-67184365D03*
X221140000Y-67184365D03*
X147480000Y-64644365D03*
X150020000Y-64644365D03*
X152560000Y-64644365D03*
X155100000Y-64644365D03*
X157640000Y-64644365D03*
X160180000Y-64644365D03*
X162720000Y-64644365D03*
X165260000Y-64644365D03*
X167800000Y-64644365D03*
X170340000Y-64644365D03*
X147480000Y-62104365D03*
X150020000Y-62104365D03*
X152560000Y-62104365D03*
X155100000Y-62104365D03*
X157640000Y-62104365D03*
X160180000Y-62104365D03*
X162720000Y-62104365D03*
X165260000Y-62104365D03*
X167800000Y-62104365D03*
X170340000Y-62104365D03*
X147480000Y-59564365D03*
X150020000Y-59564365D03*
X152560000Y-59564365D03*
X155100000Y-59564365D03*
X157640000Y-59564365D03*
X160180000Y-59564365D03*
X162720000Y-59564365D03*
X165260000Y-59564365D03*
X167800000Y-59564365D03*
X170340000Y-59564365D03*
X147480000Y-57024365D03*
X150020000Y-57024365D03*
X152560000Y-57024365D03*
X155100000Y-57024365D03*
X157640000Y-57024365D03*
X160180000Y-57024365D03*
X162720000Y-57024365D03*
X165260000Y-57024365D03*
X167800000Y-57024365D03*
X170340000Y-57024365D03*
X147480000Y-54484365D03*
X150020000Y-54484365D03*
X152560000Y-54484365D03*
X155100000Y-54484365D03*
X157640000Y-54484365D03*
X160180000Y-54484365D03*
X162720000Y-54484365D03*
X165260000Y-54484365D03*
X167800000Y-54484365D03*
X170340000Y-54484365D03*
X147480000Y-51944365D03*
X150020000Y-51944365D03*
X152560000Y-51944365D03*
X155100000Y-51944365D03*
X157640000Y-51944365D03*
X160180000Y-51944365D03*
X162720000Y-51944365D03*
X165260000Y-51944365D03*
X167800000Y-51944365D03*
X170340000Y-51944365D03*
X147480000Y-49404365D03*
X150020000Y-49404365D03*
X152560000Y-49404365D03*
X155100000Y-49404365D03*
X157640000Y-49404365D03*
X160180000Y-49404365D03*
X162720000Y-49404365D03*
X165260000Y-49404365D03*
X167800000Y-49404365D03*
X170340000Y-49404365D03*
X147480000Y-46864365D03*
X150020000Y-46864365D03*
X152560000Y-46864365D03*
X155100000Y-46864365D03*
X157640000Y-46864365D03*
X160180000Y-46864365D03*
X162720000Y-46864365D03*
X165260000Y-46864365D03*
X167800000Y-46864365D03*
X170340000Y-46864365D03*
X147480000Y-44324365D03*
X150020000Y-44324365D03*
X152560000Y-44324365D03*
X155100000Y-44324365D03*
X157640000Y-44324365D03*
X160180000Y-44324365D03*
X162720000Y-44324365D03*
X165260000Y-44324365D03*
X167800000Y-44324365D03*
X170340000Y-44324365D03*
X147480000Y-41784365D03*
X150020000Y-41784365D03*
X152560000Y-41784365D03*
X155100000Y-41784365D03*
X157640000Y-41784365D03*
X160180000Y-41784365D03*
X162720000Y-41784365D03*
X165260000Y-41784365D03*
X167800000Y-41784365D03*
X170340000Y-41784365D03*
X122080000Y-64644365D03*
X124620000Y-64644365D03*
X127160000Y-64644365D03*
X129700000Y-64644365D03*
X132240000Y-64644365D03*
X134780000Y-64644365D03*
X137320000Y-64644365D03*
X139860000Y-64644365D03*
X142400000Y-64644365D03*
X144940000Y-64644365D03*
X122080000Y-62104365D03*
X124620000Y-62104365D03*
X127160000Y-62104365D03*
X129700000Y-62104365D03*
X132240000Y-62104365D03*
X134780000Y-62104365D03*
X137320000Y-62104365D03*
X139860000Y-62104365D03*
X142400000Y-62104365D03*
X144940000Y-62104365D03*
X122080000Y-59564365D03*
X124620000Y-59564365D03*
X127160000Y-59564365D03*
X129700000Y-59564365D03*
X132240000Y-59564365D03*
X134780000Y-59564365D03*
X137320000Y-59564365D03*
X139860000Y-59564365D03*
X142400000Y-59564365D03*
X144940000Y-59564365D03*
X122080000Y-57024365D03*
X124620000Y-57024365D03*
X127160000Y-57024365D03*
X129700000Y-57024365D03*
X132240000Y-57024365D03*
X134780000Y-57024365D03*
X137320000Y-57024365D03*
X139860000Y-57024365D03*
X142400000Y-57024365D03*
X144940000Y-57024365D03*
X122080000Y-54484365D03*
X124620000Y-54484365D03*
X127160000Y-54484365D03*
X129700000Y-54484365D03*
X132240000Y-54484365D03*
X134780000Y-54484365D03*
X137320000Y-54484365D03*
X139860000Y-54484365D03*
X142400000Y-54484365D03*
X144940000Y-54484365D03*
X122080000Y-51944365D03*
X124620000Y-51944365D03*
X127160000Y-51944365D03*
X129700000Y-51944365D03*
X132240000Y-51944365D03*
X134780000Y-51944365D03*
X137320000Y-51944365D03*
X139860000Y-51944365D03*
X142400000Y-51944365D03*
X144940000Y-51944365D03*
X122080000Y-49404365D03*
X124620000Y-49404365D03*
X127160000Y-49404365D03*
X129700000Y-49404365D03*
X132240000Y-49404365D03*
X134780000Y-49404365D03*
X137320000Y-49404365D03*
X139860000Y-49404365D03*
X142400000Y-49404365D03*
X144940000Y-49404365D03*
X122080000Y-46864365D03*
X124620000Y-46864365D03*
X127160000Y-46864365D03*
X129700000Y-46864365D03*
X132240000Y-46864365D03*
X134780000Y-46864365D03*
X137320000Y-46864365D03*
X139860000Y-46864365D03*
X142400000Y-46864365D03*
X144940000Y-46864365D03*
X122080000Y-44324365D03*
X124620000Y-44324365D03*
X127160000Y-44324365D03*
X129700000Y-44324365D03*
X132240000Y-44324365D03*
X134780000Y-44324365D03*
X137320000Y-44324365D03*
X139860000Y-44324365D03*
X142400000Y-44324365D03*
X144940000Y-44324365D03*
X122080000Y-41784365D03*
X124620000Y-41784365D03*
X127160000Y-41784365D03*
X129700000Y-41784365D03*
X132240000Y-41784365D03*
X134780000Y-41784365D03*
X137320000Y-41784365D03*
X139860000Y-41784365D03*
X142400000Y-41784365D03*
X144940000Y-41784365D03*
X223680000Y-90044365D03*
X226220000Y-90044365D03*
X228760000Y-90044365D03*
X231300000Y-90044365D03*
X233840000Y-90044365D03*
X236380000Y-90044365D03*
X238920000Y-90044365D03*
X241460000Y-90044365D03*
X244000000Y-90044365D03*
X246540000Y-90044365D03*
X223680000Y-87504365D03*
X226220000Y-87504365D03*
X228760000Y-87504365D03*
X231300000Y-87504365D03*
X233840000Y-87504365D03*
X236380000Y-87504365D03*
X238920000Y-87504365D03*
X241460000Y-87504365D03*
X244000000Y-87504365D03*
X246540000Y-87504365D03*
X223680000Y-84964365D03*
X226220000Y-84964365D03*
X228760000Y-84964365D03*
X231300000Y-84964365D03*
X233840000Y-84964365D03*
X236380000Y-84964365D03*
X238920000Y-84964365D03*
X241460000Y-84964365D03*
X244000000Y-84964365D03*
X246540000Y-84964365D03*
X223680000Y-82424365D03*
X226220000Y-82424365D03*
X228760000Y-82424365D03*
X231300000Y-82424365D03*
X233840000Y-82424365D03*
X236380000Y-82424365D03*
X238920000Y-82424365D03*
X241460000Y-82424365D03*
X244000000Y-82424365D03*
X246540000Y-82424365D03*
X223680000Y-79884365D03*
X226220000Y-79884365D03*
X228760000Y-79884365D03*
X231300000Y-79884365D03*
X233840000Y-79884365D03*
X236380000Y-79884365D03*
X238920000Y-79884365D03*
X241460000Y-79884365D03*
X244000000Y-79884365D03*
X246540000Y-79884365D03*
X223680000Y-77344365D03*
X226220000Y-77344365D03*
X228760000Y-77344365D03*
X231300000Y-77344365D03*
X233840000Y-77344365D03*
X236380000Y-77344365D03*
X238920000Y-77344365D03*
X241460000Y-77344365D03*
X244000000Y-77344365D03*
X246540000Y-77344365D03*
X223680000Y-74804365D03*
X226220000Y-74804365D03*
X228760000Y-74804365D03*
X231300000Y-74804365D03*
X233840000Y-74804365D03*
X236380000Y-74804365D03*
X238920000Y-74804365D03*
X241460000Y-74804365D03*
X244000000Y-74804365D03*
X246540000Y-74804365D03*
X223680000Y-72264365D03*
X226220000Y-72264365D03*
X228760000Y-72264365D03*
X231300000Y-72264365D03*
X233840000Y-72264365D03*
X236380000Y-72264365D03*
X238920000Y-72264365D03*
X241460000Y-72264365D03*
X244000000Y-72264365D03*
X246540000Y-72264365D03*
X223680000Y-69724365D03*
X226220000Y-69724365D03*
X228760000Y-69724365D03*
X231300000Y-69724365D03*
X233840000Y-69724365D03*
X236380000Y-69724365D03*
X238920000Y-69724365D03*
X241460000Y-69724365D03*
X244000000Y-69724365D03*
X246540000Y-69724365D03*
X223680000Y-67184365D03*
X226220000Y-67184365D03*
X228760000Y-67184365D03*
X231300000Y-67184365D03*
X233840000Y-67184365D03*
X236380000Y-67184365D03*
X238920000Y-67184365D03*
X241460000Y-67184365D03*
X244000000Y-67184365D03*
X246540000Y-67184365D03*
X198280000Y-115444365D03*
X200820000Y-115444365D03*
X203360000Y-115444365D03*
X205900000Y-115444365D03*
X208440000Y-115444365D03*
X210980000Y-115444365D03*
X213520000Y-115444365D03*
X216060000Y-115444365D03*
X218600000Y-115444365D03*
X221140000Y-115444365D03*
X198280000Y-112904365D03*
X200820000Y-112904365D03*
X203360000Y-112904365D03*
X205900000Y-112904365D03*
X208440000Y-112904365D03*
X210980000Y-112904365D03*
X213520000Y-112904365D03*
X216060000Y-112904365D03*
X218600000Y-112904365D03*
X221140000Y-112904365D03*
X198280000Y-110364365D03*
X200820000Y-110364365D03*
X203360000Y-110364365D03*
X205900000Y-110364365D03*
X208440000Y-110364365D03*
X210980000Y-110364365D03*
X213520000Y-110364365D03*
X216060000Y-110364365D03*
X218600000Y-110364365D03*
X221140000Y-110364365D03*
X198280000Y-107824365D03*
X200820000Y-107824365D03*
X203360000Y-107824365D03*
X205900000Y-107824365D03*
X208440000Y-107824365D03*
X210980000Y-107824365D03*
X213520000Y-107824365D03*
X216060000Y-107824365D03*
X218600000Y-107824365D03*
X221140000Y-107824365D03*
X198280000Y-105284365D03*
X200820000Y-105284365D03*
X203360000Y-105284365D03*
X205900000Y-105284365D03*
X208440000Y-105284365D03*
X210980000Y-105284365D03*
X213520000Y-105284365D03*
X216060000Y-105284365D03*
X218600000Y-105284365D03*
X221140000Y-105284365D03*
X198280000Y-102744365D03*
X200820000Y-102744365D03*
X203360000Y-102744365D03*
X205900000Y-102744365D03*
X208440000Y-102744365D03*
X210980000Y-102744365D03*
X213520000Y-102744365D03*
X216060000Y-102744365D03*
X218600000Y-102744365D03*
X221140000Y-102744365D03*
X198280000Y-100204365D03*
X200820000Y-100204365D03*
X203360000Y-100204365D03*
X205900000Y-100204365D03*
X208440000Y-100204365D03*
X210980000Y-100204365D03*
X213520000Y-100204365D03*
X216060000Y-100204365D03*
X218600000Y-100204365D03*
X221140000Y-100204365D03*
X198280000Y-97664365D03*
X200820000Y-97664365D03*
X203360000Y-97664365D03*
X205900000Y-97664365D03*
X208440000Y-97664365D03*
X210980000Y-97664365D03*
X213520000Y-97664365D03*
X216060000Y-97664365D03*
X218600000Y-97664365D03*
X221140000Y-97664365D03*
X198280000Y-95124365D03*
X200820000Y-95124365D03*
X203360000Y-95124365D03*
X205900000Y-95124365D03*
X208440000Y-95124365D03*
X210980000Y-95124365D03*
X213520000Y-95124365D03*
X216060000Y-95124365D03*
X218600000Y-95124365D03*
X221140000Y-95124365D03*
X198280000Y-92584365D03*
X200820000Y-92584365D03*
X203360000Y-92584365D03*
X205900000Y-92584365D03*
X208440000Y-92584365D03*
X210980000Y-92584365D03*
X213520000Y-92584365D03*
X216060000Y-92584365D03*
X218600000Y-92584365D03*
X221140000Y-92584365D03*
X96680000Y-115444365D03*
X99220000Y-115444365D03*
X101760000Y-115444365D03*
X104300000Y-115444365D03*
X106840000Y-115444365D03*
X109380000Y-115444365D03*
X111920000Y-115444365D03*
X114460000Y-115444365D03*
X117000000Y-115444365D03*
X119540000Y-115444365D03*
X96680000Y-112904365D03*
X99220000Y-112904365D03*
X101760000Y-112904365D03*
X104300000Y-112904365D03*
X106840000Y-112904365D03*
X109380000Y-112904365D03*
X111920000Y-112904365D03*
X114460000Y-112904365D03*
X117000000Y-112904365D03*
X119540000Y-112904365D03*
X96680000Y-110364365D03*
X99220000Y-110364365D03*
X101760000Y-110364365D03*
X104300000Y-110364365D03*
X106840000Y-110364365D03*
X109380000Y-110364365D03*
X111920000Y-110364365D03*
X114460000Y-110364365D03*
X117000000Y-110364365D03*
X119540000Y-110364365D03*
X96680000Y-107824365D03*
X99220000Y-107824365D03*
X101760000Y-107824365D03*
X104300000Y-107824365D03*
X106840000Y-107824365D03*
X109380000Y-107824365D03*
X111920000Y-107824365D03*
X114460000Y-107824365D03*
X117000000Y-107824365D03*
X119540000Y-107824365D03*
X96680000Y-105284365D03*
X99220000Y-105284365D03*
X101760000Y-105284365D03*
X104300000Y-105284365D03*
X106840000Y-105284365D03*
X109380000Y-105284365D03*
X111920000Y-105284365D03*
X114460000Y-105284365D03*
X117000000Y-105284365D03*
X119540000Y-105284365D03*
X96680000Y-102744365D03*
X99220000Y-102744365D03*
X101760000Y-102744365D03*
X104300000Y-102744365D03*
X106840000Y-102744365D03*
X109380000Y-102744365D03*
X111920000Y-102744365D03*
X114460000Y-102744365D03*
X117000000Y-102744365D03*
X119540000Y-102744365D03*
X96680000Y-100204365D03*
X99220000Y-100204365D03*
X101760000Y-100204365D03*
X104300000Y-100204365D03*
X106840000Y-100204365D03*
X109380000Y-100204365D03*
X111920000Y-100204365D03*
X114460000Y-100204365D03*
X117000000Y-100204365D03*
X119540000Y-100204365D03*
X96680000Y-97664365D03*
X99220000Y-97664365D03*
X101760000Y-97664365D03*
X104300000Y-97664365D03*
X106840000Y-97664365D03*
X109380000Y-97664365D03*
X111920000Y-97664365D03*
X114460000Y-97664365D03*
X117000000Y-97664365D03*
X119540000Y-97664365D03*
X96680000Y-95124365D03*
X99220000Y-95124365D03*
X101760000Y-95124365D03*
X104300000Y-95124365D03*
X106840000Y-95124365D03*
X109380000Y-95124365D03*
X111920000Y-95124365D03*
X114460000Y-95124365D03*
X117000000Y-95124365D03*
X119540000Y-95124365D03*
X96680000Y-92584365D03*
X99220000Y-92584365D03*
X101760000Y-92584365D03*
X104300000Y-92584365D03*
X106840000Y-92584365D03*
X109380000Y-92584365D03*
X111920000Y-92584365D03*
X114460000Y-92584365D03*
X117000000Y-92584365D03*
X119540000Y-92584365D03*
M02*
