%TF.GenerationSoftware,KiCad,Pcbnew,9.0.2*%
%TF.CreationDate,2025-06-03T09:59:19-04:00*%
%TF.ProjectId,PCI_Proto,5043495f-5072-46f7-946f-2e6b69636164,rev?*%
%TF.SameCoordinates,Original*%
%TF.FileFunction,Soldermask,Bot*%
%TF.FilePolarity,Negative*%
%FSLAX46Y46*%
G04 Gerber Fmt 4.6, Leading zero omitted, Abs format (unit mm)*
G04 Created by KiCad (PCBNEW 9.0.2) date 2025-06-03 09:59:19*
%MOMM*%
%LPD*%
G01*
G04 APERTURE LIST*
%ADD10C,0.100000*%
%ADD11C,0.000000*%
%ADD12R,1.020000X4.570000*%
%ADD13R,0.510000X0.760000*%
%ADD14C,1.600000*%
G04 APERTURE END LIST*
D10*
X109700000Y-139944365D02*
X189700000Y-139944365D01*
X189700000Y-147144365D01*
X109700000Y-147144365D01*
X109700000Y-139944365D01*
G36*
X109700000Y-139944365D02*
G01*
X189700000Y-139944365D01*
X189700000Y-147144365D01*
X109700000Y-147144365D01*
X109700000Y-139944365D01*
G37*
D11*
%TO.C,REF\u002A\u002A*%
G36*
X82816481Y-54856392D02*
G01*
X82709758Y-54963114D01*
X82603036Y-54856392D01*
X82709758Y-54749669D01*
X82816481Y-54856392D01*
G37*
G36*
X82816481Y-61473198D02*
G01*
X82709758Y-61579921D01*
X82603036Y-61473198D01*
X82709758Y-61366476D01*
X82816481Y-61473198D01*
G37*
G36*
X88579506Y-63180761D02*
G01*
X88472783Y-63287484D01*
X88366061Y-63180761D01*
X88472783Y-63074039D01*
X88579506Y-63180761D01*
G37*
G36*
X88579506Y-67663114D02*
G01*
X88472783Y-67769837D01*
X88366060Y-67663114D01*
X88472783Y-67556392D01*
X88579506Y-67663114D01*
G37*
G36*
X88792952Y-70437904D02*
G01*
X88686229Y-70544627D01*
X88579506Y-70437904D01*
X88686229Y-70331182D01*
X88792952Y-70437904D01*
G37*
G36*
X88792952Y-70971518D02*
G01*
X88777548Y-71084515D01*
X88650655Y-71113815D01*
X88625109Y-71082531D01*
X88650655Y-70829221D01*
X88714855Y-70795828D01*
X88792952Y-70971518D01*
G37*
G36*
X88792952Y-71825299D02*
G01*
X88777548Y-71938296D01*
X88650655Y-71967596D01*
X88625109Y-71936312D01*
X88650655Y-71683002D01*
X88714855Y-71649609D01*
X88792952Y-71825299D01*
G37*
G36*
X88776101Y-72554571D02*
G01*
X88761008Y-72771060D01*
X88663995Y-72834718D01*
X88621698Y-72759204D01*
X88647144Y-72425614D01*
X88723973Y-72326818D01*
X88776101Y-72554571D01*
G37*
G36*
X88003047Y-68774150D02*
G01*
X88152615Y-68956384D01*
X88147066Y-68977686D01*
X87939170Y-69050509D01*
X87880666Y-69041823D01*
X87725725Y-68824467D01*
X87742484Y-68747264D01*
X87939170Y-68730341D01*
X88003047Y-68774150D01*
G37*
G36*
X88718166Y-73498103D02*
G01*
X88734817Y-73959753D01*
X88728590Y-74272984D01*
X88695100Y-74541154D01*
X88642317Y-74440005D01*
X88607003Y-74101477D01*
X88642316Y-73479501D01*
X88675595Y-73371373D01*
X88718166Y-73498103D01*
G37*
G36*
X91907978Y-66536006D02*
G01*
X91949380Y-66825575D01*
X91974898Y-67415361D01*
X91979630Y-68214515D01*
X91975050Y-68528731D01*
X91941041Y-69249427D01*
X91880195Y-69612750D01*
X91797119Y-69584123D01*
X91749236Y-69373763D01*
X91706457Y-68811919D01*
X91703264Y-68102600D01*
X91735381Y-67389251D01*
X91798524Y-66815314D01*
X91888416Y-66524233D01*
X91907978Y-66536006D01*
G37*
G36*
X88905605Y-66512253D02*
G01*
X89953279Y-66541989D01*
X90774226Y-66583855D01*
X91301725Y-66634260D01*
X91469055Y-66689607D01*
X91258624Y-66755558D01*
X90707155Y-66812213D01*
X89902199Y-66853207D01*
X88928765Y-66878465D01*
X87871861Y-66887920D01*
X86816496Y-66881500D01*
X85847679Y-66859131D01*
X85050418Y-66820744D01*
X84509721Y-66766266D01*
X84310599Y-66695626D01*
X84318957Y-66675614D01*
X84613581Y-66590592D01*
X85322168Y-66532544D01*
X86434610Y-66502017D01*
X87940797Y-66499557D01*
X88905605Y-66512253D01*
G37*
G36*
X91894006Y-53506869D02*
G01*
X91925875Y-53753829D01*
X91953340Y-54353411D01*
X91974813Y-55243722D01*
X91988709Y-56362871D01*
X91993442Y-57648969D01*
X91983508Y-59077732D01*
X91936944Y-60717138D01*
X91850474Y-61961515D01*
X91722101Y-62828509D01*
X91549831Y-63335765D01*
X91331666Y-63500929D01*
X91247449Y-63467206D01*
X91282336Y-63234123D01*
X91335120Y-63145143D01*
X91435388Y-62923344D01*
X91511980Y-62626862D01*
X91569601Y-62196999D01*
X91612960Y-61575059D01*
X91646766Y-60702344D01*
X91675725Y-59520156D01*
X91704544Y-57969800D01*
X91710373Y-57649049D01*
X91739842Y-56358580D01*
X91774938Y-55233628D01*
X91812987Y-54339529D01*
X91851314Y-53741619D01*
X91887247Y-53505234D01*
X91894006Y-53506869D01*
G37*
G36*
X86674916Y-50907668D02*
G01*
X87482546Y-50908475D01*
X89045905Y-50920145D01*
X90261078Y-50954400D01*
X91182453Y-51022272D01*
X91864419Y-51134796D01*
X92361365Y-51303001D01*
X92727680Y-51537923D01*
X93017752Y-51850595D01*
X93285971Y-52252048D01*
X93327843Y-52322806D01*
X93396550Y-52462489D01*
X93456176Y-52640095D01*
X93507262Y-52883408D01*
X93550345Y-53220209D01*
X93585965Y-53678284D01*
X93614658Y-54285415D01*
X93636963Y-55069384D01*
X93653420Y-56057975D01*
X93664565Y-57278972D01*
X93670939Y-58760158D01*
X93673078Y-60529316D01*
X93671521Y-62614229D01*
X93666807Y-65042680D01*
X93659475Y-67842453D01*
X93650062Y-71041330D01*
X93595473Y-89147277D01*
X92798187Y-89877885D01*
X92000901Y-90608492D01*
X86692800Y-90608492D01*
X81384699Y-90608491D01*
X80817744Y-90083056D01*
X80799874Y-90066320D01*
X80347232Y-89537527D01*
X80039517Y-89001934D01*
X80018590Y-88890615D01*
X79980332Y-88356859D01*
X79945982Y-87417039D01*
X79915697Y-86084945D01*
X79889636Y-84374366D01*
X79867959Y-82299092D01*
X79850822Y-79872913D01*
X79838385Y-77109622D01*
X79830807Y-74023006D01*
X79828246Y-70626855D01*
X79827977Y-67565486D01*
X79828210Y-64685287D01*
X79829489Y-63409451D01*
X80501166Y-63409451D01*
X80502893Y-65879398D01*
X80507585Y-68497855D01*
X80515349Y-71232452D01*
X80575304Y-89102630D01*
X81061658Y-89588754D01*
X81122075Y-89648318D01*
X81287471Y-89787222D01*
X81493960Y-89892140D01*
X81796656Y-89967839D01*
X82250673Y-90019085D01*
X82911125Y-90050645D01*
X83833126Y-90067286D01*
X85071788Y-90073775D01*
X86682227Y-90074879D01*
X91816443Y-90074879D01*
X92439151Y-89377815D01*
X93061859Y-88680749D01*
X93061859Y-70738286D01*
X93061859Y-52795823D01*
X92437942Y-52171906D01*
X91814025Y-51547988D01*
X86674917Y-51547988D01*
X85123115Y-51549669D01*
X83861045Y-51557667D01*
X82919507Y-51576111D01*
X82244060Y-51609129D01*
X81780263Y-51660843D01*
X81473673Y-51735385D01*
X81269848Y-51836878D01*
X81114347Y-51969450D01*
X80817848Y-52350951D01*
X80574140Y-52876593D01*
X80563439Y-52997386D01*
X80547302Y-53521338D01*
X80533405Y-54420406D01*
X80521854Y-55662217D01*
X80512750Y-57214399D01*
X80506199Y-59044580D01*
X80502303Y-61120388D01*
X80501166Y-63409451D01*
X79829489Y-63409451D01*
X79830722Y-62179484D01*
X79837292Y-60020974D01*
X79849701Y-58182653D01*
X79869729Y-56637415D01*
X79899155Y-55358156D01*
X79939760Y-54317772D01*
X79993324Y-53489159D01*
X80061626Y-52845211D01*
X80146446Y-52358824D01*
X80249565Y-52002894D01*
X80372762Y-51750314D01*
X80517817Y-51573984D01*
X80686510Y-51446797D01*
X80880622Y-51341648D01*
X81101931Y-51231433D01*
X81208420Y-51182834D01*
X81544200Y-51085655D01*
X82037090Y-51013193D01*
X82741028Y-50962305D01*
X83709950Y-50929847D01*
X84997795Y-50912677D01*
X86658498Y-50907652D01*
X86674916Y-50907668D01*
G37*
G36*
X82923204Y-66518488D02*
G01*
X83037445Y-66521062D01*
X83040754Y-66521137D01*
X83714771Y-66559013D01*
X83964982Y-66635157D01*
X83793100Y-66753743D01*
X83200842Y-66918951D01*
X83172762Y-66926380D01*
X83186387Y-66980925D01*
X83589705Y-67028049D01*
X84349775Y-67066026D01*
X85377825Y-67091738D01*
X85433653Y-67093135D01*
X86743725Y-67106970D01*
X86808398Y-67107652D01*
X89113120Y-67119330D01*
X91120481Y-67129501D01*
X91184027Y-68463535D01*
X91194802Y-68705845D01*
X91188803Y-69329884D01*
X91060008Y-69705156D01*
X90732786Y-69884713D01*
X90131504Y-69921606D01*
X89180531Y-69868888D01*
X88152350Y-69797568D01*
X88152483Y-72512298D01*
X88152806Y-72820597D01*
X88162691Y-73855012D01*
X88192025Y-74539025D01*
X88248414Y-74934188D01*
X88339466Y-75102052D01*
X88472783Y-75104167D01*
X88661712Y-75081955D01*
X88792952Y-75324312D01*
X88774574Y-75433790D01*
X88600938Y-75577677D01*
X88173216Y-75648444D01*
X87405557Y-75667316D01*
X86018163Y-75667316D01*
X86018163Y-75026980D01*
X86396608Y-75026980D01*
X87114527Y-74997912D01*
X87283416Y-74988787D01*
X87537091Y-74944272D01*
X87377411Y-74879649D01*
X87347855Y-74873644D01*
X87149827Y-74800219D01*
X87027401Y-74627316D01*
X86964810Y-74273129D01*
X86946286Y-73655851D01*
X86956058Y-72693672D01*
X86961958Y-72421315D01*
X87017598Y-71398912D01*
X87116155Y-70663372D01*
X87249159Y-70284314D01*
X87286755Y-70224459D01*
X87725725Y-70224459D01*
X87832447Y-70331182D01*
X87939170Y-70224459D01*
X87832447Y-70117736D01*
X87725725Y-70224459D01*
X87286755Y-70224459D01*
X87372254Y-70088339D01*
X87382331Y-69845491D01*
X87344771Y-69773719D01*
X87410864Y-69468813D01*
X87494806Y-69375852D01*
X87699045Y-69401251D01*
X87715646Y-69416027D01*
X87832447Y-69439891D01*
X88035880Y-69481456D01*
X88646872Y-69498302D01*
X89433288Y-69462493D01*
X91034128Y-69340863D01*
X89753456Y-69302258D01*
X89055059Y-69268999D01*
X88660641Y-69192223D01*
X88490513Y-69027971D01*
X88442090Y-68731603D01*
X88474946Y-68404990D01*
X88620124Y-68328552D01*
X88742399Y-68293346D01*
X88757540Y-67953612D01*
X88750180Y-67905876D01*
X88631258Y-67608586D01*
X88326286Y-67457228D01*
X88261088Y-67449669D01*
X89006397Y-67449669D01*
X89113120Y-67556392D01*
X89219842Y-67449669D01*
X89113120Y-67342946D01*
X89006397Y-67449669D01*
X88261088Y-67449669D01*
X87714977Y-67386353D01*
X86743725Y-67323037D01*
X86712850Y-68133412D01*
X86709127Y-68227771D01*
X86683394Y-68830140D01*
X86643361Y-69727120D01*
X86593753Y-70813829D01*
X86539292Y-71985383D01*
X86396608Y-75026980D01*
X86018163Y-75026980D01*
X86018163Y-72808223D01*
X86018162Y-69949129D01*
X85164380Y-69867707D01*
X84310599Y-69786287D01*
X84310599Y-73141095D01*
X84314802Y-73834140D01*
X84339465Y-74905620D01*
X84382507Y-75776992D01*
X84439665Y-76372675D01*
X84506676Y-76617086D01*
X84662435Y-76591240D01*
X84784904Y-76238752D01*
X84859053Y-75526301D01*
X84887023Y-74432264D01*
X84870950Y-72935019D01*
X84869651Y-72873522D01*
X84862746Y-71866271D01*
X84882791Y-71027807D01*
X84926079Y-70444070D01*
X84988902Y-70200994D01*
X85029308Y-70268333D01*
X85082984Y-70680768D01*
X85125796Y-71405785D01*
X85154132Y-72375059D01*
X85164380Y-73520265D01*
X85164380Y-76947987D01*
X83563540Y-76947988D01*
X81962699Y-76947988D01*
X81962699Y-71722418D01*
X81962699Y-67436054D01*
X82389590Y-67436054D01*
X82389590Y-71871853D01*
X82389590Y-76307652D01*
X82869842Y-76304384D01*
X83134085Y-76264748D01*
X83114894Y-76144301D01*
X82964715Y-75886858D01*
X82908497Y-75400509D01*
X82867565Y-74996086D01*
X82716807Y-74810266D01*
X82642628Y-74783136D01*
X82771392Y-74632473D01*
X82936610Y-74383768D01*
X82838380Y-73910629D01*
X82724995Y-73511706D01*
X82734276Y-73259325D01*
X82817818Y-73078616D01*
X82887324Y-72558860D01*
X82882141Y-71890432D01*
X82804093Y-71291686D01*
X83029926Y-71291686D01*
X83136649Y-71398408D01*
X83243372Y-71291686D01*
X83136649Y-71184963D01*
X83029926Y-71291686D01*
X82804093Y-71291686D01*
X82797137Y-71238324D01*
X82783026Y-71169093D01*
X82737862Y-70725854D01*
X82803288Y-70544627D01*
X82861391Y-70513775D01*
X82925633Y-70238593D01*
X82884615Y-69848351D01*
X82749681Y-69552896D01*
X82633822Y-69378176D01*
X82633548Y-69370305D01*
X84658431Y-69370305D01*
X84790851Y-69416836D01*
X85275349Y-69452566D01*
X85964800Y-69416836D01*
X86102273Y-69375607D01*
X85904778Y-69341153D01*
X85377825Y-69327917D01*
X84900844Y-69338118D01*
X84658431Y-69370305D01*
X82633548Y-69370305D01*
X82626088Y-69156015D01*
X82798506Y-69146123D01*
X82845811Y-69149773D01*
X82931668Y-68912979D01*
X82934246Y-68730341D01*
X83243372Y-68730341D01*
X83350094Y-68837064D01*
X83456817Y-68730341D01*
X83350094Y-68623620D01*
X83243372Y-68730341D01*
X82934246Y-68730341D01*
X82938884Y-68401739D01*
X82926575Y-68029238D01*
X82987621Y-67682818D01*
X83136649Y-67653186D01*
X83170304Y-67646494D01*
X83303063Y-67674025D01*
X83350094Y-67636725D01*
X83456818Y-67552084D01*
X83322870Y-67428130D01*
X82923204Y-67391891D01*
X82389590Y-67436054D01*
X81962699Y-67436054D01*
X81962699Y-66496849D01*
X82923204Y-66518488D01*
G37*
G36*
X85109056Y-79492541D02*
G01*
X85108234Y-79517648D01*
X85100728Y-80267183D01*
X85126091Y-80831184D01*
X85179045Y-81089264D01*
X85236773Y-81108431D01*
X85641337Y-81151759D01*
X86360531Y-81190524D01*
X87315897Y-81221090D01*
X88428976Y-81239822D01*
X88955074Y-81247475D01*
X89970842Y-81277646D01*
X90773783Y-81322724D01*
X91292545Y-81378016D01*
X91455771Y-81438832D01*
X91393276Y-81467375D01*
X90982526Y-81525519D01*
X90258168Y-81575347D01*
X89297571Y-81612301D01*
X88178103Y-81631827D01*
X87678397Y-81636463D01*
X86539760Y-81643282D01*
X85746170Y-81612215D01*
X85237377Y-81506685D01*
X84953130Y-81290111D01*
X84833182Y-80925917D01*
X84817282Y-80377524D01*
X84845180Y-79608352D01*
X84887758Y-78330536D01*
X83542638Y-78332960D01*
X82994767Y-78348873D01*
X82493919Y-78416669D01*
X82388981Y-78514664D01*
X82586194Y-78582181D01*
X82689458Y-78617534D01*
X83350094Y-78693647D01*
X83404859Y-78699957D01*
X84203876Y-78754969D01*
X84309973Y-78762274D01*
X84310286Y-80286917D01*
X84314052Y-80697023D01*
X84357265Y-81386113D01*
X84462828Y-81772283D01*
X84648224Y-81941118D01*
X84720641Y-81958386D01*
X84844212Y-81970295D01*
X85179173Y-82002582D01*
X85946906Y-82038221D01*
X86937184Y-82062015D01*
X87506557Y-82066394D01*
X88063350Y-82070677D01*
X89966901Y-82070677D01*
X90589450Y-82070677D01*
X91140851Y-82070677D01*
X91140851Y-83232030D01*
X91158070Y-83698410D01*
X91235565Y-84254327D01*
X91354296Y-84525299D01*
X91450098Y-84554671D01*
X91589012Y-84377812D01*
X91603231Y-84151532D01*
X91634287Y-83583537D01*
X91670994Y-82860263D01*
X91709506Y-82319726D01*
X91782359Y-81759799D01*
X91863169Y-81490656D01*
X91885957Y-81494468D01*
X91941485Y-81760379D01*
X91980133Y-82330788D01*
X91994632Y-83115803D01*
X91994632Y-84872414D01*
X88152348Y-84805579D01*
X84310063Y-84738745D01*
X84310331Y-86517456D01*
X84315722Y-87080907D01*
X84354926Y-87779772D01*
X84439315Y-88137100D01*
X84577405Y-88206757D01*
X84697719Y-88074963D01*
X84791591Y-87582334D01*
X84798485Y-86702731D01*
X84802867Y-85988719D01*
X84860214Y-85423984D01*
X84958569Y-85160917D01*
X84971808Y-85155232D01*
X85074124Y-85328503D01*
X85140649Y-85868713D01*
X85164380Y-86722718D01*
X85164380Y-88411719D01*
X83563540Y-88454089D01*
X81962699Y-88496460D01*
X81962699Y-83255837D01*
X81962699Y-81834345D01*
X82428256Y-81834345D01*
X82438707Y-83394595D01*
X82496313Y-87920194D01*
X83296733Y-87998046D01*
X83444858Y-88010360D01*
X83909796Y-88014216D01*
X84097153Y-87954800D01*
X84011761Y-87883286D01*
X83657666Y-87833703D01*
X83414458Y-87787943D01*
X83353364Y-87614969D01*
X83390501Y-87529979D01*
X83280582Y-87454885D01*
X83223739Y-87463669D01*
X83069500Y-87323953D01*
X83037580Y-87219505D01*
X82781350Y-86953692D01*
X82662936Y-86857412D01*
X82709758Y-86769682D01*
X82822851Y-86617913D01*
X82895154Y-86181607D01*
X82907269Y-85611639D01*
X82856859Y-85061209D01*
X82741585Y-84683520D01*
X82690084Y-84554718D01*
X82803884Y-84418577D01*
X82912037Y-84377748D01*
X82938646Y-84311854D01*
X84097154Y-84311854D01*
X84203877Y-84418577D01*
X84310599Y-84311854D01*
X84203877Y-84205131D01*
X84097154Y-84311854D01*
X82938646Y-84311854D01*
X83024840Y-84098408D01*
X83243372Y-84098408D01*
X83350094Y-84205130D01*
X83456817Y-84098408D01*
X84737489Y-84098408D01*
X84844212Y-84205130D01*
X84950935Y-84098408D01*
X84897047Y-84044521D01*
X86554729Y-84044521D01*
X86629013Y-84151588D01*
X86984441Y-84190333D01*
X87693407Y-84180630D01*
X88306445Y-84159285D01*
X88812215Y-84134942D01*
X89006397Y-84115897D01*
X89004481Y-84112584D01*
X88985526Y-84098408D01*
X89860178Y-84098408D01*
X89966901Y-84205131D01*
X90073624Y-84098408D01*
X90017932Y-84042717D01*
X90379645Y-84042717D01*
X90460494Y-84137493D01*
X90583924Y-84171595D01*
X90869597Y-84120642D01*
X90866292Y-84047780D01*
X90589450Y-84008537D01*
X90379645Y-84042717D01*
X90017932Y-84042717D01*
X89966901Y-83991686D01*
X89860178Y-84098408D01*
X88985526Y-84098408D01*
X88817884Y-83973036D01*
X88419422Y-83703531D01*
X88328492Y-83641931D01*
X88097543Y-83448154D01*
X88184945Y-83425879D01*
X88339429Y-83437796D01*
X88594578Y-83241113D01*
X88672827Y-82876157D01*
X88512128Y-82515568D01*
X88482920Y-82490796D01*
X88084870Y-82344049D01*
X87506557Y-82284123D01*
X87401314Y-82284407D01*
X86950328Y-82323137D01*
X86796155Y-82501840D01*
X86826700Y-82926414D01*
X86817136Y-83457226D01*
X86650694Y-83894366D01*
X86554729Y-84044521D01*
X84897047Y-84044521D01*
X84844212Y-83991686D01*
X84737489Y-84098408D01*
X83456817Y-84098408D01*
X83350094Y-83991686D01*
X83243372Y-84098408D01*
X83024840Y-84098408D01*
X83029926Y-84085812D01*
X82996139Y-83931421D01*
X82795186Y-83898124D01*
X82690801Y-83879729D01*
X82825794Y-83547394D01*
X82962703Y-83202099D01*
X82868398Y-82977339D01*
X82787464Y-82842853D01*
X82758904Y-82616888D01*
X82816481Y-82616888D01*
X82822030Y-82638190D01*
X83029927Y-82711013D01*
X83088428Y-82702327D01*
X83243372Y-82484971D01*
X83226613Y-82407769D01*
X83029927Y-82390845D01*
X82966050Y-82434655D01*
X82816481Y-82616888D01*
X82758904Y-82616888D01*
X82733347Y-82414678D01*
X82740520Y-81858726D01*
X82749548Y-81786084D01*
X82887629Y-81786084D01*
X82918914Y-81811629D01*
X83029926Y-81800434D01*
X83172223Y-81786084D01*
X83205616Y-81721883D01*
X83029926Y-81643787D01*
X82916929Y-81659190D01*
X82887629Y-81786084D01*
X82749548Y-81786084D01*
X82804423Y-81344560D01*
X82920489Y-81041739D01*
X82940502Y-80944239D01*
X82805889Y-80683282D01*
X83243372Y-80683282D01*
X83350094Y-80790006D01*
X83456818Y-80683282D01*
X83350094Y-80576560D01*
X83243372Y-80683282D01*
X82805889Y-80683282D01*
X82788494Y-80649560D01*
X82660013Y-80446981D01*
X82790346Y-80363115D01*
X82905129Y-80322169D01*
X83029926Y-80030349D01*
X82991037Y-79858946D01*
X82763120Y-79857877D01*
X82624628Y-79900033D01*
X82781494Y-79666378D01*
X82927803Y-79383337D01*
X82887568Y-79024512D01*
X82586194Y-78868997D01*
X82521805Y-79052158D01*
X82470903Y-79629469D01*
X82439355Y-80568084D01*
X82428256Y-81834345D01*
X81962699Y-81834345D01*
X81962699Y-78015215D01*
X83560582Y-78015215D01*
X85158465Y-78015215D01*
X85109056Y-79492541D01*
G37*
G36*
X89832631Y-53520786D02*
G01*
X90752147Y-53551001D01*
X91309740Y-53598722D01*
X91473067Y-53662948D01*
X91461595Y-53673264D01*
X91153822Y-53733405D01*
X90479036Y-53780224D01*
X89489004Y-53811956D01*
X88235496Y-53826839D01*
X86770280Y-53823110D01*
X86217704Y-53819320D01*
X84943098Y-53819302D01*
X83859429Y-53831595D01*
X83025673Y-53854796D01*
X82500806Y-53887503D01*
X82343801Y-53928316D01*
X82362998Y-53937976D01*
X82389590Y-53941814D01*
X82694134Y-53985770D01*
X83371780Y-54033480D01*
X84329417Y-54077899D01*
X84488792Y-54083058D01*
X85500525Y-54115817D01*
X86818582Y-54144031D01*
X87841886Y-54160690D01*
X89846281Y-54193320D01*
X90607237Y-54205708D01*
X90785108Y-54208604D01*
X91140851Y-54214395D01*
X91140851Y-58416876D01*
X91132271Y-59773800D01*
X91090747Y-61313182D01*
X91013190Y-62453590D01*
X90897833Y-63210544D01*
X90742909Y-63599563D01*
X90546653Y-63636167D01*
X90449754Y-63649800D01*
X90378547Y-63931667D01*
X90378906Y-63972849D01*
X90448706Y-64207351D01*
X90706337Y-64079758D01*
X90738667Y-64055901D01*
X90813502Y-64052475D01*
X90623029Y-64309987D01*
X90145547Y-64683461D01*
X89267802Y-65040949D01*
X88165124Y-65280733D01*
X86941843Y-65394197D01*
X85702292Y-65372728D01*
X84550801Y-65207711D01*
X83591702Y-64890532D01*
X83332910Y-64762909D01*
X82897027Y-64505426D01*
X82564974Y-64202397D01*
X82323566Y-63799366D01*
X82159615Y-63241878D01*
X82059931Y-62475477D01*
X82011330Y-61445707D01*
X82000622Y-60098114D01*
X82013581Y-58506067D01*
X82389590Y-58506067D01*
X82392772Y-59567348D01*
X82417354Y-60985541D01*
X82477586Y-62069452D01*
X82586791Y-62876314D01*
X82758293Y-63463357D01*
X83005413Y-63887811D01*
X83341475Y-64206908D01*
X83779803Y-64477878D01*
X83921258Y-64549799D01*
X84392625Y-64724195D01*
X84657915Y-64718880D01*
X84689158Y-64642235D01*
X84484063Y-64568156D01*
X84074909Y-64430199D01*
X83582996Y-64023627D01*
X83190352Y-63490920D01*
X83032763Y-62986588D01*
X86552752Y-62986588D01*
X86656875Y-63178806D01*
X86812489Y-63574614D01*
X86826700Y-64139311D01*
X86794209Y-64471811D01*
X86892399Y-64725678D01*
X87244325Y-64781602D01*
X87595288Y-64714684D01*
X87603484Y-64710453D01*
X88650655Y-64710453D01*
X88681939Y-64735999D01*
X88935248Y-64710453D01*
X88968641Y-64646253D01*
X88792952Y-64568156D01*
X88679954Y-64583560D01*
X88650655Y-64710453D01*
X87603484Y-64710453D01*
X88013359Y-64498874D01*
X88025835Y-64486627D01*
X89433288Y-64486627D01*
X89447185Y-64515823D01*
X89646733Y-64461434D01*
X89709917Y-64417582D01*
X89860178Y-64222794D01*
X89846281Y-64193598D01*
X89646733Y-64247988D01*
X89583549Y-64291840D01*
X89433288Y-64486627D01*
X88025835Y-64486627D01*
X88289892Y-64227417D01*
X88293979Y-63998035D01*
X88283188Y-63930002D01*
X88426436Y-63597587D01*
X88706350Y-63180761D01*
X90500515Y-63180761D01*
X90607237Y-63287483D01*
X90713960Y-63180761D01*
X90607237Y-63074039D01*
X90500515Y-63180761D01*
X88706350Y-63180761D01*
X88747947Y-63118818D01*
X88792951Y-63059322D01*
X88913237Y-62900308D01*
X89140629Y-62568980D01*
X89118568Y-62491553D01*
X88859470Y-62611548D01*
X88706320Y-62675500D01*
X88105735Y-62807891D01*
X87393454Y-62860593D01*
X87193285Y-62861618D01*
X86706936Y-62891494D01*
X86552752Y-62986588D01*
X83032763Y-62986588D01*
X83029926Y-62977508D01*
X82988092Y-62753871D01*
X83243372Y-62753871D01*
X83350094Y-62860593D01*
X83456818Y-62753871D01*
X83350095Y-62647148D01*
X83243372Y-62753871D01*
X82988092Y-62753871D01*
X82962247Y-62615708D01*
X82763120Y-62430434D01*
X82647935Y-62410429D01*
X82709758Y-62270350D01*
X82813840Y-62158607D01*
X82906057Y-61705543D01*
X82724499Y-61173413D01*
X82644254Y-61010897D01*
X82750999Y-61005838D01*
X82837078Y-60976444D01*
X82898931Y-60599360D01*
X82878865Y-59847638D01*
X82866837Y-59634024D01*
X82876957Y-59283952D01*
X84310599Y-59283952D01*
X84315611Y-60252575D01*
X84362354Y-61242741D01*
X84498432Y-61913762D01*
X84771359Y-62327675D01*
X85228646Y-62546518D01*
X85917807Y-62632330D01*
X86886355Y-62647148D01*
X86930348Y-62647128D01*
X87774553Y-62630001D01*
X88311436Y-62562705D01*
X88655177Y-62418482D01*
X88919954Y-62170574D01*
X88971312Y-62109244D01*
X90759563Y-62109244D01*
X90785108Y-62362554D01*
X90849308Y-62395947D01*
X90927405Y-62220257D01*
X90912001Y-62107260D01*
X90785108Y-62077960D01*
X90759563Y-62109244D01*
X88971312Y-62109244D01*
X89118568Y-61933397D01*
X89180601Y-61859319D01*
X89189278Y-61807790D01*
X88919968Y-62010490D01*
X88915326Y-62014041D01*
X88482169Y-62176121D01*
X87786268Y-62276559D01*
X86964491Y-62314281D01*
X86153706Y-62288212D01*
X85490782Y-62197276D01*
X85112588Y-62040398D01*
X85022847Y-61786663D01*
X84943968Y-61223351D01*
X84886413Y-60461321D01*
X84852595Y-59604591D01*
X84844925Y-58757177D01*
X84865816Y-58023098D01*
X84917679Y-57506371D01*
X85002926Y-57311013D01*
X85043043Y-57378554D01*
X85100582Y-57779700D01*
X85136922Y-58461384D01*
X85145507Y-59330753D01*
X85145631Y-59822166D01*
X85166120Y-60653988D01*
X85208216Y-61272883D01*
X85266164Y-61571929D01*
X85277487Y-61585508D01*
X85585678Y-61690744D01*
X86188685Y-61765150D01*
X86968426Y-61793366D01*
X87443551Y-61788612D01*
X88119734Y-61744098D01*
X88497993Y-61638790D01*
X88663393Y-61455741D01*
X88692946Y-61325613D01*
X88713870Y-61112266D01*
X89223111Y-61112266D01*
X89271848Y-61402291D01*
X89433288Y-61473198D01*
X89573409Y-61382193D01*
X89614776Y-61243826D01*
X89433288Y-60939585D01*
X89379984Y-60861410D01*
X89256584Y-60793036D01*
X89223111Y-61112266D01*
X88713870Y-61112266D01*
X88744270Y-60802287D01*
X88779722Y-60024657D01*
X88792952Y-59107842D01*
X88792952Y-57097568D01*
X86807910Y-57097568D01*
X86750220Y-57097502D01*
X85674512Y-57065414D01*
X84931346Y-56978305D01*
X84566733Y-56841434D01*
X84488792Y-56804058D01*
X84403328Y-56951102D01*
X84348476Y-57381628D01*
X84319235Y-58143341D01*
X84310599Y-59283952D01*
X82876957Y-59283952D01*
X82893084Y-58726043D01*
X83071451Y-58213316D01*
X83078691Y-58204362D01*
X83229339Y-57980068D01*
X83083288Y-58029697D01*
X82956341Y-58084594D01*
X82801775Y-58017308D01*
X82771736Y-57748455D01*
X82729927Y-57417736D01*
X83029926Y-57417736D01*
X83136649Y-57524459D01*
X83243372Y-57417736D01*
X83136649Y-57311013D01*
X83029926Y-57417736D01*
X82729927Y-57417736D01*
X82709202Y-57253801D01*
X82707942Y-56857340D01*
X82863611Y-56806528D01*
X82981900Y-56849546D01*
X82913494Y-56654966D01*
X82847782Y-56527602D01*
X82816764Y-56349080D01*
X84910943Y-56349080D01*
X85115311Y-56379640D01*
X85702311Y-56402754D01*
X86694072Y-56421350D01*
X87648079Y-56444967D01*
X88545229Y-56502455D01*
X89080973Y-56594057D01*
X89256584Y-56702262D01*
X89291927Y-56724038D01*
X89346004Y-56824851D01*
X89416437Y-56759613D01*
X89417922Y-56730359D01*
X89252464Y-56368379D01*
X88744781Y-56243787D01*
X88533460Y-56201784D01*
X88476052Y-56025053D01*
X88515102Y-55941003D01*
X88435287Y-55836884D01*
X88123475Y-55855956D01*
X88049557Y-55733661D01*
X88366061Y-55475787D01*
X88682503Y-55275220D01*
X88725672Y-55198463D01*
X88423125Y-55248955D01*
X88258725Y-55278887D01*
X88056740Y-55235215D01*
X88163828Y-54942163D01*
X88316071Y-54699435D01*
X88492890Y-54536224D01*
X88526286Y-54566550D01*
X88444408Y-54803029D01*
X88433000Y-54916439D01*
X88698618Y-54756706D01*
X88980923Y-54544980D01*
X89202055Y-54383176D01*
X89203878Y-54381609D01*
X89037419Y-54351911D01*
X88549799Y-54330808D01*
X87841886Y-54322778D01*
X87163488Y-54331473D01*
X86717993Y-54373571D01*
X86569277Y-54467127D01*
X86647786Y-54630039D01*
X86799594Y-54986115D01*
X86834005Y-55537182D01*
X86833992Y-55537293D01*
X86765891Y-55873009D01*
X86588683Y-56067803D01*
X86196766Y-56178335D01*
X85484548Y-56261266D01*
X85067079Y-56308143D01*
X84910943Y-56349080D01*
X82816764Y-56349080D01*
X82743169Y-55925515D01*
X82815003Y-55496728D01*
X83029926Y-55496728D01*
X83136649Y-55603450D01*
X83243372Y-55496728D01*
X83136649Y-55390005D01*
X83029926Y-55496728D01*
X82815003Y-55496728D01*
X82851480Y-55278995D01*
X83128981Y-54742519D01*
X83136649Y-54737344D01*
X83350094Y-54593287D01*
X83531936Y-54470562D01*
X83626645Y-54445728D01*
X83589332Y-54388266D01*
X83190010Y-54351847D01*
X82389590Y-54322778D01*
X82389590Y-58506067D01*
X82013581Y-58506067D01*
X82014621Y-58378241D01*
X82069422Y-53575719D01*
X86833143Y-53519180D01*
X87037201Y-53516884D01*
X88583535Y-53509080D01*
X89832631Y-53520786D01*
G37*
G36*
X76459910Y-94195866D02*
G01*
X76353186Y-94302590D01*
X76246463Y-94195867D01*
X76353187Y-94089145D01*
X76459910Y-94195866D01*
G37*
G36*
X75819574Y-95263094D02*
G01*
X75712851Y-95369817D01*
X75606128Y-95263094D01*
X75712852Y-95156372D01*
X75819574Y-95263094D01*
G37*
G36*
X75819574Y-96116876D02*
G01*
X75712851Y-96223598D01*
X75606128Y-96116876D01*
X75712851Y-96010153D01*
X75819574Y-96116876D01*
G37*
G36*
X74965792Y-96970657D02*
G01*
X74859069Y-97077380D01*
X74752347Y-96970657D01*
X74859069Y-96863935D01*
X74965792Y-96970657D01*
G37*
G36*
X76459910Y-96970657D02*
G01*
X76353187Y-97077380D01*
X76246464Y-96970657D01*
X76353187Y-96863935D01*
X76459910Y-96970657D01*
G37*
G36*
X76459910Y-97397548D02*
G01*
X76353187Y-97504271D01*
X76246464Y-97397548D01*
X76353187Y-97290825D01*
X76459910Y-97397548D01*
G37*
G36*
X83503607Y-101026119D02*
G01*
X83396886Y-101132842D01*
X83290162Y-101026118D01*
X83396885Y-100919397D01*
X83503607Y-101026119D01*
G37*
G36*
X78167473Y-101666456D02*
G01*
X78060750Y-101773178D01*
X77954027Y-101666456D01*
X78060750Y-101559733D01*
X78167473Y-101666456D01*
G37*
G36*
X78167473Y-102733682D02*
G01*
X78060750Y-102840405D01*
X77954027Y-102733682D01*
X78060750Y-102626960D01*
X78167473Y-102733682D01*
G37*
G36*
X84997725Y-103800909D02*
G01*
X84891002Y-103907632D01*
X84784280Y-103800909D01*
X84891001Y-103694187D01*
X84997725Y-103800909D01*
G37*
G36*
X83717053Y-105721918D02*
G01*
X83610330Y-105828641D01*
X83503607Y-105721918D01*
X83610330Y-105615195D01*
X83717053Y-105721918D01*
G37*
G36*
X84784280Y-105935363D02*
G01*
X84677557Y-106042086D01*
X84570834Y-105935363D01*
X84677557Y-105828640D01*
X84784280Y-105935363D01*
G37*
G36*
X87772515Y-107216035D02*
G01*
X87665792Y-107322758D01*
X87559069Y-107216035D01*
X87665792Y-107109313D01*
X87772515Y-107216035D01*
G37*
G36*
X87772515Y-107642926D02*
G01*
X87665792Y-107749649D01*
X87559070Y-107642926D01*
X87665792Y-107536203D01*
X87772515Y-107642926D01*
G37*
G36*
X85638061Y-107856372D02*
G01*
X85531338Y-107963094D01*
X85424616Y-107856373D01*
X85531338Y-107749649D01*
X85638061Y-107856372D01*
G37*
G36*
X88199406Y-107856372D02*
G01*
X88092683Y-107963094D01*
X87985960Y-107856372D01*
X88092683Y-107749649D01*
X88199406Y-107856372D01*
G37*
G36*
X86918733Y-108069817D02*
G01*
X86812011Y-108176540D01*
X86705288Y-108069817D01*
X86812011Y-107963094D01*
X86918733Y-108069817D01*
G37*
G36*
X85638061Y-108496708D02*
G01*
X85531338Y-108603430D01*
X85424616Y-108496709D01*
X85531338Y-108389985D01*
X85638061Y-108496708D01*
G37*
G36*
X83930497Y-109137044D02*
G01*
X83823774Y-109243767D01*
X83717053Y-109137044D01*
X83823774Y-109030321D01*
X83930497Y-109137044D01*
G37*
G36*
X86918733Y-112125279D02*
G01*
X86812011Y-112232002D01*
X86705288Y-112125279D01*
X86812011Y-112018556D01*
X86918733Y-112125279D01*
G37*
G36*
X88626296Y-112552170D02*
G01*
X88519574Y-112658893D01*
X88412851Y-112552170D01*
X88519574Y-112445447D01*
X88626296Y-112552170D01*
G37*
G36*
X75392683Y-97931162D02*
G01*
X75377279Y-98044159D01*
X75250386Y-98073458D01*
X75224841Y-98042174D01*
X75250386Y-97788865D01*
X75314587Y-97755472D01*
X75392683Y-97931162D01*
G37*
G36*
X78067025Y-101148246D02*
G01*
X78096324Y-101275139D01*
X78065040Y-101300684D01*
X77811731Y-101275139D01*
X77778338Y-101210938D01*
X77954027Y-101132842D01*
X78067025Y-101148246D01*
G37*
G36*
X79234700Y-104974859D02*
G01*
X79219296Y-105087856D01*
X79092403Y-105117156D01*
X79066858Y-105085872D01*
X79092403Y-104832562D01*
X79156603Y-104799169D01*
X79234700Y-104974859D01*
G37*
G36*
X86491842Y-107749649D02*
G01*
X86476439Y-107862646D01*
X86349546Y-107891946D01*
X86324000Y-107860663D01*
X86349546Y-107607352D01*
X86413746Y-107573959D01*
X86491842Y-107749649D01*
G37*
G36*
X89480078Y-107963094D02*
G01*
X89464674Y-108076092D01*
X89337781Y-108105391D01*
X89312236Y-108074107D01*
X89337781Y-107820797D01*
X89401982Y-107787405D01*
X89480078Y-107963094D01*
G37*
G36*
X87985961Y-108389985D02*
G01*
X87970555Y-108502982D01*
X87843663Y-108532282D01*
X87818117Y-108500998D01*
X87843663Y-108247688D01*
X87907864Y-108214295D01*
X87985961Y-108389985D01*
G37*
G36*
X76234911Y-94733656D02*
G01*
X76450476Y-94834482D01*
X76261213Y-95040534D01*
X76184251Y-95069538D01*
X75928449Y-94946408D01*
X75907306Y-94834497D01*
X76127145Y-94729481D01*
X76234911Y-94733656D01*
G37*
G36*
X77337103Y-102444088D02*
G01*
X77456552Y-102639135D01*
X77482694Y-102786117D01*
X77208194Y-102704618D01*
X77065497Y-102613499D01*
X77021430Y-102368361D01*
X77117805Y-102289166D01*
X77337103Y-102444088D01*
G37*
G36*
X79505064Y-105428236D02*
G01*
X79348124Y-105550031D01*
X79122329Y-105573973D01*
X79124206Y-105477840D01*
X79385578Y-105308750D01*
X79426073Y-105293555D01*
X79639949Y-105248771D01*
X79505064Y-105428236D01*
G37*
G36*
X87099200Y-107622544D02*
G01*
X87194018Y-107688433D01*
X87345624Y-107868968D01*
X87343546Y-107898808D01*
X87219991Y-107945813D01*
X87005074Y-107716670D01*
X86953140Y-107597387D01*
X87099200Y-107622544D01*
G37*
G36*
X74816223Y-94666567D02*
G01*
X74965792Y-94848800D01*
X74960243Y-94870102D01*
X74752347Y-94942926D01*
X74693844Y-94934240D01*
X74538901Y-94716885D01*
X74555660Y-94639681D01*
X74752347Y-94622758D01*
X74816223Y-94666567D01*
G37*
G36*
X73685120Y-95024455D02*
G01*
X73675515Y-95061982D01*
X73471675Y-95263094D01*
X73396104Y-95302851D01*
X73258229Y-95288288D01*
X73267834Y-95250760D01*
X73471675Y-95049649D01*
X73547245Y-95009892D01*
X73685120Y-95024455D01*
G37*
G36*
X74146508Y-95619482D02*
G01*
X74325456Y-95776725D01*
X74238921Y-95870524D01*
X73898566Y-95858553D01*
X73647667Y-95777212D01*
X73471675Y-95665091D01*
X73551115Y-95617693D01*
X73898565Y-95583262D01*
X74146508Y-95619482D01*
G37*
G36*
X74965792Y-95771514D02*
G01*
X74957823Y-95834123D01*
X74752347Y-96116876D01*
X74670412Y-96151070D01*
X74538901Y-96035347D01*
X74546870Y-95972739D01*
X74752347Y-95689985D01*
X74834282Y-95655791D01*
X74965792Y-95771514D01*
G37*
G36*
X77954027Y-102068153D02*
G01*
X77944423Y-102105680D01*
X77740581Y-102306792D01*
X77665011Y-102346548D01*
X77527137Y-102331986D01*
X77536741Y-102294459D01*
X77740582Y-102093345D01*
X77816153Y-102053590D01*
X77954027Y-102068153D01*
G37*
G36*
X79725467Y-104698500D02*
G01*
X79875036Y-104880733D01*
X79869486Y-104902035D01*
X79661590Y-104974859D01*
X79603088Y-104966173D01*
X79448145Y-104748817D01*
X79464904Y-104671614D01*
X79661590Y-104654691D01*
X79725467Y-104698500D01*
G37*
G36*
X85079349Y-105020183D02*
G01*
X85074912Y-105295027D01*
X85005797Y-105448290D01*
X84868166Y-105615195D01*
X84829946Y-105579808D01*
X84784280Y-105295027D01*
X84807570Y-105147843D01*
X84991026Y-104974859D01*
X85079349Y-105020183D01*
G37*
G36*
X83178459Y-105651263D02*
G01*
X83290162Y-105935363D01*
X83280890Y-106081235D01*
X83206275Y-106255531D01*
X83151029Y-106216207D01*
X82999529Y-105935363D01*
X82965975Y-105771652D01*
X83083415Y-105615195D01*
X83178459Y-105651263D01*
G37*
G36*
X88412851Y-107190842D02*
G01*
X88403247Y-107228370D01*
X88199406Y-107429481D01*
X88123835Y-107469239D01*
X87985961Y-107454675D01*
X87995565Y-107417147D01*
X88199406Y-107216035D01*
X88274976Y-107176279D01*
X88412851Y-107190842D01*
G37*
G36*
X87857505Y-110433656D02*
G01*
X87742992Y-110666736D01*
X87598023Y-110802645D01*
X87266129Y-110934479D01*
X87168358Y-110911497D01*
X87293593Y-110809525D01*
X87397196Y-110749133D01*
X87463066Y-110541783D01*
X87453064Y-110466590D01*
X87671793Y-110382142D01*
X87857505Y-110433656D01*
G37*
G36*
X76768837Y-99262933D02*
G01*
X77014400Y-99444336D01*
X76938264Y-99585996D01*
X76837350Y-99641414D01*
X76791345Y-99870400D01*
X76814291Y-99959086D01*
X76621918Y-100065615D01*
X76434472Y-99948450D01*
X76331843Y-99547338D01*
X76338732Y-99339182D01*
X76444494Y-99143251D01*
X76768837Y-99262933D01*
G37*
G36*
X76993522Y-100919397D02*
G01*
X77168061Y-101147114D01*
X77284624Y-101639229D01*
X77268495Y-101861905D01*
X77234994Y-101943420D01*
X77163056Y-101613094D01*
X77061790Y-101313702D01*
X76871955Y-101132842D01*
X76811019Y-101121237D01*
X76673355Y-100893262D01*
X76728304Y-100776526D01*
X76993522Y-100919397D01*
G37*
G36*
X74876150Y-93875835D02*
G01*
X74864372Y-94020583D01*
X74627620Y-94355951D01*
X74334495Y-94711346D01*
X74181847Y-94910938D01*
X74148184Y-94928413D01*
X73905614Y-94840560D01*
X73880155Y-94815804D01*
X73934905Y-94587768D01*
X74200154Y-94273623D01*
X74553479Y-93995542D01*
X74872456Y-93875699D01*
X74876150Y-93875835D01*
G37*
G36*
X94599499Y-99356267D02*
G01*
X94586834Y-99467370D01*
X94310971Y-99909515D01*
X93780958Y-100166180D01*
X93504163Y-100177837D01*
X93437865Y-100050976D01*
X93493091Y-99989485D01*
X93778010Y-99976831D01*
X93890293Y-99981746D01*
X93923345Y-99721243D01*
X93939340Y-99493614D01*
X94229238Y-99257282D01*
X94432243Y-99244035D01*
X94599499Y-99356267D01*
G37*
G36*
X77794672Y-100123672D02*
G01*
X78036406Y-100399311D01*
X78129270Y-100556492D01*
X78343836Y-100622146D01*
X78423838Y-100603048D01*
X78523215Y-100798559D01*
X78515501Y-100876759D01*
X78356460Y-100983729D01*
X77918453Y-100875012D01*
X77494164Y-100640576D01*
X77313691Y-100364903D01*
X77317993Y-100305776D01*
X77493956Y-100089577D01*
X77794672Y-100123672D01*
G37*
G36*
X76386595Y-100979669D02*
G01*
X76358244Y-101216779D01*
X76236978Y-101766457D01*
X76085928Y-101949709D01*
X75923575Y-101736333D01*
X75919256Y-101723995D01*
X75939645Y-101320557D01*
X75971851Y-101235275D01*
X76078622Y-101235275D01*
X76104168Y-101488585D01*
X76168368Y-101521977D01*
X76246464Y-101346289D01*
X76231061Y-101233290D01*
X76104168Y-101203991D01*
X76078622Y-101235275D01*
X75971851Y-101235275D01*
X76104168Y-100884894D01*
X76136741Y-100798640D01*
X76469399Y-100172338D01*
X76386595Y-100979669D01*
G37*
G36*
X88589422Y-111289519D02*
G01*
X88789460Y-111663007D01*
X88772616Y-111796779D01*
X88492520Y-111717542D01*
X88250455Y-111688885D01*
X87817473Y-111854790D01*
X87538408Y-112017674D01*
X87399406Y-111857143D01*
X87343320Y-111755726D01*
X87113948Y-111709655D01*
X87013650Y-111723786D01*
X86918733Y-111495731D01*
X86921993Y-111407598D01*
X87021021Y-111271570D01*
X87340329Y-111424448D01*
X87431648Y-111478917D01*
X87766686Y-111557384D01*
X88057005Y-111284194D01*
X88220022Y-111072370D01*
X88391505Y-111005034D01*
X88589422Y-111289519D01*
G37*
G36*
X73685028Y-96365453D02*
G01*
X73863623Y-96673149D01*
X74258473Y-97052660D01*
X74446284Y-97199148D01*
X74372001Y-97284336D01*
X74289193Y-97296745D01*
X74229714Y-97458961D01*
X74416816Y-97877800D01*
X74537401Y-98100411D01*
X74705774Y-98437532D01*
X74705464Y-98556858D01*
X74559782Y-98571498D01*
X74473660Y-98525034D01*
X74281366Y-98235520D01*
X74107906Y-97821793D01*
X74016345Y-97449509D01*
X74069753Y-97284335D01*
X74083001Y-97235449D01*
X73845204Y-97060283D01*
X73629773Y-96844445D01*
X73485204Y-96373076D01*
X73498734Y-95903430D01*
X73685028Y-96365453D01*
G37*
G36*
X76645786Y-92722382D02*
G01*
X77206969Y-92971756D01*
X77361343Y-93040357D01*
X77374875Y-93049192D01*
X77627533Y-93214175D01*
X77741021Y-93288281D01*
X78004372Y-93460246D01*
X78710680Y-94152434D01*
X79529811Y-95172167D01*
X79799420Y-95533576D01*
X80435867Y-96369545D01*
X80622095Y-96591448D01*
X80872207Y-96889473D01*
X81089305Y-97068578D01*
X81146071Y-97115409D01*
X81295096Y-97069399D01*
X81315723Y-96970657D01*
X81582599Y-96970657D01*
X81689322Y-97077380D01*
X81796044Y-96970657D01*
X81689322Y-96863935D01*
X81582599Y-96970657D01*
X81315723Y-96970657D01*
X81356911Y-96773492D01*
X81369154Y-96249734D01*
X81382874Y-95841365D01*
X81451240Y-95348640D01*
X81557704Y-95156372D01*
X81607228Y-95168036D01*
X81689322Y-95283933D01*
X81802431Y-95443616D01*
X81947637Y-95992695D01*
X82006575Y-96691254D01*
X82060926Y-97162418D01*
X82260396Y-97354385D01*
X82623339Y-97171081D01*
X82793667Y-96995852D01*
X83290162Y-96995852D01*
X83304059Y-97025048D01*
X83503607Y-96970657D01*
X83566791Y-96926805D01*
X83717053Y-96732018D01*
X83703155Y-96702822D01*
X83503607Y-96757212D01*
X83440423Y-96801064D01*
X83290162Y-96995852D01*
X82793667Y-96995852D01*
X83167478Y-96611285D01*
X83281344Y-96481999D01*
X83311720Y-96447510D01*
X83703155Y-96079998D01*
X83806721Y-95982762D01*
X84099994Y-95869755D01*
X84175143Y-96080445D01*
X84015779Y-96586784D01*
X83605509Y-97360727D01*
X83307973Y-97875933D01*
X82954541Y-98623669D01*
X82882431Y-99066185D01*
X83089313Y-99211834D01*
X83161087Y-99224660D01*
X83192554Y-99410530D01*
X83164233Y-99508238D01*
X83319659Y-99763678D01*
X83449771Y-99817897D01*
X83404585Y-99651185D01*
X83364849Y-99478370D01*
X83638413Y-99461613D01*
X83858779Y-99568917D01*
X84038824Y-99925343D01*
X84049266Y-99999287D01*
X84325560Y-100372624D01*
X84910823Y-100781856D01*
X85104448Y-100879211D01*
X85715613Y-101186504D01*
X86650485Y-101546089D01*
X87625996Y-101820133D01*
X87879238Y-101860583D01*
X88478524Y-101956307D01*
X88552702Y-101968155D01*
X88593516Y-101971447D01*
X89349576Y-102008296D01*
X89645418Y-101992879D01*
X89829740Y-101983274D01*
X89960273Y-101899949D01*
X89950160Y-101866811D01*
X90060358Y-101824160D01*
X90136584Y-101794656D01*
X90440582Y-101818468D01*
X90613899Y-101832042D01*
X90741912Y-101852359D01*
X91193361Y-101879381D01*
X91404511Y-101703430D01*
X91443459Y-101548297D01*
X91759968Y-101548297D01*
X91794503Y-101848920D01*
X92054019Y-101871501D01*
X92075387Y-101873360D01*
X92299755Y-101818109D01*
X92682561Y-101665960D01*
X92788708Y-101584358D01*
X92868054Y-101295510D01*
X92557579Y-101048956D01*
X92209176Y-100942142D01*
X91922692Y-101021019D01*
X91779300Y-101434368D01*
X91759968Y-101548297D01*
X91443459Y-101548297D01*
X91524621Y-101225019D01*
X91537526Y-101161565D01*
X91719673Y-100682682D01*
X91721254Y-100681422D01*
X91958454Y-100492506D01*
X92096213Y-100455590D01*
X92209176Y-100253913D01*
X92254868Y-100172339D01*
X92201565Y-99953656D01*
X91982540Y-99869396D01*
X91755892Y-100118977D01*
X91711546Y-100134619D01*
X91658816Y-99855198D01*
X91631383Y-99298276D01*
X91640496Y-98891666D01*
X91827977Y-98891666D01*
X91867649Y-99242302D01*
X91988061Y-99425128D01*
X92100739Y-99293207D01*
X92178928Y-98891515D01*
X92151565Y-98539809D01*
X92018843Y-98358052D01*
X91893360Y-98490420D01*
X91827977Y-98891666D01*
X91640496Y-98891666D01*
X91643207Y-98770717D01*
X91763572Y-98204778D01*
X91885688Y-98037884D01*
X92041422Y-98037884D01*
X92148145Y-98144607D01*
X92254868Y-98037884D01*
X92148145Y-97931162D01*
X92041422Y-98037884D01*
X91885688Y-98037884D01*
X92018843Y-97855903D01*
X92042731Y-97823256D01*
X92121537Y-97756019D01*
X92148145Y-97741825D01*
X92476316Y-97566756D01*
X92654840Y-97640957D01*
X92560762Y-97954257D01*
X92492445Y-98158342D01*
X92440078Y-98708217D01*
X92449037Y-99408125D01*
X92510170Y-100114012D01*
X92614315Y-100681828D01*
X92752315Y-100967520D01*
X92960832Y-101078200D01*
X93243399Y-101097456D01*
X93258558Y-100848248D01*
X93237532Y-100714854D01*
X93406239Y-100563654D01*
X93425845Y-100565511D01*
X93510675Y-100741010D01*
X93444176Y-101230874D01*
X93221401Y-102075559D01*
X92858380Y-103078875D01*
X92356050Y-103978738D01*
X91800028Y-104557024D01*
X91229123Y-104761414D01*
X90953115Y-104799660D01*
X90654027Y-104974859D01*
X90605249Y-105042158D01*
X90298133Y-105203034D01*
X90024105Y-105098842D01*
X89963832Y-104780466D01*
X89963791Y-104520004D01*
X89816373Y-104397978D01*
X90467130Y-104397978D01*
X90493943Y-104475884D01*
X90590560Y-104504075D01*
X91027557Y-104475884D01*
X91063764Y-104401768D01*
X90760750Y-104368225D01*
X90467130Y-104397978D01*
X89816373Y-104397978D01*
X89723320Y-104320953D01*
X89147150Y-104140130D01*
X88653745Y-104020870D01*
X87998969Y-103908419D01*
X87639791Y-103961318D01*
X87503791Y-104202449D01*
X87518559Y-104654691D01*
X87550875Y-104875489D01*
X87711371Y-105286103D01*
X88017816Y-105401750D01*
X88494228Y-105500158D01*
X89187119Y-105795623D01*
X89876560Y-106200428D01*
X90388860Y-106624967D01*
X90468245Y-106719655D01*
X90827434Y-107245129D01*
X91180775Y-107874989D01*
X91292590Y-108096669D01*
X91294364Y-108099775D01*
X91494346Y-108449934D01*
X91582720Y-108459881D01*
X91606027Y-108158753D01*
X91645684Y-107767074D01*
X91756647Y-107465236D01*
X91802638Y-107370179D01*
X91884881Y-106936080D01*
X91932464Y-106309074D01*
X91951812Y-105784183D01*
X91994635Y-105116378D01*
X92065563Y-104744169D01*
X92185973Y-104582911D01*
X92377241Y-104547968D01*
X92561818Y-104604216D01*
X92631371Y-104921498D01*
X92556117Y-105116019D01*
X92348914Y-105258944D01*
X92296356Y-105318725D01*
X92231850Y-105720714D01*
X92203299Y-106444348D01*
X92214785Y-107423777D01*
X92281425Y-109624690D01*
X92902892Y-109314661D01*
X93456642Y-109090121D01*
X93956840Y-108972055D01*
X94209344Y-108921209D01*
X94389322Y-108771454D01*
X94395215Y-108732287D01*
X94602767Y-108603430D01*
X94801917Y-108669486D01*
X94815290Y-108894253D01*
X94603213Y-109160137D01*
X94229238Y-109341554D01*
X93563876Y-109593465D01*
X92909026Y-110204289D01*
X92480631Y-111161926D01*
X92337525Y-111568372D01*
X91716865Y-112534896D01*
X90731595Y-113342768D01*
X89358688Y-114013017D01*
X89167421Y-114086557D01*
X88472338Y-114334883D01*
X88016992Y-114434619D01*
X87674863Y-114400232D01*
X87319429Y-114246187D01*
X86913263Y-113978162D01*
X86842434Y-113832842D01*
X86918733Y-113832842D01*
X87025456Y-113939565D01*
X87132179Y-113832842D01*
X87025456Y-113726119D01*
X86918733Y-113832842D01*
X86842434Y-113832842D01*
X86738400Y-113619397D01*
X87772515Y-113619397D01*
X87879238Y-113726119D01*
X87985960Y-113619397D01*
X87879238Y-113512674D01*
X87772515Y-113619397D01*
X86738400Y-113619397D01*
X86723691Y-113589218D01*
X86863285Y-113217700D01*
X87132179Y-113217700D01*
X87146076Y-113246896D01*
X87345624Y-113192506D01*
X87408808Y-113148655D01*
X87559069Y-112953867D01*
X87545172Y-112924670D01*
X87345624Y-112979061D01*
X87282440Y-113022913D01*
X87132179Y-113217700D01*
X86863285Y-113217700D01*
X86910735Y-113091417D01*
X86990909Y-112900907D01*
X86854105Y-112592649D01*
X86826650Y-112552170D01*
X87772515Y-112552170D01*
X87879238Y-112658893D01*
X87985960Y-112552170D01*
X87879238Y-112445447D01*
X87772515Y-112552170D01*
X86826650Y-112552170D01*
X86781573Y-112485711D01*
X87025456Y-112506666D01*
X87065032Y-112510067D01*
X87365054Y-112519703D01*
X87545172Y-112388229D01*
X87645308Y-112315137D01*
X87666888Y-112269834D01*
X87879238Y-112126259D01*
X87984212Y-112055284D01*
X88421951Y-112050246D01*
X88753400Y-112264981D01*
X88804273Y-112378589D01*
X88674024Y-112368222D01*
X88576221Y-112328992D01*
X88317395Y-112427218D01*
X88287835Y-112523503D01*
X88437475Y-112780834D01*
X88635206Y-112790730D01*
X88912933Y-112528776D01*
X89008171Y-112338725D01*
X89480078Y-112338725D01*
X89586801Y-112445447D01*
X89693523Y-112338724D01*
X89586801Y-112232002D01*
X89480078Y-112338725D01*
X89008171Y-112338725D01*
X89087915Y-112179594D01*
X89130299Y-111911834D01*
X89693523Y-111911834D01*
X89800246Y-112018556D01*
X89906969Y-111911834D01*
X89800246Y-111805111D01*
X89693523Y-111911834D01*
X89130299Y-111911834D01*
X89162258Y-111709938D01*
X88923577Y-111359225D01*
X88814286Y-111219059D01*
X88812447Y-111058052D01*
X89053187Y-111058052D01*
X89159910Y-111164775D01*
X89266633Y-111058052D01*
X89906969Y-111058052D01*
X90013691Y-111164775D01*
X90120414Y-111058052D01*
X90116124Y-111053762D01*
X90592908Y-111053762D01*
X90618453Y-111307072D01*
X90682654Y-111340465D01*
X90760750Y-111164775D01*
X90745346Y-111051778D01*
X90618453Y-111022478D01*
X90592908Y-111053762D01*
X90116124Y-111053762D01*
X90013691Y-110951329D01*
X89906969Y-111058052D01*
X89266633Y-111058052D01*
X89159910Y-110951330D01*
X89053187Y-111058052D01*
X88812447Y-111058052D01*
X88810547Y-110891645D01*
X89021690Y-110653934D01*
X89159910Y-110662742D01*
X89344179Y-110674484D01*
X89451144Y-110703782D01*
X89321846Y-110492411D01*
X89195775Y-110279885D01*
X89197336Y-110024548D01*
X89232277Y-109969779D01*
X89088761Y-109884103D01*
X88978459Y-109916123D01*
X88839742Y-110191674D01*
X88820646Y-110321722D01*
X88592674Y-110651941D01*
X88439427Y-110664881D01*
X88466045Y-110344076D01*
X88508078Y-110071445D01*
X88436116Y-109976447D01*
X88319723Y-109996504D01*
X87975769Y-109873286D01*
X87950167Y-109856987D01*
X87776395Y-109703560D01*
X87985960Y-109649347D01*
X88182346Y-109641222D01*
X88702990Y-109663448D01*
X88910835Y-109648263D01*
X88971022Y-109496947D01*
X88949842Y-109375160D01*
X89161136Y-109166109D01*
X89392572Y-109172729D01*
X89486866Y-109517272D01*
X89551519Y-109876629D01*
X89586801Y-109949608D01*
X89800246Y-110391109D01*
X89807034Y-110405150D01*
X90013691Y-110616332D01*
X90017970Y-110620706D01*
X90120414Y-110577831D01*
X90112813Y-110509322D01*
X89906969Y-110204271D01*
X91187641Y-110204271D01*
X91294364Y-110310993D01*
X91401085Y-110204271D01*
X91294364Y-110097548D01*
X91187641Y-110204271D01*
X89906969Y-110204271D01*
X89877730Y-110180826D01*
X89804093Y-109996473D01*
X90161635Y-109996473D01*
X90257769Y-109994597D01*
X90426858Y-109733224D01*
X90442054Y-109692730D01*
X90486837Y-109478853D01*
X90307373Y-109613739D01*
X90185579Y-109770679D01*
X90161635Y-109996473D01*
X89804093Y-109996473D01*
X89740547Y-109837382D01*
X89702352Y-109350489D01*
X89906969Y-109350489D01*
X90013691Y-109457211D01*
X90120414Y-109350488D01*
X90013691Y-109243767D01*
X89906969Y-109350489D01*
X89702352Y-109350489D01*
X89699094Y-109308953D01*
X89753657Y-108795810D01*
X89904524Y-108498219D01*
X90010391Y-108490813D01*
X89991112Y-108752429D01*
X89985403Y-108770183D01*
X89938669Y-108993342D01*
X90013691Y-108911400D01*
X90076415Y-108842890D01*
X90216876Y-108714336D01*
X90486837Y-108714175D01*
X90576802Y-108714121D01*
X90618453Y-108731739D01*
X90754374Y-108789234D01*
X90617346Y-108608733D01*
X90512278Y-108433047D01*
X90497225Y-107990446D01*
X90537894Y-107874626D01*
X90523313Y-107755690D01*
X90261942Y-107940149D01*
X90009031Y-108093371D01*
X89759514Y-108100233D01*
X89726043Y-108045702D01*
X89876315Y-107963094D01*
X89980500Y-107834542D01*
X89778123Y-107425671D01*
X89549149Y-107106283D01*
X89362337Y-107033107D01*
X89143481Y-107265587D01*
X89002798Y-107444215D01*
X88915932Y-107464626D01*
X88975596Y-107109313D01*
X89007945Y-106947487D01*
X89010020Y-106741684D01*
X88861526Y-106895867D01*
X88764656Y-107007136D01*
X88608139Y-107000247D01*
X88598459Y-106636742D01*
X88552655Y-106575444D01*
X88268553Y-106619653D01*
X88088729Y-106661518D01*
X88037287Y-106558611D01*
X88042876Y-106513629D01*
X87818798Y-106405501D01*
X87325242Y-106362254D01*
X87152287Y-106365744D01*
X86681024Y-106421068D01*
X86491843Y-106522338D01*
X86419959Y-106612658D01*
X86082360Y-106682422D01*
X85886493Y-106722996D01*
X85455718Y-107055670D01*
X85097771Y-107606064D01*
X84891794Y-108231189D01*
X84916930Y-108788053D01*
X85011703Y-109010873D01*
X85300274Y-109282287D01*
X85838859Y-109350489D01*
X85903182Y-109349449D01*
X86399936Y-109264105D01*
X86651927Y-109083682D01*
X86634477Y-108932034D01*
X86349546Y-108820144D01*
X86294697Y-108820959D01*
X86087429Y-108866243D01*
X86278397Y-109030321D01*
X86376169Y-109102672D01*
X86359082Y-109203776D01*
X85958229Y-109223647D01*
X85907512Y-109222204D01*
X85574812Y-109179134D01*
X85584700Y-109102406D01*
X85755612Y-108909993D01*
X85851506Y-108466324D01*
X85904964Y-108142685D01*
X86068434Y-108071969D01*
X86140488Y-108141010D01*
X86142177Y-108437713D01*
X86099323Y-108534993D01*
X86230669Y-108526206D01*
X86329592Y-108488016D01*
X86596414Y-108599949D01*
X86868620Y-108801617D01*
X87192284Y-108750550D01*
X87345624Y-108455912D01*
X87348474Y-108315307D01*
X87409141Y-108216120D01*
X87618062Y-108467528D01*
X87722614Y-108572751D01*
X88097409Y-108705985D01*
X88462262Y-108639039D01*
X88626297Y-108387131D01*
X88712391Y-108307193D01*
X89053187Y-108328139D01*
X89302278Y-108431327D01*
X89480078Y-108640922D01*
X89463937Y-108707473D01*
X89266633Y-108710153D01*
X89184348Y-108676348D01*
X89053187Y-108797580D01*
X88993330Y-108896096D01*
X88698004Y-108880627D01*
X88478134Y-108834301D01*
X88505979Y-109008324D01*
X88547364Y-109174680D01*
X88286030Y-109204681D01*
X88011459Y-109247125D01*
X87677635Y-109563935D01*
X87407512Y-109854822D01*
X86865372Y-109923286D01*
X86580845Y-109902451D01*
X86372510Y-109986875D01*
X86291848Y-110292404D01*
X86278397Y-110921906D01*
X86277185Y-111032119D01*
X86142509Y-111921214D01*
X85794155Y-112470806D01*
X85245210Y-112658893D01*
X85192475Y-112651011D01*
X84805135Y-112462992D01*
X84227634Y-112075577D01*
X83563973Y-111556932D01*
X82943243Y-111019050D01*
X82548432Y-110608588D01*
X82400339Y-110317477D01*
X82443854Y-110094675D01*
X82639471Y-110094675D01*
X82791084Y-110386884D01*
X83112619Y-110633909D01*
X83423764Y-110835483D01*
X83806316Y-111271497D01*
X84209954Y-111811310D01*
X84708082Y-112015288D01*
X84836208Y-111979581D01*
X85074912Y-111698388D01*
X85112835Y-111465153D01*
X84948067Y-111398989D01*
X84613524Y-111634355D01*
X84496997Y-111730899D01*
X84367651Y-111717213D01*
X84410993Y-111491769D01*
X84624196Y-111176150D01*
X84634651Y-111164863D01*
X84784235Y-110975333D01*
X84624196Y-111039337D01*
X84497336Y-111083213D01*
X84357389Y-110960788D01*
X84328607Y-110885627D01*
X84053812Y-110604959D01*
X83609163Y-110275136D01*
X83144562Y-110000377D01*
X83116880Y-109990825D01*
X83717053Y-109990825D01*
X83823775Y-110097548D01*
X83930498Y-109990825D01*
X84143943Y-109990825D01*
X84250666Y-110097547D01*
X84357389Y-109990825D01*
X84250666Y-109884103D01*
X84143943Y-109990825D01*
X83930498Y-109990825D01*
X83823774Y-109884103D01*
X83717053Y-109990825D01*
X83116880Y-109990825D01*
X82809910Y-109884901D01*
X82716273Y-109902021D01*
X82639471Y-110094675D01*
X82443854Y-110094675D01*
X82447265Y-110077210D01*
X82511038Y-109915638D01*
X82435479Y-109613234D01*
X82379128Y-109563935D01*
X83076718Y-109563935D01*
X83183439Y-109670656D01*
X83290162Y-109563935D01*
X83183439Y-109457212D01*
X83076718Y-109563935D01*
X82379128Y-109563935D01*
X82029210Y-109257809D01*
X81967369Y-109213774D01*
X83575590Y-109213774D01*
X83808941Y-109374332D01*
X83823775Y-109378742D01*
X84057881Y-109448347D01*
X84245179Y-109358472D01*
X84160460Y-108956266D01*
X84113231Y-108833703D01*
X83998159Y-108710152D01*
X84357389Y-108710152D01*
X84464113Y-108816876D01*
X84570834Y-108710153D01*
X84464112Y-108603429D01*
X84357389Y-108710152D01*
X83998159Y-108710152D01*
X83971177Y-108681182D01*
X83736323Y-108900380D01*
X83695259Y-108950967D01*
X83575590Y-109213774D01*
X81967369Y-109213774D01*
X81408984Y-108816169D01*
X81655875Y-109348470D01*
X81865903Y-109709761D01*
X82062851Y-109882437D01*
X82099845Y-109888613D01*
X82222935Y-110097548D01*
X82176992Y-110282954D01*
X81949083Y-110264225D01*
X81554575Y-109907629D01*
X81020691Y-109232746D01*
X80532658Y-108652109D01*
X79762594Y-107910410D01*
X79421900Y-107642926D01*
X80515372Y-107642926D01*
X80622095Y-107749649D01*
X80662981Y-107708763D01*
X81487904Y-107708763D01*
X81721030Y-108074007D01*
X82125396Y-108429375D01*
X82582680Y-108650855D01*
X82809910Y-108668997D01*
X82884067Y-108674919D01*
X83167209Y-108462034D01*
X83183439Y-108390867D01*
X83199781Y-108319209D01*
X83089020Y-108275658D01*
X83011892Y-108304192D01*
X82757689Y-108178384D01*
X82729668Y-108013031D01*
X82923924Y-107671442D01*
X83320108Y-107364424D01*
X83792463Y-107209703D01*
X83971177Y-107155420D01*
X84067901Y-107126041D01*
X84221021Y-106820107D01*
X84244702Y-106640288D01*
X84250666Y-106635650D01*
X84464112Y-106469661D01*
X84464991Y-106468977D01*
X84605951Y-106432245D01*
X84861467Y-106148809D01*
X85070061Y-105941687D01*
X85524638Y-105828640D01*
X85882165Y-105771720D01*
X86064952Y-105602598D01*
X86034279Y-105513537D01*
X85798145Y-105514398D01*
X85771268Y-105527301D01*
X85771405Y-105477239D01*
X86047104Y-105232482D01*
X86562871Y-104812724D01*
X86097366Y-104664979D01*
X85827697Y-104527294D01*
X85748520Y-104328478D01*
X85840150Y-104254051D01*
X86178510Y-104259957D01*
X86331937Y-104305073D01*
X86491843Y-104273473D01*
X86476415Y-104231391D01*
X86209651Y-104060302D01*
X85744784Y-103922211D01*
X85570751Y-104013096D01*
X85376471Y-104375287D01*
X85298885Y-104602069D01*
X85255697Y-104607287D01*
X85280512Y-104212798D01*
X85288816Y-104092827D01*
X85206400Y-103613317D01*
X85049488Y-103487307D01*
X88979095Y-103487307D01*
X88986664Y-103656367D01*
X89297802Y-103586921D01*
X89487684Y-103421696D01*
X89604090Y-103091471D01*
X89954515Y-103091471D01*
X90130926Y-103228312D01*
X90266449Y-103279825D01*
X90707389Y-103535536D01*
X90760750Y-103576093D01*
X90762123Y-103577137D01*
X90956583Y-103660580D01*
X90909554Y-103499185D01*
X90636820Y-103173858D01*
X90617370Y-103160573D01*
X91614532Y-103160573D01*
X91721253Y-103267296D01*
X91827977Y-103160573D01*
X91721254Y-103053851D01*
X91614532Y-103160573D01*
X90617370Y-103160573D01*
X90380167Y-102998559D01*
X90060358Y-102984245D01*
X89954515Y-103091471D01*
X89604090Y-103091471D01*
X89638124Y-102994921D01*
X89638939Y-102983719D01*
X89645418Y-102683360D01*
X89548012Y-102701836D01*
X89270834Y-103050662D01*
X88979095Y-103487307D01*
X85049488Y-103487307D01*
X84848143Y-103325614D01*
X84829370Y-103316801D01*
X84502341Y-103202037D01*
X84498864Y-103323527D01*
X84526583Y-103444954D01*
X84285681Y-103416990D01*
X84066374Y-103380806D01*
X83930498Y-103594163D01*
X83951230Y-103734921D01*
X84123961Y-103907632D01*
X84218532Y-104010172D01*
X84197061Y-104367900D01*
X84163509Y-104643758D01*
X84287825Y-104697684D01*
X84330607Y-104685043D01*
X84449820Y-104881919D01*
X84489259Y-105406041D01*
X84486992Y-105494788D01*
X84392919Y-106072851D01*
X84191504Y-106355421D01*
X84073953Y-106430545D01*
X84036289Y-106680914D01*
X84071308Y-106763870D01*
X83960552Y-106895867D01*
X83804154Y-106915516D01*
X83379327Y-107038863D01*
X83139828Y-107090023D01*
X83172115Y-106914190D01*
X83188672Y-106727384D01*
X82852921Y-106717833D01*
X82542751Y-106841868D01*
X82314354Y-107163691D01*
X82318909Y-107354204D01*
X82458599Y-107415749D01*
X82511720Y-107370574D01*
X82533988Y-107094564D01*
X82504635Y-107025291D01*
X82624632Y-106895867D01*
X82898997Y-106990682D01*
X82934398Y-107267085D01*
X82654755Y-107594104D01*
X82412410Y-107834541D01*
X82384377Y-108069821D01*
X82427770Y-108137265D01*
X82276296Y-108091441D01*
X82173214Y-108008101D01*
X82009490Y-107630329D01*
X81979923Y-107474052D01*
X81760318Y-107326564D01*
X81492904Y-107508653D01*
X81487904Y-107708763D01*
X80662981Y-107708763D01*
X80728817Y-107642926D01*
X80622095Y-107536203D01*
X80515372Y-107642926D01*
X79421900Y-107642926D01*
X78968295Y-107286794D01*
X78813615Y-107180995D01*
X78275211Y-106783247D01*
X77866170Y-106390913D01*
X77689279Y-106148809D01*
X78380918Y-106148809D01*
X78487641Y-106255531D01*
X78594364Y-106148809D01*
X78487641Y-106042086D01*
X78380918Y-106148809D01*
X77689279Y-106148809D01*
X77511124Y-105904976D01*
X77172764Y-105295027D01*
X77740582Y-105295027D01*
X77847305Y-105401750D01*
X77954027Y-105295027D01*
X77847305Y-105188304D01*
X77740582Y-105295027D01*
X77172764Y-105295027D01*
X77134704Y-105226418D01*
X76855875Y-104654691D01*
X77527137Y-104654691D01*
X77633859Y-104761414D01*
X77740582Y-104654691D01*
X77633859Y-104547968D01*
X77527137Y-104654691D01*
X76855875Y-104654691D01*
X76661542Y-104256218D01*
X76320444Y-103514951D01*
X75866665Y-102460202D01*
X75445536Y-101411553D01*
X75085360Y-100445736D01*
X74814439Y-99639481D01*
X74665819Y-99087136D01*
X74869433Y-99087136D01*
X74884351Y-99307471D01*
X74958267Y-99471297D01*
X75095352Y-99638724D01*
X75174869Y-99579567D01*
X75145175Y-99334916D01*
X74968237Y-99106623D01*
X74869433Y-99087136D01*
X74665819Y-99087136D01*
X74661077Y-99069514D01*
X74653576Y-98812567D01*
X74826895Y-98776643D01*
X74869433Y-98813252D01*
X75071048Y-98986768D01*
X75248018Y-99350222D01*
X75259991Y-99720547D01*
X75210807Y-99885437D01*
X75219484Y-100048685D01*
X75468617Y-99877723D01*
X75692442Y-99738276D01*
X75819574Y-99813438D01*
X75811785Y-99878911D01*
X75606128Y-100172339D01*
X75548445Y-100215957D01*
X75392683Y-100517700D01*
X75401437Y-100577449D01*
X75575295Y-100618285D01*
X75672122Y-100682367D01*
X75656900Y-101033805D01*
X75635965Y-101360443D01*
X75768850Y-101814667D01*
X76044361Y-102050184D01*
X76381507Y-101963120D01*
X76449123Y-101910627D01*
X76628401Y-101886230D01*
X76676624Y-102227296D01*
X76758232Y-102782294D01*
X77020226Y-103163659D01*
X77412829Y-103193019D01*
X77633859Y-103170315D01*
X77665313Y-103167084D01*
X77645833Y-103443015D01*
X77672736Y-103812664D01*
X77847305Y-104049047D01*
X78052188Y-104326478D01*
X78103867Y-104376694D01*
X78399256Y-104764029D01*
X78448084Y-105038864D01*
X78412667Y-105127621D01*
X78561384Y-105101964D01*
X78720261Y-105035668D01*
X78808196Y-105129642D01*
X78702347Y-105367596D01*
X78434280Y-105620705D01*
X78284793Y-105717963D01*
X78177774Y-105813492D01*
X78432104Y-105745568D01*
X78487641Y-105750279D01*
X78738732Y-105771578D01*
X78935495Y-106156341D01*
X79103985Y-106497763D01*
X79417923Y-106679154D01*
X79467316Y-106678396D01*
X79651370Y-106635027D01*
X79448145Y-106468977D01*
X79345514Y-106381918D01*
X79910134Y-106381918D01*
X79983305Y-106650874D01*
X80409128Y-106983276D01*
X80622095Y-107105521D01*
X80739432Y-107172872D01*
X81093507Y-107210273D01*
X81569542Y-107009342D01*
X82153074Y-106647023D01*
X82327086Y-106370866D01*
X82097529Y-106171174D01*
X81922038Y-106106750D01*
X81648441Y-106056176D01*
X81607875Y-106202170D01*
X81627459Y-106422808D01*
X81537694Y-106593467D01*
X81295011Y-106370715D01*
X81269534Y-106336386D01*
X81023243Y-106114941D01*
X80835142Y-106256175D01*
X80770340Y-106391172D01*
X80864975Y-106410020D01*
X80990759Y-106417029D01*
X81098296Y-106699351D01*
X81104870Y-106809382D01*
X81055884Y-106990273D01*
X80823049Y-106807146D01*
X80673539Y-106577110D01*
X80645544Y-106164668D01*
X80671483Y-105905775D01*
X80475709Y-105850400D01*
X80131170Y-106084775D01*
X79910134Y-106381918D01*
X79345514Y-106381918D01*
X79320028Y-106360299D01*
X79365416Y-106229569D01*
X79741138Y-106238983D01*
X79820847Y-106203964D01*
X79797908Y-105935518D01*
X79770240Y-105716666D01*
X79979154Y-105668556D01*
X82009490Y-105668556D01*
X82009490Y-105961498D01*
X82075677Y-105986042D01*
X82340461Y-105819674D01*
X82418027Y-105758138D01*
X82650848Y-105687431D01*
X82788386Y-105992219D01*
X82804453Y-106048251D01*
X83058278Y-106455425D01*
X83394597Y-106553797D01*
X83689579Y-106300943D01*
X83845640Y-105863889D01*
X83885550Y-105332527D01*
X83775493Y-104931548D01*
X83530288Y-104800551D01*
X83356590Y-104808743D01*
X82916633Y-104690128D01*
X82784592Y-104635519D01*
X82649827Y-104748817D01*
X82652976Y-104785218D01*
X82875369Y-104984950D01*
X83359389Y-104994847D01*
X83420508Y-105004180D01*
X83391160Y-105197567D01*
X83307747Y-105283610D01*
X82969271Y-105324285D01*
X82849392Y-105294302D01*
X82546184Y-105363095D01*
X82532003Y-105376451D01*
X82205148Y-105508472D01*
X82170946Y-105510938D01*
X82009490Y-105668556D01*
X79979154Y-105668556D01*
X80016386Y-105659982D01*
X80200995Y-105655398D01*
X80457703Y-105454966D01*
X80460668Y-105310946D01*
X80210619Y-105318647D01*
X79987525Y-105350701D01*
X79993231Y-105222711D01*
X81216891Y-105222711D01*
X81242049Y-105368772D01*
X81307938Y-105463590D01*
X81488473Y-105615195D01*
X81518312Y-105613117D01*
X81565318Y-105489562D01*
X81336174Y-105274645D01*
X81216891Y-105222711D01*
X79993231Y-105222711D01*
X79997975Y-105116289D01*
X80005172Y-105096211D01*
X79963246Y-104670413D01*
X79868416Y-104569906D01*
X81021468Y-104569906D01*
X81216891Y-104800127D01*
X81243328Y-104831271D01*
X81563442Y-104871670D01*
X81663642Y-104659708D01*
X81556563Y-104441245D01*
X82222935Y-104441245D01*
X82329658Y-104547968D01*
X82436380Y-104441246D01*
X82329658Y-104334523D01*
X82222935Y-104441245D01*
X81556563Y-104441245D01*
X81467889Y-104260332D01*
X82677446Y-104260332D01*
X82783774Y-104317672D01*
X82784592Y-104317504D01*
X82938261Y-104285830D01*
X83021982Y-104223510D01*
X83549211Y-104223510D01*
X83574756Y-104476820D01*
X83638957Y-104510213D01*
X83717053Y-104334523D01*
X83701649Y-104221525D01*
X83574756Y-104192226D01*
X83549211Y-104223510D01*
X83021982Y-104223510D01*
X83269476Y-104039282D01*
X83392425Y-103790770D01*
X83165121Y-103609970D01*
X82939691Y-103572155D01*
X82934238Y-103784699D01*
X82959710Y-103944466D01*
X82797919Y-104197159D01*
X82677446Y-104260332D01*
X81467889Y-104260332D01*
X81456949Y-104238012D01*
X81259138Y-103999662D01*
X81208862Y-103978488D01*
X82317534Y-103978488D01*
X82329658Y-103981922D01*
X82438825Y-104012844D01*
X82494805Y-103971026D01*
X82649826Y-103681590D01*
X82638555Y-103561886D01*
X82527180Y-103511557D01*
X82354939Y-103811995D01*
X82317534Y-103978488D01*
X81208862Y-103978488D01*
X81155708Y-103956102D01*
X81143997Y-104042720D01*
X81036719Y-104396245D01*
X81021468Y-104569906D01*
X79868416Y-104569906D01*
X79654463Y-104343143D01*
X79226092Y-104274928D01*
X78986025Y-104266843D01*
X78980488Y-104263374D01*
X80159630Y-104263374D01*
X80190914Y-104288920D01*
X80444224Y-104263373D01*
X80475709Y-104202840D01*
X80477616Y-104199174D01*
X80301927Y-104121077D01*
X80188929Y-104136481D01*
X80159630Y-104263374D01*
X78980488Y-104263374D01*
X78606679Y-104029195D01*
X78476219Y-103824717D01*
X78514867Y-103690917D01*
X78567325Y-103658084D01*
X78399663Y-103496843D01*
X78322769Y-103444207D01*
X78223685Y-103248341D01*
X78453024Y-102951252D01*
X78723149Y-102639572D01*
X78800133Y-102452986D01*
X78621044Y-102503748D01*
X78544590Y-102530074D01*
X78437857Y-102377496D01*
X78456044Y-102007515D01*
X78581866Y-101552746D01*
X78798040Y-101145793D01*
X79016790Y-100879843D01*
X79237491Y-100796246D01*
X79515406Y-101017150D01*
X79545060Y-101047247D01*
X79746598Y-101367514D01*
X79605217Y-101656286D01*
X79298819Y-101855143D01*
X79106707Y-101716670D01*
X79129487Y-101274963D01*
X79181193Y-101077185D01*
X79182725Y-100952374D01*
X79009328Y-101206774D01*
X78876728Y-101515944D01*
X78999136Y-101836438D01*
X79179171Y-102119477D01*
X79186352Y-102636079D01*
X78861170Y-103055633D01*
X78652886Y-103236836D01*
X78742457Y-103400197D01*
X78855614Y-103506339D01*
X78866268Y-103849714D01*
X78823416Y-104047229D01*
X78984982Y-104036773D01*
X79002169Y-104014355D01*
X80728817Y-104014355D01*
X80835540Y-104121077D01*
X80942263Y-104014355D01*
X80835540Y-103907632D01*
X80728817Y-104014355D01*
X79002169Y-104014355D01*
X79137818Y-103837417D01*
X79145623Y-103800909D01*
X80301927Y-103800909D01*
X80408649Y-103907632D01*
X80515372Y-103800909D01*
X80408649Y-103694187D01*
X80301927Y-103800909D01*
X79145623Y-103800909D01*
X79172748Y-103674032D01*
X80746900Y-103674032D01*
X80835540Y-103654230D01*
X80969615Y-103624278D01*
X81155709Y-103599101D01*
X81163753Y-103598013D01*
X81532498Y-103729464D01*
X81672741Y-103821149D01*
X81911655Y-103679806D01*
X81972826Y-103546303D01*
X81843772Y-103557967D01*
X81744850Y-103596155D01*
X81478028Y-103484223D01*
X81488359Y-103350540D01*
X81783448Y-103267296D01*
X82043763Y-103207586D01*
X82222936Y-102947128D01*
X82222235Y-102942838D01*
X82481983Y-102942838D01*
X82507529Y-103196147D01*
X82527180Y-103206368D01*
X82571729Y-103229540D01*
X82634533Y-103088257D01*
X83351345Y-103088257D01*
X83376502Y-103234317D01*
X83442391Y-103329135D01*
X83574756Y-103440289D01*
X83622927Y-103480741D01*
X83652766Y-103478664D01*
X83699771Y-103355108D01*
X83470628Y-103140191D01*
X83351345Y-103088257D01*
X82634533Y-103088257D01*
X82649827Y-103053851D01*
X82635277Y-102947127D01*
X82863271Y-102947127D01*
X82939692Y-103023548D01*
X82969995Y-103053851D01*
X83076718Y-102947128D01*
X82969994Y-102840404D01*
X82863271Y-102947127D01*
X82635277Y-102947127D01*
X82634422Y-102940853D01*
X82507529Y-102911554D01*
X82481983Y-102942838D01*
X82222235Y-102942838D01*
X82198854Y-102799841D01*
X82009490Y-102626960D01*
X81958471Y-102633162D01*
X81796044Y-102840404D01*
X81787358Y-102898908D01*
X81570002Y-103053851D01*
X81492799Y-103037093D01*
X81475876Y-102840404D01*
X81453414Y-102705194D01*
X81142170Y-102626960D01*
X81004636Y-102629818D01*
X80802844Y-102707551D01*
X80955764Y-102963397D01*
X80972431Y-102983665D01*
X81123715Y-103283253D01*
X80928538Y-103517144D01*
X80901455Y-103536449D01*
X80746900Y-103674032D01*
X79172748Y-103674032D01*
X79234700Y-103384258D01*
X79280873Y-103160573D01*
X79448145Y-103160573D01*
X79554868Y-103267296D01*
X79661590Y-103160573D01*
X79554868Y-103053851D01*
X79448145Y-103160573D01*
X79280873Y-103160573D01*
X79303802Y-103049492D01*
X79554868Y-102763218D01*
X79610756Y-102745185D01*
X79867570Y-102837859D01*
X79912170Y-103285083D01*
X79932593Y-103336430D01*
X80188673Y-103409593D01*
X80280036Y-103401955D01*
X80350455Y-103273746D01*
X80153468Y-102913386D01*
X79876954Y-102604137D01*
X79638243Y-102534667D01*
X79544414Y-102573866D01*
X79449433Y-102467251D01*
X79528130Y-102183456D01*
X79756139Y-101861583D01*
X79816980Y-101795654D01*
X79851056Y-101709697D01*
X80301927Y-101709697D01*
X80355049Y-101876437D01*
X80408649Y-101941007D01*
X80627253Y-102204351D01*
X80737742Y-102290616D01*
X80989774Y-102406626D01*
X80986911Y-102342366D01*
X81440302Y-102342366D01*
X81471586Y-102367911D01*
X81724896Y-102342366D01*
X81758289Y-102278165D01*
X81582599Y-102200069D01*
X81469602Y-102215473D01*
X81440302Y-102342366D01*
X80986911Y-102342366D01*
X80982927Y-102252947D01*
X80701281Y-101895917D01*
X80681249Y-101879901D01*
X81369154Y-101879901D01*
X81475876Y-101986624D01*
X81582599Y-101879901D01*
X81475876Y-101773178D01*
X81369154Y-101879901D01*
X80681249Y-101879901D01*
X80423263Y-101673638D01*
X80301927Y-101709697D01*
X79851056Y-101709697D01*
X79868198Y-101666456D01*
X80942263Y-101666456D01*
X81048985Y-101773177D01*
X81142170Y-101679994D01*
X81155708Y-101666456D01*
X81048985Y-101559733D01*
X80942263Y-101666456D01*
X79868198Y-101666456D01*
X79956243Y-101444363D01*
X79865766Y-101026119D01*
X80515372Y-101026119D01*
X80622095Y-101132842D01*
X80728817Y-101026119D01*
X80622095Y-100919397D01*
X80515372Y-101026119D01*
X79865766Y-101026119D01*
X79842070Y-100916578D01*
X79826840Y-100874377D01*
X79793512Y-100812674D01*
X80942263Y-100812674D01*
X81048985Y-100919397D01*
X81128185Y-100840197D01*
X82289075Y-100840197D01*
X82412768Y-101302215D01*
X82507529Y-101449675D01*
X82740675Y-101812481D01*
X82865085Y-101950806D01*
X82969994Y-102019627D01*
X83120461Y-102118338D01*
X83309693Y-101962330D01*
X83351345Y-101908241D01*
X83379691Y-101871431D01*
X83520899Y-101876883D01*
X83537662Y-102227097D01*
X83613556Y-102288677D01*
X84003539Y-102401155D01*
X84502341Y-102486594D01*
X84616532Y-102506153D01*
X85005738Y-102565738D01*
X85648483Y-102699771D01*
X86048511Y-102831273D01*
X86091876Y-102852500D01*
X86564932Y-103007132D01*
X87185540Y-103138030D01*
X87338565Y-103160350D01*
X87800149Y-103197377D01*
X87985960Y-103159411D01*
X87980370Y-103135436D01*
X87772515Y-103053851D01*
X87666683Y-103007980D01*
X87633590Y-102915590D01*
X88256477Y-102915590D01*
X88415542Y-103060030D01*
X88592085Y-103158962D01*
X88893103Y-103264027D01*
X88990536Y-103257168D01*
X89077752Y-103148199D01*
X88908079Y-102991131D01*
X88575625Y-102895276D01*
X88478524Y-102889024D01*
X88256477Y-102915590D01*
X87633590Y-102915590D01*
X87559070Y-102707547D01*
X87516964Y-102520237D01*
X87772515Y-102520237D01*
X87879238Y-102626960D01*
X87985960Y-102520237D01*
X87929013Y-102463289D01*
X91728858Y-102463289D01*
X91944089Y-102555812D01*
X92082126Y-102537186D01*
X92254868Y-102377940D01*
X92251013Y-102343279D01*
X92054019Y-102200069D01*
X92024756Y-102201826D01*
X91743240Y-102377940D01*
X91728858Y-102463289D01*
X87929013Y-102463289D01*
X87879238Y-102413514D01*
X87772515Y-102520237D01*
X87516964Y-102520237D01*
X87512740Y-102501448D01*
X87292263Y-102573413D01*
X87000960Y-102710527D01*
X86438390Y-102653036D01*
X85891180Y-102270307D01*
X85690567Y-102093346D01*
X90333859Y-102093346D01*
X90440582Y-102200069D01*
X90547305Y-102093346D01*
X90440582Y-101986625D01*
X90333859Y-102093346D01*
X85690567Y-102093346D01*
X85601162Y-102014482D01*
X85213190Y-101809426D01*
X85075537Y-101761629D01*
X84736207Y-101489258D01*
X84708120Y-101453010D01*
X84997724Y-101453010D01*
X85104447Y-101559733D01*
X85211170Y-101453010D01*
X85104448Y-101346288D01*
X84997724Y-101453010D01*
X84708120Y-101453010D01*
X84661520Y-101392869D01*
X84574103Y-101414184D01*
X84562497Y-101438604D01*
X84342407Y-101384710D01*
X83931955Y-101133879D01*
X83836150Y-101068735D01*
X83376424Y-100836784D01*
X83078173Y-100811774D01*
X82994234Y-100845592D01*
X82863271Y-100718547D01*
X82827523Y-100614865D01*
X82544441Y-100492506D01*
X82386957Y-100543207D01*
X82289075Y-100840197D01*
X81128185Y-100840197D01*
X81155708Y-100812674D01*
X81048985Y-100705951D01*
X80942263Y-100812674D01*
X79793512Y-100812674D01*
X79619474Y-100490458D01*
X79427353Y-100398633D01*
X79322174Y-100432808D01*
X78967893Y-100348287D01*
X78915031Y-100318936D01*
X79923902Y-100318936D01*
X79959168Y-100395811D01*
X80261906Y-100657037D01*
X80332514Y-100675302D01*
X80423263Y-100638647D01*
X80506746Y-100604927D01*
X80445534Y-100392937D01*
X80177368Y-100195029D01*
X80062204Y-100172338D01*
X80942263Y-100172338D01*
X81048985Y-100279061D01*
X81155708Y-100172338D01*
X81048985Y-100065615D01*
X80942263Y-100172338D01*
X80062204Y-100172338D01*
X79990587Y-100158227D01*
X79923902Y-100318936D01*
X78915031Y-100318936D01*
X78849669Y-100282645D01*
X78505428Y-100175606D01*
X78405996Y-100138289D01*
X78290864Y-99958893D01*
X79021254Y-99958893D01*
X79127977Y-100065615D01*
X79234700Y-99958893D01*
X79127977Y-99852170D01*
X79021254Y-99958893D01*
X78290864Y-99958893D01*
X78222371Y-99852170D01*
X78191559Y-99652002D01*
X78337988Y-99821597D01*
X78467221Y-99952306D01*
X78672055Y-99899143D01*
X78679585Y-99712929D01*
X78450580Y-99396103D01*
X78450266Y-99395842D01*
X78152392Y-99220640D01*
X78008252Y-99371918D01*
X77919670Y-99500992D01*
X77562711Y-99635456D01*
X77395233Y-99607143D01*
X77420414Y-99475372D01*
X77642826Y-99218898D01*
X77639428Y-99105111D01*
X79021254Y-99105111D01*
X79127977Y-99211834D01*
X79234700Y-99105111D01*
X79127977Y-98998388D01*
X79021254Y-99105111D01*
X77639428Y-99105111D01*
X77633837Y-98917846D01*
X77570773Y-98891666D01*
X78594364Y-98891666D01*
X78701086Y-98998388D01*
X78807809Y-98891666D01*
X78701086Y-98784943D01*
X78594364Y-98891666D01*
X77570773Y-98891666D01*
X77313691Y-98784943D01*
X77065682Y-98747255D01*
X77017717Y-98703414D01*
X78167473Y-98703414D01*
X78181370Y-98732611D01*
X78380918Y-98678220D01*
X78444102Y-98634368D01*
X78594364Y-98439580D01*
X78580466Y-98410385D01*
X78380918Y-98464775D01*
X78317734Y-98508627D01*
X78167473Y-98703414D01*
X77017717Y-98703414D01*
X76886801Y-98583753D01*
X76804597Y-98480687D01*
X76464398Y-98463911D01*
X76266491Y-98472393D01*
X75884736Y-98254329D01*
X75883443Y-98251330D01*
X76033019Y-98251330D01*
X76139742Y-98358052D01*
X76246464Y-98251330D01*
X76139742Y-98144607D01*
X76033019Y-98251330D01*
X75883443Y-98251330D01*
X75680472Y-97780713D01*
X75682906Y-97157624D01*
X75921242Y-96491143D01*
X76250763Y-95903430D01*
X76122353Y-96681375D01*
X76112903Y-96745223D01*
X76110251Y-97334500D01*
X76139742Y-97469397D01*
X76226513Y-97866306D01*
X76420562Y-98217510D01*
X76651271Y-98264978D01*
X76687132Y-98179014D01*
X77374875Y-98179014D01*
X77400032Y-98325073D01*
X77465921Y-98419892D01*
X77646456Y-98571498D01*
X77676296Y-98569420D01*
X77723300Y-98445864D01*
X77494158Y-98230947D01*
X77374875Y-98179014D01*
X76687132Y-98179014D01*
X76720026Y-98100164D01*
X76726978Y-98037884D01*
X78167473Y-98037884D01*
X78274196Y-98144607D01*
X78380918Y-98037884D01*
X78274196Y-97931161D01*
X78167473Y-98037884D01*
X76726978Y-98037884D01*
X76774914Y-97608454D01*
X76777724Y-97184103D01*
X78380918Y-97184103D01*
X78487641Y-97290825D01*
X78580466Y-97198001D01*
X78594364Y-97184102D01*
X78487641Y-97077380D01*
X78380918Y-97184103D01*
X76777724Y-97184103D01*
X76779137Y-96970657D01*
X77527137Y-96970657D01*
X77559752Y-97133416D01*
X77740582Y-97184102D01*
X77805158Y-97140357D01*
X77954027Y-96970657D01*
X77943983Y-96939784D01*
X77740582Y-96757212D01*
X77627533Y-96740117D01*
X77527137Y-96970657D01*
X76779137Y-96970657D01*
X76779439Y-96924966D01*
X76727416Y-96199906D01*
X76620235Y-95827360D01*
X76438703Y-95746438D01*
X76414340Y-95750879D01*
X76264118Y-95734125D01*
X76459910Y-95532993D01*
X76555234Y-95439275D01*
X76804773Y-94924080D01*
X76804039Y-94836203D01*
X77100246Y-94836203D01*
X77206969Y-94942925D01*
X77313691Y-94836203D01*
X77206969Y-94729481D01*
X77100246Y-94836203D01*
X76804039Y-94836203D01*
X76800471Y-94409313D01*
X77741021Y-94409313D01*
X77785078Y-95088251D01*
X77787935Y-95129047D01*
X77853422Y-95577804D01*
X77944943Y-95756672D01*
X78265574Y-95792602D01*
X78274196Y-95800566D01*
X78487641Y-95997719D01*
X78636855Y-96135543D01*
X78770875Y-96791600D01*
X78803038Y-96872078D01*
X79056386Y-97103609D01*
X79225949Y-97246055D01*
X79033820Y-97287557D01*
X79020238Y-97287821D01*
X78894744Y-97365042D01*
X79140543Y-97600377D01*
X79360013Y-97768929D01*
X79404938Y-97859108D01*
X79071443Y-97788099D01*
X78978681Y-97766268D01*
X78700709Y-97771105D01*
X78701086Y-97775640D01*
X78720750Y-98012160D01*
X78827630Y-98184770D01*
X79127977Y-98343218D01*
X79156096Y-98358052D01*
X79359360Y-98461022D01*
X79622991Y-98829078D01*
X79790412Y-99284954D01*
X79769547Y-99636730D01*
X79794515Y-99721264D01*
X79990587Y-99707499D01*
X80088187Y-99700647D01*
X80117531Y-99692405D01*
X80426363Y-99515723D01*
X80525521Y-99310382D01*
X80344092Y-99211834D01*
X80238270Y-99111711D01*
X80057300Y-98770537D01*
X80942263Y-98770537D01*
X80956246Y-98847708D01*
X81178496Y-99119195D01*
X81288534Y-99241285D01*
X81125135Y-99468210D01*
X80953991Y-99637614D01*
X81048985Y-99728455D01*
X81102347Y-99779484D01*
X81223397Y-99865623D01*
X81369154Y-100225699D01*
X81391277Y-100380549D01*
X81475876Y-100403795D01*
X81517559Y-100415250D01*
X81614403Y-100278714D01*
X81719065Y-99765076D01*
X81622967Y-99205572D01*
X81349528Y-98822221D01*
X81089305Y-98706777D01*
X80942263Y-98770537D01*
X80057300Y-98770537D01*
X80022372Y-98704688D01*
X79778237Y-98091246D01*
X79606302Y-97622585D01*
X79556333Y-97511315D01*
X81590522Y-97511315D01*
X81681582Y-97717716D01*
X81736303Y-97813573D01*
X82052485Y-98291503D01*
X82285992Y-98435663D01*
X82510938Y-98297902D01*
X82544442Y-98259620D01*
X82722372Y-98056317D01*
X83076717Y-97613840D01*
X83116635Y-97561113D01*
X83281344Y-97322966D01*
X83191782Y-97330167D01*
X82795625Y-97575596D01*
X82511038Y-97743165D01*
X82154764Y-97836188D01*
X81847510Y-97678635D01*
X81756205Y-97605838D01*
X81590522Y-97511315D01*
X79556333Y-97511315D01*
X78916799Y-96087205D01*
X78174952Y-94942926D01*
X77741021Y-94409313D01*
X76800471Y-94409313D01*
X76800041Y-94357930D01*
X76532428Y-93931017D01*
X76355568Y-93760118D01*
X76412415Y-93662254D01*
X76521736Y-93617694D01*
X76538846Y-93346643D01*
X76388711Y-93174479D01*
X75958571Y-93117337D01*
X75883720Y-93131440D01*
X75464878Y-93221946D01*
X75393912Y-93297014D01*
X75606128Y-93410449D01*
X75748426Y-93505667D01*
X75732155Y-93712297D01*
X75417478Y-94089145D01*
X75100149Y-94409342D01*
X75022585Y-94430741D01*
X75150671Y-94156538D01*
X75336407Y-93755984D01*
X75358207Y-93514575D01*
X75125876Y-93577352D01*
X75081830Y-93596864D01*
X75109716Y-93487545D01*
X75376528Y-93163059D01*
X75384975Y-93153798D01*
X75637077Y-92915195D01*
X75819575Y-92915195D01*
X75926296Y-93021918D01*
X76033019Y-92915195D01*
X75926296Y-92808472D01*
X75819575Y-92915195D01*
X75637077Y-92915195D01*
X75789483Y-92770949D01*
X75926296Y-92719655D01*
X76165793Y-92629862D01*
X76645786Y-92722382D01*
G37*
%TD*%
D12*
%TO.C,J1*%
X110980000Y-142094365D03*
D13*
X110980000Y-144754365D03*
D12*
X112250000Y-142094365D03*
D13*
X112250000Y-144754365D03*
D12*
X113510000Y-142094365D03*
D13*
X113510000Y-144754365D03*
D12*
X114790000Y-142094365D03*
D13*
X114790000Y-144754365D03*
D12*
X116060000Y-142094365D03*
D13*
X116060000Y-144754365D03*
D12*
X117330000Y-142094365D03*
D13*
X117330000Y-144754365D03*
D12*
X118600000Y-142094365D03*
D13*
X118600000Y-144754365D03*
D12*
X119870000Y-142094365D03*
D13*
X119870000Y-144754365D03*
D12*
X121140000Y-142094365D03*
D13*
X121140000Y-144754365D03*
D12*
X122410000Y-142094365D03*
D13*
X122410000Y-144754365D03*
D12*
X123680000Y-142094365D03*
D13*
X123680000Y-144754365D03*
D12*
X124940000Y-142094365D03*
D13*
X124940000Y-144754365D03*
D12*
X126220000Y-142094365D03*
D13*
X126220000Y-144754365D03*
D12*
X127490000Y-142094365D03*
D13*
X127490000Y-144754365D03*
D12*
X128760000Y-142094365D03*
D13*
X128760000Y-144754365D03*
D12*
X130030000Y-142094365D03*
D13*
X130030000Y-144754365D03*
D12*
X131300000Y-142094365D03*
D13*
X131300000Y-144754365D03*
D12*
X132570000Y-142094365D03*
D13*
X132570000Y-144754365D03*
D12*
X133830000Y-142094365D03*
D13*
X133830000Y-144754365D03*
D12*
X135110000Y-142094365D03*
D13*
X135110000Y-144754365D03*
D12*
X136370000Y-142094365D03*
D13*
X136370000Y-144754365D03*
D12*
X137650000Y-142094365D03*
D13*
X137650000Y-144754365D03*
D12*
X138920000Y-142094365D03*
D13*
X138920000Y-144754365D03*
D12*
X140190000Y-142094365D03*
D13*
X140190000Y-144754365D03*
D12*
X141460000Y-142094365D03*
D13*
X141460000Y-144754365D03*
D12*
X142730000Y-142094365D03*
D13*
X142730000Y-144754365D03*
D12*
X144000000Y-142094365D03*
D13*
X144000000Y-144754365D03*
D12*
X145270000Y-142094365D03*
D13*
X145270000Y-144754365D03*
D12*
X146540000Y-142094365D03*
D13*
X146540000Y-144754365D03*
D12*
X147810000Y-142094365D03*
D13*
X147810000Y-144754365D03*
D12*
X149080000Y-142094365D03*
D13*
X149080000Y-144754365D03*
D12*
X150350000Y-142094365D03*
D13*
X150350000Y-144754365D03*
D12*
X151620000Y-142094365D03*
D13*
X151620000Y-144754365D03*
D12*
X152890000Y-142094365D03*
D13*
X152890000Y-144754365D03*
D12*
X154160000Y-142094365D03*
D13*
X154160000Y-144754365D03*
D12*
X155430000Y-142094365D03*
D13*
X155430000Y-144754365D03*
D12*
X156700000Y-142094365D03*
D13*
X156700000Y-144754365D03*
D12*
X157970000Y-142094365D03*
D13*
X157970000Y-144754365D03*
D12*
X159240000Y-142094365D03*
D13*
X159240000Y-144754365D03*
D12*
X160510000Y-142094365D03*
D13*
X160510000Y-144754365D03*
D12*
X161780000Y-142094365D03*
D13*
X161780000Y-144754365D03*
D12*
X163050000Y-142094365D03*
D13*
X163050000Y-144754365D03*
D12*
X164320000Y-142094365D03*
D13*
X164320000Y-144754365D03*
D12*
X165590000Y-142094365D03*
D13*
X165590000Y-144754365D03*
D12*
X166860000Y-142094365D03*
D13*
X166860000Y-144754365D03*
D12*
X168130000Y-142094365D03*
D13*
X168130000Y-144754365D03*
D12*
X169400000Y-142094365D03*
D13*
X169400000Y-144754365D03*
D12*
X170670000Y-142094365D03*
D13*
X170670000Y-144754365D03*
D12*
X171940000Y-142094365D03*
D13*
X171940000Y-144754365D03*
D12*
X175750000Y-142094365D03*
D13*
X175750000Y-144754365D03*
D12*
X177020000Y-142094365D03*
D13*
X177020000Y-144754365D03*
D12*
X178290000Y-142094365D03*
D13*
X178290000Y-144754365D03*
D12*
X179560000Y-142094365D03*
D13*
X179560000Y-144754365D03*
D12*
X180830000Y-142094365D03*
D13*
X180830000Y-144754365D03*
D12*
X182100000Y-142094365D03*
D13*
X182100000Y-144754365D03*
D12*
X183370000Y-142094365D03*
D13*
X183370000Y-144754365D03*
D12*
X184640000Y-142094365D03*
D13*
X184640000Y-144754365D03*
D12*
X185910000Y-142094365D03*
D13*
X185910000Y-144754365D03*
D12*
X187180000Y-142094365D03*
D13*
X187180000Y-144754365D03*
D12*
X188440000Y-142094365D03*
D13*
X188440000Y-144754365D03*
%TD*%
D14*
%TO.C,REF\u002A\u002A*%
X198280000Y-64644365D03*
X200820000Y-64644365D03*
X203360000Y-64644365D03*
X205900000Y-64644365D03*
X208440000Y-64644365D03*
X210980000Y-64644365D03*
X213520000Y-64644365D03*
X216060000Y-64644365D03*
X218600000Y-64644365D03*
X221140000Y-64644365D03*
X198280000Y-62104365D03*
X200820000Y-62104365D03*
X203360000Y-62104365D03*
X205900000Y-62104365D03*
X208440000Y-62104365D03*
X210980000Y-62104365D03*
X213520000Y-62104365D03*
X216060000Y-62104365D03*
X218600000Y-62104365D03*
X221140000Y-62104365D03*
X198280000Y-59564365D03*
X200820000Y-59564365D03*
X203360000Y-59564365D03*
X205900000Y-59564365D03*
X208440000Y-59564365D03*
X210980000Y-59564365D03*
X213520000Y-59564365D03*
X216060000Y-59564365D03*
X218600000Y-59564365D03*
X221140000Y-59564365D03*
X198280000Y-57024365D03*
X200820000Y-57024365D03*
X203360000Y-57024365D03*
X205900000Y-57024365D03*
X208440000Y-57024365D03*
X210980000Y-57024365D03*
X213520000Y-57024365D03*
X216060000Y-57024365D03*
X218600000Y-57024365D03*
X221140000Y-57024365D03*
X198280000Y-54484365D03*
X200820000Y-54484365D03*
X203360000Y-54484365D03*
X205900000Y-54484365D03*
X208440000Y-54484365D03*
X210980000Y-54484365D03*
X213520000Y-54484365D03*
X216060000Y-54484365D03*
X218600000Y-54484365D03*
X221140000Y-54484365D03*
X198280000Y-51944365D03*
X200820000Y-51944365D03*
X203360000Y-51944365D03*
X205900000Y-51944365D03*
X208440000Y-51944365D03*
X210980000Y-51944365D03*
X213520000Y-51944365D03*
X216060000Y-51944365D03*
X218600000Y-51944365D03*
X221140000Y-51944365D03*
X198280000Y-49404365D03*
X200820000Y-49404365D03*
X203360000Y-49404365D03*
X205900000Y-49404365D03*
X208440000Y-49404365D03*
X210980000Y-49404365D03*
X213520000Y-49404365D03*
X216060000Y-49404365D03*
X218600000Y-49404365D03*
X221140000Y-49404365D03*
X198280000Y-46864365D03*
X200820000Y-46864365D03*
X203360000Y-46864365D03*
X205900000Y-46864365D03*
X208440000Y-46864365D03*
X210980000Y-46864365D03*
X213520000Y-46864365D03*
X216060000Y-46864365D03*
X218600000Y-46864365D03*
X221140000Y-46864365D03*
X198280000Y-44324365D03*
X200820000Y-44324365D03*
X203360000Y-44324365D03*
X205900000Y-44324365D03*
X208440000Y-44324365D03*
X210980000Y-44324365D03*
X213520000Y-44324365D03*
X216060000Y-44324365D03*
X218600000Y-44324365D03*
X221140000Y-44324365D03*
X198280000Y-41784365D03*
X200820000Y-41784365D03*
X203360000Y-41784365D03*
X205900000Y-41784365D03*
X208440000Y-41784365D03*
X210980000Y-41784365D03*
X213520000Y-41784365D03*
X216060000Y-41784365D03*
X218600000Y-41784365D03*
X221140000Y-41784365D03*
%TD*%
%TO.C,J2*%
X81440000Y-120524365D03*
X83980000Y-120524365D03*
X86520000Y-120524365D03*
X89060000Y-120524365D03*
X91600000Y-120524365D03*
X94140000Y-120524365D03*
X96680000Y-120524365D03*
X99220000Y-120524365D03*
X101760000Y-120524365D03*
X104300000Y-120524365D03*
X106840000Y-120524365D03*
X109380000Y-120524365D03*
X111920000Y-120524365D03*
X114460000Y-120524365D03*
X117000000Y-120524365D03*
X119540000Y-120524365D03*
X122080000Y-120524365D03*
X124620000Y-120524365D03*
X127160000Y-120524365D03*
X129700000Y-120524365D03*
X132240000Y-120524365D03*
X134780000Y-120524365D03*
X137320000Y-120524365D03*
X139860000Y-120524365D03*
X142400000Y-120524365D03*
X144940000Y-120524365D03*
X147480000Y-120524365D03*
X150020000Y-120524365D03*
X152560000Y-120524365D03*
X155100000Y-120524365D03*
X157640000Y-120524365D03*
X160180000Y-120524365D03*
X162720000Y-120524365D03*
X165260000Y-120524365D03*
X167800000Y-120524365D03*
X170340000Y-120524365D03*
X172880000Y-120524365D03*
X175420000Y-120524365D03*
X177960000Y-120524365D03*
X180500000Y-120524365D03*
X183040000Y-120524365D03*
X185580000Y-120524365D03*
X188120000Y-120524365D03*
X190660000Y-120524365D03*
X193200000Y-120524365D03*
X195740000Y-120524365D03*
X198280000Y-120524365D03*
X200820000Y-120524365D03*
X203360000Y-120524365D03*
X205900000Y-120524365D03*
X208440000Y-120524365D03*
X210980000Y-120524365D03*
X213520000Y-120524365D03*
X216060000Y-120524365D03*
X218600000Y-120524365D03*
X221140000Y-120524365D03*
X223680000Y-120524365D03*
X226220000Y-120524365D03*
X228760000Y-120524365D03*
X231300000Y-120524365D03*
X233840000Y-120524365D03*
X236380000Y-120524365D03*
X81440000Y-123064365D03*
X83980000Y-123064365D03*
X86520000Y-123064365D03*
X89060000Y-123064365D03*
X91600000Y-123064365D03*
X94140000Y-123064365D03*
X96680000Y-123064365D03*
X99220000Y-123064365D03*
X101760000Y-123064365D03*
X104300000Y-123064365D03*
X106840000Y-123064365D03*
X109380000Y-123064365D03*
X111920000Y-123064365D03*
X114460000Y-123064365D03*
X117000000Y-123064365D03*
X119540000Y-123064365D03*
X122080000Y-123064365D03*
X124620000Y-123064365D03*
X127160000Y-123064365D03*
X129700000Y-123064365D03*
X132240000Y-123064365D03*
X134780000Y-123064365D03*
X137320000Y-123064365D03*
X139860000Y-123064365D03*
X142400000Y-123064365D03*
X144940000Y-123064365D03*
X147480000Y-123064365D03*
X150020000Y-123064365D03*
X152560000Y-123064365D03*
X155100000Y-123064365D03*
X157640000Y-123064365D03*
X160180000Y-123064365D03*
X162720000Y-123064365D03*
X165260000Y-123064365D03*
X167800000Y-123064365D03*
X170340000Y-123064365D03*
X172880000Y-123064365D03*
X175420000Y-123064365D03*
X177960000Y-123064365D03*
X180500000Y-123064365D03*
X183040000Y-123064365D03*
X185580000Y-123064365D03*
X188120000Y-123064365D03*
X190660000Y-123064365D03*
X193200000Y-123064365D03*
X195740000Y-123064365D03*
X198280000Y-123064365D03*
X200820000Y-123064365D03*
X203360000Y-123064365D03*
X205900000Y-123064365D03*
X208440000Y-123064365D03*
X210980000Y-123064365D03*
X213520000Y-123064365D03*
X216060000Y-123064365D03*
X218600000Y-123064365D03*
X221140000Y-123064365D03*
X223680000Y-123064365D03*
X226220000Y-123064365D03*
X228760000Y-123064365D03*
X231300000Y-123064365D03*
X233840000Y-123064365D03*
X236380000Y-123064365D03*
%TD*%
%TO.C,REF\u002A\u002A*%
X223680000Y-64644365D03*
X226220000Y-64644365D03*
X228760000Y-64644365D03*
X231300000Y-64644365D03*
X233840000Y-64644365D03*
X236380000Y-64644365D03*
X238920000Y-64644365D03*
X241460000Y-64644365D03*
X244000000Y-64644365D03*
X246540000Y-64644365D03*
X223680000Y-62104365D03*
X226220000Y-62104365D03*
X228760000Y-62104365D03*
X231300000Y-62104365D03*
X233840000Y-62104365D03*
X236380000Y-62104365D03*
X238920000Y-62104365D03*
X241460000Y-62104365D03*
X244000000Y-62104365D03*
X246540000Y-62104365D03*
X223680000Y-59564365D03*
X226220000Y-59564365D03*
X228760000Y-59564365D03*
X231300000Y-59564365D03*
X233840000Y-59564365D03*
X236380000Y-59564365D03*
X238920000Y-59564365D03*
X241460000Y-59564365D03*
X244000000Y-59564365D03*
X246540000Y-59564365D03*
X223680000Y-57024365D03*
X226220000Y-57024365D03*
X228760000Y-57024365D03*
X231300000Y-57024365D03*
X233840000Y-57024365D03*
X236380000Y-57024365D03*
X238920000Y-57024365D03*
X241460000Y-57024365D03*
X244000000Y-57024365D03*
X246540000Y-57024365D03*
X223680000Y-54484365D03*
X226220000Y-54484365D03*
X228760000Y-54484365D03*
X231300000Y-54484365D03*
X233840000Y-54484365D03*
X236380000Y-54484365D03*
X238920000Y-54484365D03*
X241460000Y-54484365D03*
X244000000Y-54484365D03*
X246540000Y-54484365D03*
X223680000Y-51944365D03*
X226220000Y-51944365D03*
X228760000Y-51944365D03*
X231300000Y-51944365D03*
X233840000Y-51944365D03*
X236380000Y-51944365D03*
X238920000Y-51944365D03*
X241460000Y-51944365D03*
X244000000Y-51944365D03*
X246540000Y-51944365D03*
X223680000Y-49404365D03*
X226220000Y-49404365D03*
X228760000Y-49404365D03*
X231300000Y-49404365D03*
X233840000Y-49404365D03*
X236380000Y-49404365D03*
X238920000Y-49404365D03*
X241460000Y-49404365D03*
X244000000Y-49404365D03*
X246540000Y-49404365D03*
X223680000Y-46864365D03*
X226220000Y-46864365D03*
X228760000Y-46864365D03*
X231300000Y-46864365D03*
X233840000Y-46864365D03*
X236380000Y-46864365D03*
X238920000Y-46864365D03*
X241460000Y-46864365D03*
X244000000Y-46864365D03*
X246540000Y-46864365D03*
X223680000Y-44324365D03*
X226220000Y-44324365D03*
X228760000Y-44324365D03*
X231300000Y-44324365D03*
X233840000Y-44324365D03*
X236380000Y-44324365D03*
X238920000Y-44324365D03*
X241460000Y-44324365D03*
X244000000Y-44324365D03*
X246540000Y-44324365D03*
X223680000Y-41784365D03*
X226220000Y-41784365D03*
X228760000Y-41784365D03*
X231300000Y-41784365D03*
X233840000Y-41784365D03*
X236380000Y-41784365D03*
X238920000Y-41784365D03*
X241460000Y-41784365D03*
X244000000Y-41784365D03*
X246540000Y-41784365D03*
%TD*%
%TO.C,REF\u002A\u002A*%
X172880000Y-115444365D03*
X175420000Y-115444365D03*
X177960000Y-115444365D03*
X180500000Y-115444365D03*
X183040000Y-115444365D03*
X185580000Y-115444365D03*
X188120000Y-115444365D03*
X190660000Y-115444365D03*
X193200000Y-115444365D03*
X195740000Y-115444365D03*
X172880000Y-112904365D03*
X175420000Y-112904365D03*
X177960000Y-112904365D03*
X180500000Y-112904365D03*
X183040000Y-112904365D03*
X185580000Y-112904365D03*
X188120000Y-112904365D03*
X190660000Y-112904365D03*
X193200000Y-112904365D03*
X195740000Y-112904365D03*
X172880000Y-110364365D03*
X175420000Y-110364365D03*
X177960000Y-110364365D03*
X180500000Y-110364365D03*
X183040000Y-110364365D03*
X185580000Y-110364365D03*
X188120000Y-110364365D03*
X190660000Y-110364365D03*
X193200000Y-110364365D03*
X195740000Y-110364365D03*
X172880000Y-107824365D03*
X175420000Y-107824365D03*
X177960000Y-107824365D03*
X180500000Y-107824365D03*
X183040000Y-107824365D03*
X185580000Y-107824365D03*
X188120000Y-107824365D03*
X190660000Y-107824365D03*
X193200000Y-107824365D03*
X195740000Y-107824365D03*
X172880000Y-105284365D03*
X175420000Y-105284365D03*
X177960000Y-105284365D03*
X180500000Y-105284365D03*
X183040000Y-105284365D03*
X185580000Y-105284365D03*
X188120000Y-105284365D03*
X190660000Y-105284365D03*
X193200000Y-105284365D03*
X195740000Y-105284365D03*
X172880000Y-102744365D03*
X175420000Y-102744365D03*
X177960000Y-102744365D03*
X180500000Y-102744365D03*
X183040000Y-102744365D03*
X185580000Y-102744365D03*
X188120000Y-102744365D03*
X190660000Y-102744365D03*
X193200000Y-102744365D03*
X195740000Y-102744365D03*
X172880000Y-100204365D03*
X175420000Y-100204365D03*
X177960000Y-100204365D03*
X180500000Y-100204365D03*
X183040000Y-100204365D03*
X185580000Y-100204365D03*
X188120000Y-100204365D03*
X190660000Y-100204365D03*
X193200000Y-100204365D03*
X195740000Y-100204365D03*
X172880000Y-97664365D03*
X175420000Y-97664365D03*
X177960000Y-97664365D03*
X180500000Y-97664365D03*
X183040000Y-97664365D03*
X185580000Y-97664365D03*
X188120000Y-97664365D03*
X190660000Y-97664365D03*
X193200000Y-97664365D03*
X195740000Y-97664365D03*
X172880000Y-95124365D03*
X175420000Y-95124365D03*
X177960000Y-95124365D03*
X180500000Y-95124365D03*
X183040000Y-95124365D03*
X185580000Y-95124365D03*
X188120000Y-95124365D03*
X190660000Y-95124365D03*
X193200000Y-95124365D03*
X195740000Y-95124365D03*
X172880000Y-92584365D03*
X175420000Y-92584365D03*
X177960000Y-92584365D03*
X180500000Y-92584365D03*
X183040000Y-92584365D03*
X185580000Y-92584365D03*
X188120000Y-92584365D03*
X190660000Y-92584365D03*
X193200000Y-92584365D03*
X195740000Y-92584365D03*
%TD*%
%TO.C,REF\u002A\u002A*%
X122080000Y-115444365D03*
X124620000Y-115444365D03*
X127160000Y-115444365D03*
X129700000Y-115444365D03*
X132240000Y-115444365D03*
X134780000Y-115444365D03*
X137320000Y-115444365D03*
X139860000Y-115444365D03*
X142400000Y-115444365D03*
X144940000Y-115444365D03*
X122080000Y-112904365D03*
X124620000Y-112904365D03*
X127160000Y-112904365D03*
X129700000Y-112904365D03*
X132240000Y-112904365D03*
X134780000Y-112904365D03*
X137320000Y-112904365D03*
X139860000Y-112904365D03*
X142400000Y-112904365D03*
X144940000Y-112904365D03*
X122080000Y-110364365D03*
X124620000Y-110364365D03*
X127160000Y-110364365D03*
X129700000Y-110364365D03*
X132240000Y-110364365D03*
X134780000Y-110364365D03*
X137320000Y-110364365D03*
X139860000Y-110364365D03*
X142400000Y-110364365D03*
X144940000Y-110364365D03*
X122080000Y-107824365D03*
X124620000Y-107824365D03*
X127160000Y-107824365D03*
X129700000Y-107824365D03*
X132240000Y-107824365D03*
X134780000Y-107824365D03*
X137320000Y-107824365D03*
X139860000Y-107824365D03*
X142400000Y-107824365D03*
X144940000Y-107824365D03*
X122080000Y-105284365D03*
X124620000Y-105284365D03*
X127160000Y-105284365D03*
X129700000Y-105284365D03*
X132240000Y-105284365D03*
X134780000Y-105284365D03*
X137320000Y-105284365D03*
X139860000Y-105284365D03*
X142400000Y-105284365D03*
X144940000Y-105284365D03*
X122080000Y-102744365D03*
X124620000Y-102744365D03*
X127160000Y-102744365D03*
X129700000Y-102744365D03*
X132240000Y-102744365D03*
X134780000Y-102744365D03*
X137320000Y-102744365D03*
X139860000Y-102744365D03*
X142400000Y-102744365D03*
X144940000Y-102744365D03*
X122080000Y-100204365D03*
X124620000Y-100204365D03*
X127160000Y-100204365D03*
X129700000Y-100204365D03*
X132240000Y-100204365D03*
X134780000Y-100204365D03*
X137320000Y-100204365D03*
X139860000Y-100204365D03*
X142400000Y-100204365D03*
X144940000Y-100204365D03*
X122080000Y-97664365D03*
X124620000Y-97664365D03*
X127160000Y-97664365D03*
X129700000Y-97664365D03*
X132240000Y-97664365D03*
X134780000Y-97664365D03*
X137320000Y-97664365D03*
X139860000Y-97664365D03*
X142400000Y-97664365D03*
X144940000Y-97664365D03*
X122080000Y-95124365D03*
X124620000Y-95124365D03*
X127160000Y-95124365D03*
X129700000Y-95124365D03*
X132240000Y-95124365D03*
X134780000Y-95124365D03*
X137320000Y-95124365D03*
X139860000Y-95124365D03*
X142400000Y-95124365D03*
X144940000Y-95124365D03*
X122080000Y-92584365D03*
X124620000Y-92584365D03*
X127160000Y-92584365D03*
X129700000Y-92584365D03*
X132240000Y-92584365D03*
X134780000Y-92584365D03*
X137320000Y-92584365D03*
X139860000Y-92584365D03*
X142400000Y-92584365D03*
X144940000Y-92584365D03*
%TD*%
%TO.C,REF\u002A\u002A*%
X96680000Y-64644365D03*
X99220000Y-64644365D03*
X101760000Y-64644365D03*
X104300000Y-64644365D03*
X106840000Y-64644365D03*
X109380000Y-64644365D03*
X111920000Y-64644365D03*
X114460000Y-64644365D03*
X117000000Y-64644365D03*
X119540000Y-64644365D03*
X96680000Y-62104365D03*
X99220000Y-62104365D03*
X101760000Y-62104365D03*
X104300000Y-62104365D03*
X106840000Y-62104365D03*
X109380000Y-62104365D03*
X111920000Y-62104365D03*
X114460000Y-62104365D03*
X117000000Y-62104365D03*
X119540000Y-62104365D03*
X96680000Y-59564365D03*
X99220000Y-59564365D03*
X101760000Y-59564365D03*
X104300000Y-59564365D03*
X106840000Y-59564365D03*
X109380000Y-59564365D03*
X111920000Y-59564365D03*
X114460000Y-59564365D03*
X117000000Y-59564365D03*
X119540000Y-59564365D03*
X96680000Y-57024365D03*
X99220000Y-57024365D03*
X101760000Y-57024365D03*
X104300000Y-57024365D03*
X106840000Y-57024365D03*
X109380000Y-57024365D03*
X111920000Y-57024365D03*
X114460000Y-57024365D03*
X117000000Y-57024365D03*
X119540000Y-57024365D03*
X96680000Y-54484365D03*
X99220000Y-54484365D03*
X101760000Y-54484365D03*
X104300000Y-54484365D03*
X106840000Y-54484365D03*
X109380000Y-54484365D03*
X111920000Y-54484365D03*
X114460000Y-54484365D03*
X117000000Y-54484365D03*
X119540000Y-54484365D03*
X96680000Y-51944365D03*
X99220000Y-51944365D03*
X101760000Y-51944365D03*
X104300000Y-51944365D03*
X106840000Y-51944365D03*
X109380000Y-51944365D03*
X111920000Y-51944365D03*
X114460000Y-51944365D03*
X117000000Y-51944365D03*
X119540000Y-51944365D03*
X96680000Y-49404365D03*
X99220000Y-49404365D03*
X101760000Y-49404365D03*
X104300000Y-49404365D03*
X106840000Y-49404365D03*
X109380000Y-49404365D03*
X111920000Y-49404365D03*
X114460000Y-49404365D03*
X117000000Y-49404365D03*
X119540000Y-49404365D03*
X96680000Y-46864365D03*
X99220000Y-46864365D03*
X101760000Y-46864365D03*
X104300000Y-46864365D03*
X106840000Y-46864365D03*
X109380000Y-46864365D03*
X111920000Y-46864365D03*
X114460000Y-46864365D03*
X117000000Y-46864365D03*
X119540000Y-46864365D03*
X96680000Y-44324365D03*
X99220000Y-44324365D03*
X101760000Y-44324365D03*
X104300000Y-44324365D03*
X106840000Y-44324365D03*
X109380000Y-44324365D03*
X111920000Y-44324365D03*
X114460000Y-44324365D03*
X117000000Y-44324365D03*
X119540000Y-44324365D03*
X96680000Y-41784365D03*
X99220000Y-41784365D03*
X101760000Y-41784365D03*
X104300000Y-41784365D03*
X106840000Y-41784365D03*
X109380000Y-41784365D03*
X111920000Y-41784365D03*
X114460000Y-41784365D03*
X117000000Y-41784365D03*
X119540000Y-41784365D03*
%TD*%
%TO.C,REF\u002A\u002A*%
X147480000Y-115444365D03*
X150020000Y-115444365D03*
X152560000Y-115444365D03*
X155100000Y-115444365D03*
X157640000Y-115444365D03*
X160180000Y-115444365D03*
X162720000Y-115444365D03*
X165260000Y-115444365D03*
X167800000Y-115444365D03*
X170340000Y-115444365D03*
X147480000Y-112904365D03*
X150020000Y-112904365D03*
X152560000Y-112904365D03*
X155100000Y-112904365D03*
X157640000Y-112904365D03*
X160180000Y-112904365D03*
X162720000Y-112904365D03*
X165260000Y-112904365D03*
X167800000Y-112904365D03*
X170340000Y-112904365D03*
X147480000Y-110364365D03*
X150020000Y-110364365D03*
X152560000Y-110364365D03*
X155100000Y-110364365D03*
X157640000Y-110364365D03*
X160180000Y-110364365D03*
X162720000Y-110364365D03*
X165260000Y-110364365D03*
X167800000Y-110364365D03*
X170340000Y-110364365D03*
X147480000Y-107824365D03*
X150020000Y-107824365D03*
X152560000Y-107824365D03*
X155100000Y-107824365D03*
X157640000Y-107824365D03*
X160180000Y-107824365D03*
X162720000Y-107824365D03*
X165260000Y-107824365D03*
X167800000Y-107824365D03*
X170340000Y-107824365D03*
X147480000Y-105284365D03*
X150020000Y-105284365D03*
X152560000Y-105284365D03*
X155100000Y-105284365D03*
X157640000Y-105284365D03*
X160180000Y-105284365D03*
X162720000Y-105284365D03*
X165260000Y-105284365D03*
X167800000Y-105284365D03*
X170340000Y-105284365D03*
X147480000Y-102744365D03*
X150020000Y-102744365D03*
X152560000Y-102744365D03*
X155100000Y-102744365D03*
X157640000Y-102744365D03*
X160180000Y-102744365D03*
X162720000Y-102744365D03*
X165260000Y-102744365D03*
X167800000Y-102744365D03*
X170340000Y-102744365D03*
X147480000Y-100204365D03*
X150020000Y-100204365D03*
X152560000Y-100204365D03*
X155100000Y-100204365D03*
X157640000Y-100204365D03*
X160180000Y-100204365D03*
X162720000Y-100204365D03*
X165260000Y-100204365D03*
X167800000Y-100204365D03*
X170340000Y-100204365D03*
X147480000Y-97664365D03*
X150020000Y-97664365D03*
X152560000Y-97664365D03*
X155100000Y-97664365D03*
X157640000Y-97664365D03*
X160180000Y-97664365D03*
X162720000Y-97664365D03*
X165260000Y-97664365D03*
X167800000Y-97664365D03*
X170340000Y-97664365D03*
X147480000Y-95124365D03*
X150020000Y-95124365D03*
X152560000Y-95124365D03*
X155100000Y-95124365D03*
X157640000Y-95124365D03*
X160180000Y-95124365D03*
X162720000Y-95124365D03*
X165260000Y-95124365D03*
X167800000Y-95124365D03*
X170340000Y-95124365D03*
X147480000Y-92584365D03*
X150020000Y-92584365D03*
X152560000Y-92584365D03*
X155100000Y-92584365D03*
X157640000Y-92584365D03*
X160180000Y-92584365D03*
X162720000Y-92584365D03*
X165260000Y-92584365D03*
X167800000Y-92584365D03*
X170340000Y-92584365D03*
%TD*%
%TO.C,REF\u002A\u002A*%
X223680000Y-115444365D03*
X226220000Y-115444365D03*
X228760000Y-115444365D03*
X231300000Y-115444365D03*
X233840000Y-115444365D03*
X236380000Y-115444365D03*
X238920000Y-115444365D03*
X241460000Y-115444365D03*
X244000000Y-115444365D03*
X246540000Y-115444365D03*
X223680000Y-112904365D03*
X226220000Y-112904365D03*
X228760000Y-112904365D03*
X231300000Y-112904365D03*
X233840000Y-112904365D03*
X236380000Y-112904365D03*
X238920000Y-112904365D03*
X241460000Y-112904365D03*
X244000000Y-112904365D03*
X246540000Y-112904365D03*
X223680000Y-110364365D03*
X226220000Y-110364365D03*
X228760000Y-110364365D03*
X231300000Y-110364365D03*
X233840000Y-110364365D03*
X236380000Y-110364365D03*
X238920000Y-110364365D03*
X241460000Y-110364365D03*
X244000000Y-110364365D03*
X246540000Y-110364365D03*
X223680000Y-107824365D03*
X226220000Y-107824365D03*
X228760000Y-107824365D03*
X231300000Y-107824365D03*
X233840000Y-107824365D03*
X236380000Y-107824365D03*
X238920000Y-107824365D03*
X241460000Y-107824365D03*
X244000000Y-107824365D03*
X246540000Y-107824365D03*
X223680000Y-105284365D03*
X226220000Y-105284365D03*
X228760000Y-105284365D03*
X231300000Y-105284365D03*
X233840000Y-105284365D03*
X236380000Y-105284365D03*
X238920000Y-105284365D03*
X241460000Y-105284365D03*
X244000000Y-105284365D03*
X246540000Y-105284365D03*
X223680000Y-102744365D03*
X226220000Y-102744365D03*
X228760000Y-102744365D03*
X231300000Y-102744365D03*
X233840000Y-102744365D03*
X236380000Y-102744365D03*
X238920000Y-102744365D03*
X241460000Y-102744365D03*
X244000000Y-102744365D03*
X246540000Y-102744365D03*
X223680000Y-100204365D03*
X226220000Y-100204365D03*
X228760000Y-100204365D03*
X231300000Y-100204365D03*
X233840000Y-100204365D03*
X236380000Y-100204365D03*
X238920000Y-100204365D03*
X241460000Y-100204365D03*
X244000000Y-100204365D03*
X246540000Y-100204365D03*
X223680000Y-97664365D03*
X226220000Y-97664365D03*
X228760000Y-97664365D03*
X231300000Y-97664365D03*
X233840000Y-97664365D03*
X236380000Y-97664365D03*
X238920000Y-97664365D03*
X241460000Y-97664365D03*
X244000000Y-97664365D03*
X246540000Y-97664365D03*
X223680000Y-95124365D03*
X226220000Y-95124365D03*
X228760000Y-95124365D03*
X231300000Y-95124365D03*
X233840000Y-95124365D03*
X236380000Y-95124365D03*
X238920000Y-95124365D03*
X241460000Y-95124365D03*
X244000000Y-95124365D03*
X246540000Y-95124365D03*
X223680000Y-92584365D03*
X226220000Y-92584365D03*
X228760000Y-92584365D03*
X231300000Y-92584365D03*
X233840000Y-92584365D03*
X236380000Y-92584365D03*
X238920000Y-92584365D03*
X241460000Y-92584365D03*
X244000000Y-92584365D03*
X246540000Y-92584365D03*
%TD*%
%TO.C,REF\u002A\u002A*%
X147480000Y-90044365D03*
X150020000Y-90044365D03*
X152560000Y-90044365D03*
X155100000Y-90044365D03*
X157640000Y-90044365D03*
X160180000Y-90044365D03*
X162720000Y-90044365D03*
X165260000Y-90044365D03*
X167800000Y-90044365D03*
X170340000Y-90044365D03*
X147480000Y-87504365D03*
X150020000Y-87504365D03*
X152560000Y-87504365D03*
X155100000Y-87504365D03*
X157640000Y-87504365D03*
X160180000Y-87504365D03*
X162720000Y-87504365D03*
X165260000Y-87504365D03*
X167800000Y-87504365D03*
X170340000Y-87504365D03*
X147480000Y-84964365D03*
X150020000Y-84964365D03*
X152560000Y-84964365D03*
X155100000Y-84964365D03*
X157640000Y-84964365D03*
X160180000Y-84964365D03*
X162720000Y-84964365D03*
X165260000Y-84964365D03*
X167800000Y-84964365D03*
X170340000Y-84964365D03*
X147480000Y-82424365D03*
X150020000Y-82424365D03*
X152560000Y-82424365D03*
X155100000Y-82424365D03*
X157640000Y-82424365D03*
X160180000Y-82424365D03*
X162720000Y-82424365D03*
X165260000Y-82424365D03*
X167800000Y-82424365D03*
X170340000Y-82424365D03*
X147480000Y-79884365D03*
X150020000Y-79884365D03*
X152560000Y-79884365D03*
X155100000Y-79884365D03*
X157640000Y-79884365D03*
X160180000Y-79884365D03*
X162720000Y-79884365D03*
X165260000Y-79884365D03*
X167800000Y-79884365D03*
X170340000Y-79884365D03*
X147480000Y-77344365D03*
X150020000Y-77344365D03*
X152560000Y-77344365D03*
X155100000Y-77344365D03*
X157640000Y-77344365D03*
X160180000Y-77344365D03*
X162720000Y-77344365D03*
X165260000Y-77344365D03*
X167800000Y-77344365D03*
X170340000Y-77344365D03*
X147480000Y-74804365D03*
X150020000Y-74804365D03*
X152560000Y-74804365D03*
X155100000Y-74804365D03*
X157640000Y-74804365D03*
X160180000Y-74804365D03*
X162720000Y-74804365D03*
X165260000Y-74804365D03*
X167800000Y-74804365D03*
X170340000Y-74804365D03*
X147480000Y-72264365D03*
X150020000Y-72264365D03*
X152560000Y-72264365D03*
X155100000Y-72264365D03*
X157640000Y-72264365D03*
X160180000Y-72264365D03*
X162720000Y-72264365D03*
X165260000Y-72264365D03*
X167800000Y-72264365D03*
X170340000Y-72264365D03*
X147480000Y-69724365D03*
X150020000Y-69724365D03*
X152560000Y-69724365D03*
X155100000Y-69724365D03*
X157640000Y-69724365D03*
X160180000Y-69724365D03*
X162720000Y-69724365D03*
X165260000Y-69724365D03*
X167800000Y-69724365D03*
X170340000Y-69724365D03*
X147480000Y-67184365D03*
X150020000Y-67184365D03*
X152560000Y-67184365D03*
X155100000Y-67184365D03*
X157640000Y-67184365D03*
X160180000Y-67184365D03*
X162720000Y-67184365D03*
X165260000Y-67184365D03*
X167800000Y-67184365D03*
X170340000Y-67184365D03*
%TD*%
%TO.C,REF\u002A\u002A*%
X172880000Y-90044365D03*
X175420000Y-90044365D03*
X177960000Y-90044365D03*
X180500000Y-90044365D03*
X183040000Y-90044365D03*
X185580000Y-90044365D03*
X188120000Y-90044365D03*
X190660000Y-90044365D03*
X193200000Y-90044365D03*
X195740000Y-90044365D03*
X172880000Y-87504365D03*
X175420000Y-87504365D03*
X177960000Y-87504365D03*
X180500000Y-87504365D03*
X183040000Y-87504365D03*
X185580000Y-87504365D03*
X188120000Y-87504365D03*
X190660000Y-87504365D03*
X193200000Y-87504365D03*
X195740000Y-87504365D03*
X172880000Y-84964365D03*
X175420000Y-84964365D03*
X177960000Y-84964365D03*
X180500000Y-84964365D03*
X183040000Y-84964365D03*
X185580000Y-84964365D03*
X188120000Y-84964365D03*
X190660000Y-84964365D03*
X193200000Y-84964365D03*
X195740000Y-84964365D03*
X172880000Y-82424365D03*
X175420000Y-82424365D03*
X177960000Y-82424365D03*
X180500000Y-82424365D03*
X183040000Y-82424365D03*
X185580000Y-82424365D03*
X188120000Y-82424365D03*
X190660000Y-82424365D03*
X193200000Y-82424365D03*
X195740000Y-82424365D03*
X172880000Y-79884365D03*
X175420000Y-79884365D03*
X177960000Y-79884365D03*
X180500000Y-79884365D03*
X183040000Y-79884365D03*
X185580000Y-79884365D03*
X188120000Y-79884365D03*
X190660000Y-79884365D03*
X193200000Y-79884365D03*
X195740000Y-79884365D03*
X172880000Y-77344365D03*
X175420000Y-77344365D03*
X177960000Y-77344365D03*
X180500000Y-77344365D03*
X183040000Y-77344365D03*
X185580000Y-77344365D03*
X188120000Y-77344365D03*
X190660000Y-77344365D03*
X193200000Y-77344365D03*
X195740000Y-77344365D03*
X172880000Y-74804365D03*
X175420000Y-74804365D03*
X177960000Y-74804365D03*
X180500000Y-74804365D03*
X183040000Y-74804365D03*
X185580000Y-74804365D03*
X188120000Y-74804365D03*
X190660000Y-74804365D03*
X193200000Y-74804365D03*
X195740000Y-74804365D03*
X172880000Y-72264365D03*
X175420000Y-72264365D03*
X177960000Y-72264365D03*
X180500000Y-72264365D03*
X183040000Y-72264365D03*
X185580000Y-72264365D03*
X188120000Y-72264365D03*
X190660000Y-72264365D03*
X193200000Y-72264365D03*
X195740000Y-72264365D03*
X172880000Y-69724365D03*
X175420000Y-69724365D03*
X177960000Y-69724365D03*
X180500000Y-69724365D03*
X183040000Y-69724365D03*
X185580000Y-69724365D03*
X188120000Y-69724365D03*
X190660000Y-69724365D03*
X193200000Y-69724365D03*
X195740000Y-69724365D03*
X172880000Y-67184365D03*
X175420000Y-67184365D03*
X177960000Y-67184365D03*
X180500000Y-67184365D03*
X183040000Y-67184365D03*
X185580000Y-67184365D03*
X188120000Y-67184365D03*
X190660000Y-67184365D03*
X193200000Y-67184365D03*
X195740000Y-67184365D03*
%TD*%
%TO.C,REF\u002A\u002A*%
X172880000Y-64644365D03*
X175420000Y-64644365D03*
X177960000Y-64644365D03*
X180500000Y-64644365D03*
X183040000Y-64644365D03*
X185580000Y-64644365D03*
X188120000Y-64644365D03*
X190660000Y-64644365D03*
X193200000Y-64644365D03*
X195740000Y-64644365D03*
X172880000Y-62104365D03*
X175420000Y-62104365D03*
X177960000Y-62104365D03*
X180500000Y-62104365D03*
X183040000Y-62104365D03*
X185580000Y-62104365D03*
X188120000Y-62104365D03*
X190660000Y-62104365D03*
X193200000Y-62104365D03*
X195740000Y-62104365D03*
X172880000Y-59564365D03*
X175420000Y-59564365D03*
X177960000Y-59564365D03*
X180500000Y-59564365D03*
X183040000Y-59564365D03*
X185580000Y-59564365D03*
X188120000Y-59564365D03*
X190660000Y-59564365D03*
X193200000Y-59564365D03*
X195740000Y-59564365D03*
X172880000Y-57024365D03*
X175420000Y-57024365D03*
X177960000Y-57024365D03*
X180500000Y-57024365D03*
X183040000Y-57024365D03*
X185580000Y-57024365D03*
X188120000Y-57024365D03*
X190660000Y-57024365D03*
X193200000Y-57024365D03*
X195740000Y-57024365D03*
X172880000Y-54484365D03*
X175420000Y-54484365D03*
X177960000Y-54484365D03*
X180500000Y-54484365D03*
X183040000Y-54484365D03*
X185580000Y-54484365D03*
X188120000Y-54484365D03*
X190660000Y-54484365D03*
X193200000Y-54484365D03*
X195740000Y-54484365D03*
X172880000Y-51944365D03*
X175420000Y-51944365D03*
X177960000Y-51944365D03*
X180500000Y-51944365D03*
X183040000Y-51944365D03*
X185580000Y-51944365D03*
X188120000Y-51944365D03*
X190660000Y-51944365D03*
X193200000Y-51944365D03*
X195740000Y-51944365D03*
X172880000Y-49404365D03*
X175420000Y-49404365D03*
X177960000Y-49404365D03*
X180500000Y-49404365D03*
X183040000Y-49404365D03*
X185580000Y-49404365D03*
X188120000Y-49404365D03*
X190660000Y-49404365D03*
X193200000Y-49404365D03*
X195740000Y-49404365D03*
X172880000Y-46864365D03*
X175420000Y-46864365D03*
X177960000Y-46864365D03*
X180500000Y-46864365D03*
X183040000Y-46864365D03*
X185580000Y-46864365D03*
X188120000Y-46864365D03*
X190660000Y-46864365D03*
X193200000Y-46864365D03*
X195740000Y-46864365D03*
X172880000Y-44324365D03*
X175420000Y-44324365D03*
X177960000Y-44324365D03*
X180500000Y-44324365D03*
X183040000Y-44324365D03*
X185580000Y-44324365D03*
X188120000Y-44324365D03*
X190660000Y-44324365D03*
X193200000Y-44324365D03*
X195740000Y-44324365D03*
X172880000Y-41784365D03*
X175420000Y-41784365D03*
X177960000Y-41784365D03*
X180500000Y-41784365D03*
X183040000Y-41784365D03*
X185580000Y-41784365D03*
X188120000Y-41784365D03*
X190660000Y-41784365D03*
X193200000Y-41784365D03*
X195740000Y-41784365D03*
%TD*%
%TO.C,REF\u002A\u002A*%
X122080000Y-90044365D03*
X124620000Y-90044365D03*
X127160000Y-90044365D03*
X129700000Y-90044365D03*
X132240000Y-90044365D03*
X134780000Y-90044365D03*
X137320000Y-90044365D03*
X139860000Y-90044365D03*
X142400000Y-90044365D03*
X144940000Y-90044365D03*
X122080000Y-87504365D03*
X124620000Y-87504365D03*
X127160000Y-87504365D03*
X129700000Y-87504365D03*
X132240000Y-87504365D03*
X134780000Y-87504365D03*
X137320000Y-87504365D03*
X139860000Y-87504365D03*
X142400000Y-87504365D03*
X144940000Y-87504365D03*
X122080000Y-84964365D03*
X124620000Y-84964365D03*
X127160000Y-84964365D03*
X129700000Y-84964365D03*
X132240000Y-84964365D03*
X134780000Y-84964365D03*
X137320000Y-84964365D03*
X139860000Y-84964365D03*
X142400000Y-84964365D03*
X144940000Y-84964365D03*
X122080000Y-82424365D03*
X124620000Y-82424365D03*
X127160000Y-82424365D03*
X129700000Y-82424365D03*
X132240000Y-82424365D03*
X134780000Y-82424365D03*
X137320000Y-82424365D03*
X139860000Y-82424365D03*
X142400000Y-82424365D03*
X144940000Y-82424365D03*
X122080000Y-79884365D03*
X124620000Y-79884365D03*
X127160000Y-79884365D03*
X129700000Y-79884365D03*
X132240000Y-79884365D03*
X134780000Y-79884365D03*
X137320000Y-79884365D03*
X139860000Y-79884365D03*
X142400000Y-79884365D03*
X144940000Y-79884365D03*
X122080000Y-77344365D03*
X124620000Y-77344365D03*
X127160000Y-77344365D03*
X129700000Y-77344365D03*
X132240000Y-77344365D03*
X134780000Y-77344365D03*
X137320000Y-77344365D03*
X139860000Y-77344365D03*
X142400000Y-77344365D03*
X144940000Y-77344365D03*
X122080000Y-74804365D03*
X124620000Y-74804365D03*
X127160000Y-74804365D03*
X129700000Y-74804365D03*
X132240000Y-74804365D03*
X134780000Y-74804365D03*
X137320000Y-74804365D03*
X139860000Y-74804365D03*
X142400000Y-74804365D03*
X144940000Y-74804365D03*
X122080000Y-72264365D03*
X124620000Y-72264365D03*
X127160000Y-72264365D03*
X129700000Y-72264365D03*
X132240000Y-72264365D03*
X134780000Y-72264365D03*
X137320000Y-72264365D03*
X139860000Y-72264365D03*
X142400000Y-72264365D03*
X144940000Y-72264365D03*
X122080000Y-69724365D03*
X124620000Y-69724365D03*
X127160000Y-69724365D03*
X129700000Y-69724365D03*
X132240000Y-69724365D03*
X134780000Y-69724365D03*
X137320000Y-69724365D03*
X139860000Y-69724365D03*
X142400000Y-69724365D03*
X144940000Y-69724365D03*
X122080000Y-67184365D03*
X124620000Y-67184365D03*
X127160000Y-67184365D03*
X129700000Y-67184365D03*
X132240000Y-67184365D03*
X134780000Y-67184365D03*
X137320000Y-67184365D03*
X139860000Y-67184365D03*
X142400000Y-67184365D03*
X144940000Y-67184365D03*
%TD*%
%TO.C,REF\u002A\u002A*%
X96680000Y-90044365D03*
X99220000Y-90044365D03*
X101760000Y-90044365D03*
X104300000Y-90044365D03*
X106840000Y-90044365D03*
X109380000Y-90044365D03*
X111920000Y-90044365D03*
X114460000Y-90044365D03*
X117000000Y-90044365D03*
X119540000Y-90044365D03*
X96680000Y-87504365D03*
X99220000Y-87504365D03*
X101760000Y-87504365D03*
X104300000Y-87504365D03*
X106840000Y-87504365D03*
X109380000Y-87504365D03*
X111920000Y-87504365D03*
X114460000Y-87504365D03*
X117000000Y-87504365D03*
X119540000Y-87504365D03*
X96680000Y-84964365D03*
X99220000Y-84964365D03*
X101760000Y-84964365D03*
X104300000Y-84964365D03*
X106840000Y-84964365D03*
X109380000Y-84964365D03*
X111920000Y-84964365D03*
X114460000Y-84964365D03*
X117000000Y-84964365D03*
X119540000Y-84964365D03*
X96680000Y-82424365D03*
X99220000Y-82424365D03*
X101760000Y-82424365D03*
X104300000Y-82424365D03*
X106840000Y-82424365D03*
X109380000Y-82424365D03*
X111920000Y-82424365D03*
X114460000Y-82424365D03*
X117000000Y-82424365D03*
X119540000Y-82424365D03*
X96680000Y-79884365D03*
X99220000Y-79884365D03*
X101760000Y-79884365D03*
X104300000Y-79884365D03*
X106840000Y-79884365D03*
X109380000Y-79884365D03*
X111920000Y-79884365D03*
X114460000Y-79884365D03*
X117000000Y-79884365D03*
X119540000Y-79884365D03*
X96680000Y-77344365D03*
X99220000Y-77344365D03*
X101760000Y-77344365D03*
X104300000Y-77344365D03*
X106840000Y-77344365D03*
X109380000Y-77344365D03*
X111920000Y-77344365D03*
X114460000Y-77344365D03*
X117000000Y-77344365D03*
X119540000Y-77344365D03*
X96680000Y-74804365D03*
X99220000Y-74804365D03*
X101760000Y-74804365D03*
X104300000Y-74804365D03*
X106840000Y-74804365D03*
X109380000Y-74804365D03*
X111920000Y-74804365D03*
X114460000Y-74804365D03*
X117000000Y-74804365D03*
X119540000Y-74804365D03*
X96680000Y-72264365D03*
X99220000Y-72264365D03*
X101760000Y-72264365D03*
X104300000Y-72264365D03*
X106840000Y-72264365D03*
X109380000Y-72264365D03*
X111920000Y-72264365D03*
X114460000Y-72264365D03*
X117000000Y-72264365D03*
X119540000Y-72264365D03*
X96680000Y-69724365D03*
X99220000Y-69724365D03*
X101760000Y-69724365D03*
X104300000Y-69724365D03*
X106840000Y-69724365D03*
X109380000Y-69724365D03*
X111920000Y-69724365D03*
X114460000Y-69724365D03*
X117000000Y-69724365D03*
X119540000Y-69724365D03*
X96680000Y-67184365D03*
X99220000Y-67184365D03*
X101760000Y-67184365D03*
X104300000Y-67184365D03*
X106840000Y-67184365D03*
X109380000Y-67184365D03*
X111920000Y-67184365D03*
X114460000Y-67184365D03*
X117000000Y-67184365D03*
X119540000Y-67184365D03*
%TD*%
%TO.C,REF\u002A\u002A*%
X198280000Y-90044365D03*
X200820000Y-90044365D03*
X203360000Y-90044365D03*
X205900000Y-90044365D03*
X208440000Y-90044365D03*
X210980000Y-90044365D03*
X213520000Y-90044365D03*
X216060000Y-90044365D03*
X218600000Y-90044365D03*
X221140000Y-90044365D03*
X198280000Y-87504365D03*
X200820000Y-87504365D03*
X203360000Y-87504365D03*
X205900000Y-87504365D03*
X208440000Y-87504365D03*
X210980000Y-87504365D03*
X213520000Y-87504365D03*
X216060000Y-87504365D03*
X218600000Y-87504365D03*
X221140000Y-87504365D03*
X198280000Y-84964365D03*
X200820000Y-84964365D03*
X203360000Y-84964365D03*
X205900000Y-84964365D03*
X208440000Y-84964365D03*
X210980000Y-84964365D03*
X213520000Y-84964365D03*
X216060000Y-84964365D03*
X218600000Y-84964365D03*
X221140000Y-84964365D03*
X198280000Y-82424365D03*
X200820000Y-82424365D03*
X203360000Y-82424365D03*
X205900000Y-82424365D03*
X208440000Y-82424365D03*
X210980000Y-82424365D03*
X213520000Y-82424365D03*
X216060000Y-82424365D03*
X218600000Y-82424365D03*
X221140000Y-82424365D03*
X198280000Y-79884365D03*
X200820000Y-79884365D03*
X203360000Y-79884365D03*
X205900000Y-79884365D03*
X208440000Y-79884365D03*
X210980000Y-79884365D03*
X213520000Y-79884365D03*
X216060000Y-79884365D03*
X218600000Y-79884365D03*
X221140000Y-79884365D03*
X198280000Y-77344365D03*
X200820000Y-77344365D03*
X203360000Y-77344365D03*
X205900000Y-77344365D03*
X208440000Y-77344365D03*
X210980000Y-77344365D03*
X213520000Y-77344365D03*
X216060000Y-77344365D03*
X218600000Y-77344365D03*
X221140000Y-77344365D03*
X198280000Y-74804365D03*
X200820000Y-74804365D03*
X203360000Y-74804365D03*
X205900000Y-74804365D03*
X208440000Y-74804365D03*
X210980000Y-74804365D03*
X213520000Y-74804365D03*
X216060000Y-74804365D03*
X218600000Y-74804365D03*
X221140000Y-74804365D03*
X198280000Y-72264365D03*
X200820000Y-72264365D03*
X203360000Y-72264365D03*
X205900000Y-72264365D03*
X208440000Y-72264365D03*
X210980000Y-72264365D03*
X213520000Y-72264365D03*
X216060000Y-72264365D03*
X218600000Y-72264365D03*
X221140000Y-72264365D03*
X198280000Y-69724365D03*
X200820000Y-69724365D03*
X203360000Y-69724365D03*
X205900000Y-69724365D03*
X208440000Y-69724365D03*
X210980000Y-69724365D03*
X213520000Y-69724365D03*
X216060000Y-69724365D03*
X218600000Y-69724365D03*
X221140000Y-69724365D03*
X198280000Y-67184365D03*
X200820000Y-67184365D03*
X203360000Y-67184365D03*
X205900000Y-67184365D03*
X208440000Y-67184365D03*
X210980000Y-67184365D03*
X213520000Y-67184365D03*
X216060000Y-67184365D03*
X218600000Y-67184365D03*
X221140000Y-67184365D03*
%TD*%
%TO.C,REF\u002A\u002A*%
X147480000Y-64644365D03*
X150020000Y-64644365D03*
X152560000Y-64644365D03*
X155100000Y-64644365D03*
X157640000Y-64644365D03*
X160180000Y-64644365D03*
X162720000Y-64644365D03*
X165260000Y-64644365D03*
X167800000Y-64644365D03*
X170340000Y-64644365D03*
X147480000Y-62104365D03*
X150020000Y-62104365D03*
X152560000Y-62104365D03*
X155100000Y-62104365D03*
X157640000Y-62104365D03*
X160180000Y-62104365D03*
X162720000Y-62104365D03*
X165260000Y-62104365D03*
X167800000Y-62104365D03*
X170340000Y-62104365D03*
X147480000Y-59564365D03*
X150020000Y-59564365D03*
X152560000Y-59564365D03*
X155100000Y-59564365D03*
X157640000Y-59564365D03*
X160180000Y-59564365D03*
X162720000Y-59564365D03*
X165260000Y-59564365D03*
X167800000Y-59564365D03*
X170340000Y-59564365D03*
X147480000Y-57024365D03*
X150020000Y-57024365D03*
X152560000Y-57024365D03*
X155100000Y-57024365D03*
X157640000Y-57024365D03*
X160180000Y-57024365D03*
X162720000Y-57024365D03*
X165260000Y-57024365D03*
X167800000Y-57024365D03*
X170340000Y-57024365D03*
X147480000Y-54484365D03*
X150020000Y-54484365D03*
X152560000Y-54484365D03*
X155100000Y-54484365D03*
X157640000Y-54484365D03*
X160180000Y-54484365D03*
X162720000Y-54484365D03*
X165260000Y-54484365D03*
X167800000Y-54484365D03*
X170340000Y-54484365D03*
X147480000Y-51944365D03*
X150020000Y-51944365D03*
X152560000Y-51944365D03*
X155100000Y-51944365D03*
X157640000Y-51944365D03*
X160180000Y-51944365D03*
X162720000Y-51944365D03*
X165260000Y-51944365D03*
X167800000Y-51944365D03*
X170340000Y-51944365D03*
X147480000Y-49404365D03*
X150020000Y-49404365D03*
X152560000Y-49404365D03*
X155100000Y-49404365D03*
X157640000Y-49404365D03*
X160180000Y-49404365D03*
X162720000Y-49404365D03*
X165260000Y-49404365D03*
X167800000Y-49404365D03*
X170340000Y-49404365D03*
X147480000Y-46864365D03*
X150020000Y-46864365D03*
X152560000Y-46864365D03*
X155100000Y-46864365D03*
X157640000Y-46864365D03*
X160180000Y-46864365D03*
X162720000Y-46864365D03*
X165260000Y-46864365D03*
X167800000Y-46864365D03*
X170340000Y-46864365D03*
X147480000Y-44324365D03*
X150020000Y-44324365D03*
X152560000Y-44324365D03*
X155100000Y-44324365D03*
X157640000Y-44324365D03*
X160180000Y-44324365D03*
X162720000Y-44324365D03*
X165260000Y-44324365D03*
X167800000Y-44324365D03*
X170340000Y-44324365D03*
X147480000Y-41784365D03*
X150020000Y-41784365D03*
X152560000Y-41784365D03*
X155100000Y-41784365D03*
X157640000Y-41784365D03*
X160180000Y-41784365D03*
X162720000Y-41784365D03*
X165260000Y-41784365D03*
X167800000Y-41784365D03*
X170340000Y-41784365D03*
%TD*%
%TO.C,REF\u002A\u002A*%
X122080000Y-64644365D03*
X124620000Y-64644365D03*
X127160000Y-64644365D03*
X129700000Y-64644365D03*
X132240000Y-64644365D03*
X134780000Y-64644365D03*
X137320000Y-64644365D03*
X139860000Y-64644365D03*
X142400000Y-64644365D03*
X144940000Y-64644365D03*
X122080000Y-62104365D03*
X124620000Y-62104365D03*
X127160000Y-62104365D03*
X129700000Y-62104365D03*
X132240000Y-62104365D03*
X134780000Y-62104365D03*
X137320000Y-62104365D03*
X139860000Y-62104365D03*
X142400000Y-62104365D03*
X144940000Y-62104365D03*
X122080000Y-59564365D03*
X124620000Y-59564365D03*
X127160000Y-59564365D03*
X129700000Y-59564365D03*
X132240000Y-59564365D03*
X134780000Y-59564365D03*
X137320000Y-59564365D03*
X139860000Y-59564365D03*
X142400000Y-59564365D03*
X144940000Y-59564365D03*
X122080000Y-57024365D03*
X124620000Y-57024365D03*
X127160000Y-57024365D03*
X129700000Y-57024365D03*
X132240000Y-57024365D03*
X134780000Y-57024365D03*
X137320000Y-57024365D03*
X139860000Y-57024365D03*
X142400000Y-57024365D03*
X144940000Y-57024365D03*
X122080000Y-54484365D03*
X124620000Y-54484365D03*
X127160000Y-54484365D03*
X129700000Y-54484365D03*
X132240000Y-54484365D03*
X134780000Y-54484365D03*
X137320000Y-54484365D03*
X139860000Y-54484365D03*
X142400000Y-54484365D03*
X144940000Y-54484365D03*
X122080000Y-51944365D03*
X124620000Y-51944365D03*
X127160000Y-51944365D03*
X129700000Y-51944365D03*
X132240000Y-51944365D03*
X134780000Y-51944365D03*
X137320000Y-51944365D03*
X139860000Y-51944365D03*
X142400000Y-51944365D03*
X144940000Y-51944365D03*
X122080000Y-49404365D03*
X124620000Y-49404365D03*
X127160000Y-49404365D03*
X129700000Y-49404365D03*
X132240000Y-49404365D03*
X134780000Y-49404365D03*
X137320000Y-49404365D03*
X139860000Y-49404365D03*
X142400000Y-49404365D03*
X144940000Y-49404365D03*
X122080000Y-46864365D03*
X124620000Y-46864365D03*
X127160000Y-46864365D03*
X129700000Y-46864365D03*
X132240000Y-46864365D03*
X134780000Y-46864365D03*
X137320000Y-46864365D03*
X139860000Y-46864365D03*
X142400000Y-46864365D03*
X144940000Y-46864365D03*
X122080000Y-44324365D03*
X124620000Y-44324365D03*
X127160000Y-44324365D03*
X129700000Y-44324365D03*
X132240000Y-44324365D03*
X134780000Y-44324365D03*
X137320000Y-44324365D03*
X139860000Y-44324365D03*
X142400000Y-44324365D03*
X144940000Y-44324365D03*
X122080000Y-41784365D03*
X124620000Y-41784365D03*
X127160000Y-41784365D03*
X129700000Y-41784365D03*
X132240000Y-41784365D03*
X134780000Y-41784365D03*
X137320000Y-41784365D03*
X139860000Y-41784365D03*
X142400000Y-41784365D03*
X144940000Y-41784365D03*
%TD*%
%TO.C,REF\u002A\u002A*%
X223680000Y-90044365D03*
X226220000Y-90044365D03*
X228760000Y-90044365D03*
X231300000Y-90044365D03*
X233840000Y-90044365D03*
X236380000Y-90044365D03*
X238920000Y-90044365D03*
X241460000Y-90044365D03*
X244000000Y-90044365D03*
X246540000Y-90044365D03*
X223680000Y-87504365D03*
X226220000Y-87504365D03*
X228760000Y-87504365D03*
X231300000Y-87504365D03*
X233840000Y-87504365D03*
X236380000Y-87504365D03*
X238920000Y-87504365D03*
X241460000Y-87504365D03*
X244000000Y-87504365D03*
X246540000Y-87504365D03*
X223680000Y-84964365D03*
X226220000Y-84964365D03*
X228760000Y-84964365D03*
X231300000Y-84964365D03*
X233840000Y-84964365D03*
X236380000Y-84964365D03*
X238920000Y-84964365D03*
X241460000Y-84964365D03*
X244000000Y-84964365D03*
X246540000Y-84964365D03*
X223680000Y-82424365D03*
X226220000Y-82424365D03*
X228760000Y-82424365D03*
X231300000Y-82424365D03*
X233840000Y-82424365D03*
X236380000Y-82424365D03*
X238920000Y-82424365D03*
X241460000Y-82424365D03*
X244000000Y-82424365D03*
X246540000Y-82424365D03*
X223680000Y-79884365D03*
X226220000Y-79884365D03*
X228760000Y-79884365D03*
X231300000Y-79884365D03*
X233840000Y-79884365D03*
X236380000Y-79884365D03*
X238920000Y-79884365D03*
X241460000Y-79884365D03*
X244000000Y-79884365D03*
X246540000Y-79884365D03*
X223680000Y-77344365D03*
X226220000Y-77344365D03*
X228760000Y-77344365D03*
X231300000Y-77344365D03*
X233840000Y-77344365D03*
X236380000Y-77344365D03*
X238920000Y-77344365D03*
X241460000Y-77344365D03*
X244000000Y-77344365D03*
X246540000Y-77344365D03*
X223680000Y-74804365D03*
X226220000Y-74804365D03*
X228760000Y-74804365D03*
X231300000Y-74804365D03*
X233840000Y-74804365D03*
X236380000Y-74804365D03*
X238920000Y-74804365D03*
X241460000Y-74804365D03*
X244000000Y-74804365D03*
X246540000Y-74804365D03*
X223680000Y-72264365D03*
X226220000Y-72264365D03*
X228760000Y-72264365D03*
X231300000Y-72264365D03*
X233840000Y-72264365D03*
X236380000Y-72264365D03*
X238920000Y-72264365D03*
X241460000Y-72264365D03*
X244000000Y-72264365D03*
X246540000Y-72264365D03*
X223680000Y-69724365D03*
X226220000Y-69724365D03*
X228760000Y-69724365D03*
X231300000Y-69724365D03*
X233840000Y-69724365D03*
X236380000Y-69724365D03*
X238920000Y-69724365D03*
X241460000Y-69724365D03*
X244000000Y-69724365D03*
X246540000Y-69724365D03*
X223680000Y-67184365D03*
X226220000Y-67184365D03*
X228760000Y-67184365D03*
X231300000Y-67184365D03*
X233840000Y-67184365D03*
X236380000Y-67184365D03*
X238920000Y-67184365D03*
X241460000Y-67184365D03*
X244000000Y-67184365D03*
X246540000Y-67184365D03*
%TD*%
%TO.C,REF\u002A\u002A*%
X198280000Y-115444365D03*
X200820000Y-115444365D03*
X203360000Y-115444365D03*
X205900000Y-115444365D03*
X208440000Y-115444365D03*
X210980000Y-115444365D03*
X213520000Y-115444365D03*
X216060000Y-115444365D03*
X218600000Y-115444365D03*
X221140000Y-115444365D03*
X198280000Y-112904365D03*
X200820000Y-112904365D03*
X203360000Y-112904365D03*
X205900000Y-112904365D03*
X208440000Y-112904365D03*
X210980000Y-112904365D03*
X213520000Y-112904365D03*
X216060000Y-112904365D03*
X218600000Y-112904365D03*
X221140000Y-112904365D03*
X198280000Y-110364365D03*
X200820000Y-110364365D03*
X203360000Y-110364365D03*
X205900000Y-110364365D03*
X208440000Y-110364365D03*
X210980000Y-110364365D03*
X213520000Y-110364365D03*
X216060000Y-110364365D03*
X218600000Y-110364365D03*
X221140000Y-110364365D03*
X198280000Y-107824365D03*
X200820000Y-107824365D03*
X203360000Y-107824365D03*
X205900000Y-107824365D03*
X208440000Y-107824365D03*
X210980000Y-107824365D03*
X213520000Y-107824365D03*
X216060000Y-107824365D03*
X218600000Y-107824365D03*
X221140000Y-107824365D03*
X198280000Y-105284365D03*
X200820000Y-105284365D03*
X203360000Y-105284365D03*
X205900000Y-105284365D03*
X208440000Y-105284365D03*
X210980000Y-105284365D03*
X213520000Y-105284365D03*
X216060000Y-105284365D03*
X218600000Y-105284365D03*
X221140000Y-105284365D03*
X198280000Y-102744365D03*
X200820000Y-102744365D03*
X203360000Y-102744365D03*
X205900000Y-102744365D03*
X208440000Y-102744365D03*
X210980000Y-102744365D03*
X213520000Y-102744365D03*
X216060000Y-102744365D03*
X218600000Y-102744365D03*
X221140000Y-102744365D03*
X198280000Y-100204365D03*
X200820000Y-100204365D03*
X203360000Y-100204365D03*
X205900000Y-100204365D03*
X208440000Y-100204365D03*
X210980000Y-100204365D03*
X213520000Y-100204365D03*
X216060000Y-100204365D03*
X218600000Y-100204365D03*
X221140000Y-100204365D03*
X198280000Y-97664365D03*
X200820000Y-97664365D03*
X203360000Y-97664365D03*
X205900000Y-97664365D03*
X208440000Y-97664365D03*
X210980000Y-97664365D03*
X213520000Y-97664365D03*
X216060000Y-97664365D03*
X218600000Y-97664365D03*
X221140000Y-97664365D03*
X198280000Y-95124365D03*
X200820000Y-95124365D03*
X203360000Y-95124365D03*
X205900000Y-95124365D03*
X208440000Y-95124365D03*
X210980000Y-95124365D03*
X213520000Y-95124365D03*
X216060000Y-95124365D03*
X218600000Y-95124365D03*
X221140000Y-95124365D03*
X198280000Y-92584365D03*
X200820000Y-92584365D03*
X203360000Y-92584365D03*
X205900000Y-92584365D03*
X208440000Y-92584365D03*
X210980000Y-92584365D03*
X213520000Y-92584365D03*
X216060000Y-92584365D03*
X218600000Y-92584365D03*
X221140000Y-92584365D03*
%TD*%
%TO.C,REF\u002A\u002A*%
X96680000Y-115444365D03*
X99220000Y-115444365D03*
X101760000Y-115444365D03*
X104300000Y-115444365D03*
X106840000Y-115444365D03*
X109380000Y-115444365D03*
X111920000Y-115444365D03*
X114460000Y-115444365D03*
X117000000Y-115444365D03*
X119540000Y-115444365D03*
X96680000Y-112904365D03*
X99220000Y-112904365D03*
X101760000Y-112904365D03*
X104300000Y-112904365D03*
X106840000Y-112904365D03*
X109380000Y-112904365D03*
X111920000Y-112904365D03*
X114460000Y-112904365D03*
X117000000Y-112904365D03*
X119540000Y-112904365D03*
X96680000Y-110364365D03*
X99220000Y-110364365D03*
X101760000Y-110364365D03*
X104300000Y-110364365D03*
X106840000Y-110364365D03*
X109380000Y-110364365D03*
X111920000Y-110364365D03*
X114460000Y-110364365D03*
X117000000Y-110364365D03*
X119540000Y-110364365D03*
X96680000Y-107824365D03*
X99220000Y-107824365D03*
X101760000Y-107824365D03*
X104300000Y-107824365D03*
X106840000Y-107824365D03*
X109380000Y-107824365D03*
X111920000Y-107824365D03*
X114460000Y-107824365D03*
X117000000Y-107824365D03*
X119540000Y-107824365D03*
X96680000Y-105284365D03*
X99220000Y-105284365D03*
X101760000Y-105284365D03*
X104300000Y-105284365D03*
X106840000Y-105284365D03*
X109380000Y-105284365D03*
X111920000Y-105284365D03*
X114460000Y-105284365D03*
X117000000Y-105284365D03*
X119540000Y-105284365D03*
X96680000Y-102744365D03*
X99220000Y-102744365D03*
X101760000Y-102744365D03*
X104300000Y-102744365D03*
X106840000Y-102744365D03*
X109380000Y-102744365D03*
X111920000Y-102744365D03*
X114460000Y-102744365D03*
X117000000Y-102744365D03*
X119540000Y-102744365D03*
X96680000Y-100204365D03*
X99220000Y-100204365D03*
X101760000Y-100204365D03*
X104300000Y-100204365D03*
X106840000Y-100204365D03*
X109380000Y-100204365D03*
X111920000Y-100204365D03*
X114460000Y-100204365D03*
X117000000Y-100204365D03*
X119540000Y-100204365D03*
X96680000Y-97664365D03*
X99220000Y-97664365D03*
X101760000Y-97664365D03*
X104300000Y-97664365D03*
X106840000Y-97664365D03*
X109380000Y-97664365D03*
X111920000Y-97664365D03*
X114460000Y-97664365D03*
X117000000Y-97664365D03*
X119540000Y-97664365D03*
X96680000Y-95124365D03*
X99220000Y-95124365D03*
X101760000Y-95124365D03*
X104300000Y-95124365D03*
X106840000Y-95124365D03*
X109380000Y-95124365D03*
X111920000Y-95124365D03*
X114460000Y-95124365D03*
X117000000Y-95124365D03*
X119540000Y-95124365D03*
X96680000Y-92584365D03*
X99220000Y-92584365D03*
X101760000Y-92584365D03*
X104300000Y-92584365D03*
X106840000Y-92584365D03*
X109380000Y-92584365D03*
X111920000Y-92584365D03*
X114460000Y-92584365D03*
X117000000Y-92584365D03*
X119540000Y-92584365D03*
%TD*%
M02*
