M48
; DRILL file {KiCad 9.0.2} date 2025-06-03T09:59:19-0400
; FORMAT={-:-/ absolute / metric / decimal}
; #@! TF.CreationDate,2025-06-03T09:59:19-04:00
; #@! TF.GenerationSoftware,Kicad,Pcbnew,9.0.2
; #@! TF.FileFunction,Plated,1,2,PTH
FMAT,2
METRIC
; #@! TA.AperFunction,Plated,PTH,ComponentDrill
T1C0.800
%
G90
G05
T1
X81.44Y-120.524
X81.44Y-123.064
X83.98Y-120.524
X83.98Y-123.064
X86.52Y-120.524
X86.52Y-123.064
X89.06Y-120.524
X89.06Y-123.064
X91.6Y-120.524
X91.6Y-123.064
X94.14Y-120.524
X94.14Y-123.064
X96.68Y-41.784
X96.68Y-44.324
X96.68Y-46.864
X96.68Y-49.404
X96.68Y-51.944
X96.68Y-54.484
X96.68Y-57.024
X96.68Y-59.564
X96.68Y-62.104
X96.68Y-64.644
X96.68Y-67.184
X96.68Y-69.724
X96.68Y-72.264
X96.68Y-74.804
X96.68Y-77.344
X96.68Y-79.884
X96.68Y-82.424
X96.68Y-84.964
X96.68Y-87.504
X96.68Y-90.044
X96.68Y-92.584
X96.68Y-95.124
X96.68Y-97.664
X96.68Y-100.204
X96.68Y-102.744
X96.68Y-105.284
X96.68Y-107.824
X96.68Y-110.364
X96.68Y-112.904
X96.68Y-115.444
X96.68Y-120.524
X96.68Y-123.064
X99.22Y-41.784
X99.22Y-44.324
X99.22Y-46.864
X99.22Y-49.404
X99.22Y-51.944
X99.22Y-54.484
X99.22Y-57.024
X99.22Y-59.564
X99.22Y-62.104
X99.22Y-64.644
X99.22Y-67.184
X99.22Y-69.724
X99.22Y-72.264
X99.22Y-74.804
X99.22Y-77.344
X99.22Y-79.884
X99.22Y-82.424
X99.22Y-84.964
X99.22Y-87.504
X99.22Y-90.044
X99.22Y-92.584
X99.22Y-95.124
X99.22Y-97.664
X99.22Y-100.204
X99.22Y-102.744
X99.22Y-105.284
X99.22Y-107.824
X99.22Y-110.364
X99.22Y-112.904
X99.22Y-115.444
X99.22Y-120.524
X99.22Y-123.064
X101.76Y-41.784
X101.76Y-44.324
X101.76Y-46.864
X101.76Y-49.404
X101.76Y-51.944
X101.76Y-54.484
X101.76Y-57.024
X101.76Y-59.564
X101.76Y-62.104
X101.76Y-64.644
X101.76Y-67.184
X101.76Y-69.724
X101.76Y-72.264
X101.76Y-74.804
X101.76Y-77.344
X101.76Y-79.884
X101.76Y-82.424
X101.76Y-84.964
X101.76Y-87.504
X101.76Y-90.044
X101.76Y-92.584
X101.76Y-95.124
X101.76Y-97.664
X101.76Y-100.204
X101.76Y-102.744
X101.76Y-105.284
X101.76Y-107.824
X101.76Y-110.364
X101.76Y-112.904
X101.76Y-115.444
X101.76Y-120.524
X101.76Y-123.064
X104.3Y-41.784
X104.3Y-44.324
X104.3Y-46.864
X104.3Y-49.404
X104.3Y-51.944
X104.3Y-54.484
X104.3Y-57.024
X104.3Y-59.564
X104.3Y-62.104
X104.3Y-64.644
X104.3Y-67.184
X104.3Y-69.724
X104.3Y-72.264
X104.3Y-74.804
X104.3Y-77.344
X104.3Y-79.884
X104.3Y-82.424
X104.3Y-84.964
X104.3Y-87.504
X104.3Y-90.044
X104.3Y-92.584
X104.3Y-95.124
X104.3Y-97.664
X104.3Y-100.204
X104.3Y-102.744
X104.3Y-105.284
X104.3Y-107.824
X104.3Y-110.364
X104.3Y-112.904
X104.3Y-115.444
X104.3Y-120.524
X104.3Y-123.064
X106.84Y-41.784
X106.84Y-44.324
X106.84Y-46.864
X106.84Y-49.404
X106.84Y-51.944
X106.84Y-54.484
X106.84Y-57.024
X106.84Y-59.564
X106.84Y-62.104
X106.84Y-64.644
X106.84Y-67.184
X106.84Y-69.724
X106.84Y-72.264
X106.84Y-74.804
X106.84Y-77.344
X106.84Y-79.884
X106.84Y-82.424
X106.84Y-84.964
X106.84Y-87.504
X106.84Y-90.044
X106.84Y-92.584
X106.84Y-95.124
X106.84Y-97.664
X106.84Y-100.204
X106.84Y-102.744
X106.84Y-105.284
X106.84Y-107.824
X106.84Y-110.364
X106.84Y-112.904
X106.84Y-115.444
X106.84Y-120.524
X106.84Y-123.064
X109.38Y-41.784
X109.38Y-44.324
X109.38Y-46.864
X109.38Y-49.404
X109.38Y-51.944
X109.38Y-54.484
X109.38Y-57.024
X109.38Y-59.564
X109.38Y-62.104
X109.38Y-64.644
X109.38Y-67.184
X109.38Y-69.724
X109.38Y-72.264
X109.38Y-74.804
X109.38Y-77.344
X109.38Y-79.884
X109.38Y-82.424
X109.38Y-84.964
X109.38Y-87.504
X109.38Y-90.044
X109.38Y-92.584
X109.38Y-95.124
X109.38Y-97.664
X109.38Y-100.204
X109.38Y-102.744
X109.38Y-105.284
X109.38Y-107.824
X109.38Y-110.364
X109.38Y-112.904
X109.38Y-115.444
X109.38Y-120.524
X109.38Y-123.064
X111.92Y-41.784
X111.92Y-44.324
X111.92Y-46.864
X111.92Y-49.404
X111.92Y-51.944
X111.92Y-54.484
X111.92Y-57.024
X111.92Y-59.564
X111.92Y-62.104
X111.92Y-64.644
X111.92Y-67.184
X111.92Y-69.724
X111.92Y-72.264
X111.92Y-74.804
X111.92Y-77.344
X111.92Y-79.884
X111.92Y-82.424
X111.92Y-84.964
X111.92Y-87.504
X111.92Y-90.044
X111.92Y-92.584
X111.92Y-95.124
X111.92Y-97.664
X111.92Y-100.204
X111.92Y-102.744
X111.92Y-105.284
X111.92Y-107.824
X111.92Y-110.364
X111.92Y-112.904
X111.92Y-115.444
X111.92Y-120.524
X111.92Y-123.064
X114.46Y-41.784
X114.46Y-44.324
X114.46Y-46.864
X114.46Y-49.404
X114.46Y-51.944
X114.46Y-54.484
X114.46Y-57.024
X114.46Y-59.564
X114.46Y-62.104
X114.46Y-64.644
X114.46Y-67.184
X114.46Y-69.724
X114.46Y-72.264
X114.46Y-74.804
X114.46Y-77.344
X114.46Y-79.884
X114.46Y-82.424
X114.46Y-84.964
X114.46Y-87.504
X114.46Y-90.044
X114.46Y-92.584
X114.46Y-95.124
X114.46Y-97.664
X114.46Y-100.204
X114.46Y-102.744
X114.46Y-105.284
X114.46Y-107.824
X114.46Y-110.364
X114.46Y-112.904
X114.46Y-115.444
X114.46Y-120.524
X114.46Y-123.064
X117.0Y-41.784
X117.0Y-44.324
X117.0Y-46.864
X117.0Y-49.404
X117.0Y-51.944
X117.0Y-54.484
X117.0Y-57.024
X117.0Y-59.564
X117.0Y-62.104
X117.0Y-64.644
X117.0Y-67.184
X117.0Y-69.724
X117.0Y-72.264
X117.0Y-74.804
X117.0Y-77.344
X117.0Y-79.884
X117.0Y-82.424
X117.0Y-84.964
X117.0Y-87.504
X117.0Y-90.044
X117.0Y-92.584
X117.0Y-95.124
X117.0Y-97.664
X117.0Y-100.204
X117.0Y-102.744
X117.0Y-105.284
X117.0Y-107.824
X117.0Y-110.364
X117.0Y-112.904
X117.0Y-115.444
X117.0Y-120.524
X117.0Y-123.064
X119.54Y-41.784
X119.54Y-44.324
X119.54Y-46.864
X119.54Y-49.404
X119.54Y-51.944
X119.54Y-54.484
X119.54Y-57.024
X119.54Y-59.564
X119.54Y-62.104
X119.54Y-64.644
X119.54Y-67.184
X119.54Y-69.724
X119.54Y-72.264
X119.54Y-74.804
X119.54Y-77.344
X119.54Y-79.884
X119.54Y-82.424
X119.54Y-84.964
X119.54Y-87.504
X119.54Y-90.044
X119.54Y-92.584
X119.54Y-95.124
X119.54Y-97.664
X119.54Y-100.204
X119.54Y-102.744
X119.54Y-105.284
X119.54Y-107.824
X119.54Y-110.364
X119.54Y-112.904
X119.54Y-115.444
X119.54Y-120.524
X119.54Y-123.064
X122.08Y-41.784
X122.08Y-44.324
X122.08Y-46.864
X122.08Y-49.404
X122.08Y-51.944
X122.08Y-54.484
X122.08Y-57.024
X122.08Y-59.564
X122.08Y-62.104
X122.08Y-64.644
X122.08Y-67.184
X122.08Y-69.724
X122.08Y-72.264
X122.08Y-74.804
X122.08Y-77.344
X122.08Y-79.884
X122.08Y-82.424
X122.08Y-84.964
X122.08Y-87.504
X122.08Y-90.044
X122.08Y-92.584
X122.08Y-95.124
X122.08Y-97.664
X122.08Y-100.204
X122.08Y-102.744
X122.08Y-105.284
X122.08Y-107.824
X122.08Y-110.364
X122.08Y-112.904
X122.08Y-115.444
X122.08Y-120.524
X122.08Y-123.064
X124.62Y-41.784
X124.62Y-44.324
X124.62Y-46.864
X124.62Y-49.404
X124.62Y-51.944
X124.62Y-54.484
X124.62Y-57.024
X124.62Y-59.564
X124.62Y-62.104
X124.62Y-64.644
X124.62Y-67.184
X124.62Y-69.724
X124.62Y-72.264
X124.62Y-74.804
X124.62Y-77.344
X124.62Y-79.884
X124.62Y-82.424
X124.62Y-84.964
X124.62Y-87.504
X124.62Y-90.044
X124.62Y-92.584
X124.62Y-95.124
X124.62Y-97.664
X124.62Y-100.204
X124.62Y-102.744
X124.62Y-105.284
X124.62Y-107.824
X124.62Y-110.364
X124.62Y-112.904
X124.62Y-115.444
X124.62Y-120.524
X124.62Y-123.064
X127.16Y-41.784
X127.16Y-44.324
X127.16Y-46.864
X127.16Y-49.404
X127.16Y-51.944
X127.16Y-54.484
X127.16Y-57.024
X127.16Y-59.564
X127.16Y-62.104
X127.16Y-64.644
X127.16Y-67.184
X127.16Y-69.724
X127.16Y-72.264
X127.16Y-74.804
X127.16Y-77.344
X127.16Y-79.884
X127.16Y-82.424
X127.16Y-84.964
X127.16Y-87.504
X127.16Y-90.044
X127.16Y-92.584
X127.16Y-95.124
X127.16Y-97.664
X127.16Y-100.204
X127.16Y-102.744
X127.16Y-105.284
X127.16Y-107.824
X127.16Y-110.364
X127.16Y-112.904
X127.16Y-115.444
X127.16Y-120.524
X127.16Y-123.064
X129.7Y-41.784
X129.7Y-44.324
X129.7Y-46.864
X129.7Y-49.404
X129.7Y-51.944
X129.7Y-54.484
X129.7Y-57.024
X129.7Y-59.564
X129.7Y-62.104
X129.7Y-64.644
X129.7Y-67.184
X129.7Y-69.724
X129.7Y-72.264
X129.7Y-74.804
X129.7Y-77.344
X129.7Y-79.884
X129.7Y-82.424
X129.7Y-84.964
X129.7Y-87.504
X129.7Y-90.044
X129.7Y-92.584
X129.7Y-95.124
X129.7Y-97.664
X129.7Y-100.204
X129.7Y-102.744
X129.7Y-105.284
X129.7Y-107.824
X129.7Y-110.364
X129.7Y-112.904
X129.7Y-115.444
X129.7Y-120.524
X129.7Y-123.064
X132.24Y-41.784
X132.24Y-44.324
X132.24Y-46.864
X132.24Y-49.404
X132.24Y-51.944
X132.24Y-54.484
X132.24Y-57.024
X132.24Y-59.564
X132.24Y-62.104
X132.24Y-64.644
X132.24Y-67.184
X132.24Y-69.724
X132.24Y-72.264
X132.24Y-74.804
X132.24Y-77.344
X132.24Y-79.884
X132.24Y-82.424
X132.24Y-84.964
X132.24Y-87.504
X132.24Y-90.044
X132.24Y-92.584
X132.24Y-95.124
X132.24Y-97.664
X132.24Y-100.204
X132.24Y-102.744
X132.24Y-105.284
X132.24Y-107.824
X132.24Y-110.364
X132.24Y-112.904
X132.24Y-115.444
X132.24Y-120.524
X132.24Y-123.064
X134.78Y-41.784
X134.78Y-44.324
X134.78Y-46.864
X134.78Y-49.404
X134.78Y-51.944
X134.78Y-54.484
X134.78Y-57.024
X134.78Y-59.564
X134.78Y-62.104
X134.78Y-64.644
X134.78Y-67.184
X134.78Y-69.724
X134.78Y-72.264
X134.78Y-74.804
X134.78Y-77.344
X134.78Y-79.884
X134.78Y-82.424
X134.78Y-84.964
X134.78Y-87.504
X134.78Y-90.044
X134.78Y-92.584
X134.78Y-95.124
X134.78Y-97.664
X134.78Y-100.204
X134.78Y-102.744
X134.78Y-105.284
X134.78Y-107.824
X134.78Y-110.364
X134.78Y-112.904
X134.78Y-115.444
X134.78Y-120.524
X134.78Y-123.064
X137.32Y-41.784
X137.32Y-44.324
X137.32Y-46.864
X137.32Y-49.404
X137.32Y-51.944
X137.32Y-54.484
X137.32Y-57.024
X137.32Y-59.564
X137.32Y-62.104
X137.32Y-64.644
X137.32Y-67.184
X137.32Y-69.724
X137.32Y-72.264
X137.32Y-74.804
X137.32Y-77.344
X137.32Y-79.884
X137.32Y-82.424
X137.32Y-84.964
X137.32Y-87.504
X137.32Y-90.044
X137.32Y-92.584
X137.32Y-95.124
X137.32Y-97.664
X137.32Y-100.204
X137.32Y-102.744
X137.32Y-105.284
X137.32Y-107.824
X137.32Y-110.364
X137.32Y-112.904
X137.32Y-115.444
X137.32Y-120.524
X137.32Y-123.064
X139.86Y-41.784
X139.86Y-44.324
X139.86Y-46.864
X139.86Y-49.404
X139.86Y-51.944
X139.86Y-54.484
X139.86Y-57.024
X139.86Y-59.564
X139.86Y-62.104
X139.86Y-64.644
X139.86Y-67.184
X139.86Y-69.724
X139.86Y-72.264
X139.86Y-74.804
X139.86Y-77.344
X139.86Y-79.884
X139.86Y-82.424
X139.86Y-84.964
X139.86Y-87.504
X139.86Y-90.044
X139.86Y-92.584
X139.86Y-95.124
X139.86Y-97.664
X139.86Y-100.204
X139.86Y-102.744
X139.86Y-105.284
X139.86Y-107.824
X139.86Y-110.364
X139.86Y-112.904
X139.86Y-115.444
X139.86Y-120.524
X139.86Y-123.064
X142.4Y-41.784
X142.4Y-44.324
X142.4Y-46.864
X142.4Y-49.404
X142.4Y-51.944
X142.4Y-54.484
X142.4Y-57.024
X142.4Y-59.564
X142.4Y-62.104
X142.4Y-64.644
X142.4Y-67.184
X142.4Y-69.724
X142.4Y-72.264
X142.4Y-74.804
X142.4Y-77.344
X142.4Y-79.884
X142.4Y-82.424
X142.4Y-84.964
X142.4Y-87.504
X142.4Y-90.044
X142.4Y-92.584
X142.4Y-95.124
X142.4Y-97.664
X142.4Y-100.204
X142.4Y-102.744
X142.4Y-105.284
X142.4Y-107.824
X142.4Y-110.364
X142.4Y-112.904
X142.4Y-115.444
X142.4Y-120.524
X142.4Y-123.064
X144.94Y-41.784
X144.94Y-44.324
X144.94Y-46.864
X144.94Y-49.404
X144.94Y-51.944
X144.94Y-54.484
X144.94Y-57.024
X144.94Y-59.564
X144.94Y-62.104
X144.94Y-64.644
X144.94Y-67.184
X144.94Y-69.724
X144.94Y-72.264
X144.94Y-74.804
X144.94Y-77.344
X144.94Y-79.884
X144.94Y-82.424
X144.94Y-84.964
X144.94Y-87.504
X144.94Y-90.044
X144.94Y-92.584
X144.94Y-95.124
X144.94Y-97.664
X144.94Y-100.204
X144.94Y-102.744
X144.94Y-105.284
X144.94Y-107.824
X144.94Y-110.364
X144.94Y-112.904
X144.94Y-115.444
X144.94Y-120.524
X144.94Y-123.064
X147.48Y-41.784
X147.48Y-44.324
X147.48Y-46.864
X147.48Y-49.404
X147.48Y-51.944
X147.48Y-54.484
X147.48Y-57.024
X147.48Y-59.564
X147.48Y-62.104
X147.48Y-64.644
X147.48Y-67.184
X147.48Y-69.724
X147.48Y-72.264
X147.48Y-74.804
X147.48Y-77.344
X147.48Y-79.884
X147.48Y-82.424
X147.48Y-84.964
X147.48Y-87.504
X147.48Y-90.044
X147.48Y-92.584
X147.48Y-95.124
X147.48Y-97.664
X147.48Y-100.204
X147.48Y-102.744
X147.48Y-105.284
X147.48Y-107.824
X147.48Y-110.364
X147.48Y-112.904
X147.48Y-115.444
X147.48Y-120.524
X147.48Y-123.064
X150.02Y-41.784
X150.02Y-44.324
X150.02Y-46.864
X150.02Y-49.404
X150.02Y-51.944
X150.02Y-54.484
X150.02Y-57.024
X150.02Y-59.564
X150.02Y-62.104
X150.02Y-64.644
X150.02Y-67.184
X150.02Y-69.724
X150.02Y-72.264
X150.02Y-74.804
X150.02Y-77.344
X150.02Y-79.884
X150.02Y-82.424
X150.02Y-84.964
X150.02Y-87.504
X150.02Y-90.044
X150.02Y-92.584
X150.02Y-95.124
X150.02Y-97.664
X150.02Y-100.204
X150.02Y-102.744
X150.02Y-105.284
X150.02Y-107.824
X150.02Y-110.364
X150.02Y-112.904
X150.02Y-115.444
X150.02Y-120.524
X150.02Y-123.064
X152.56Y-41.784
X152.56Y-44.324
X152.56Y-46.864
X152.56Y-49.404
X152.56Y-51.944
X152.56Y-54.484
X152.56Y-57.024
X152.56Y-59.564
X152.56Y-62.104
X152.56Y-64.644
X152.56Y-67.184
X152.56Y-69.724
X152.56Y-72.264
X152.56Y-74.804
X152.56Y-77.344
X152.56Y-79.884
X152.56Y-82.424
X152.56Y-84.964
X152.56Y-87.504
X152.56Y-90.044
X152.56Y-92.584
X152.56Y-95.124
X152.56Y-97.664
X152.56Y-100.204
X152.56Y-102.744
X152.56Y-105.284
X152.56Y-107.824
X152.56Y-110.364
X152.56Y-112.904
X152.56Y-115.444
X152.56Y-120.524
X152.56Y-123.064
X155.1Y-41.784
X155.1Y-44.324
X155.1Y-46.864
X155.1Y-49.404
X155.1Y-51.944
X155.1Y-54.484
X155.1Y-57.024
X155.1Y-59.564
X155.1Y-62.104
X155.1Y-64.644
X155.1Y-67.184
X155.1Y-69.724
X155.1Y-72.264
X155.1Y-74.804
X155.1Y-77.344
X155.1Y-79.884
X155.1Y-82.424
X155.1Y-84.964
X155.1Y-87.504
X155.1Y-90.044
X155.1Y-92.584
X155.1Y-95.124
X155.1Y-97.664
X155.1Y-100.204
X155.1Y-102.744
X155.1Y-105.284
X155.1Y-107.824
X155.1Y-110.364
X155.1Y-112.904
X155.1Y-115.444
X155.1Y-120.524
X155.1Y-123.064
X157.64Y-41.784
X157.64Y-44.324
X157.64Y-46.864
X157.64Y-49.404
X157.64Y-51.944
X157.64Y-54.484
X157.64Y-57.024
X157.64Y-59.564
X157.64Y-62.104
X157.64Y-64.644
X157.64Y-67.184
X157.64Y-69.724
X157.64Y-72.264
X157.64Y-74.804
X157.64Y-77.344
X157.64Y-79.884
X157.64Y-82.424
X157.64Y-84.964
X157.64Y-87.504
X157.64Y-90.044
X157.64Y-92.584
X157.64Y-95.124
X157.64Y-97.664
X157.64Y-100.204
X157.64Y-102.744
X157.64Y-105.284
X157.64Y-107.824
X157.64Y-110.364
X157.64Y-112.904
X157.64Y-115.444
X157.64Y-120.524
X157.64Y-123.064
X160.18Y-41.784
X160.18Y-44.324
X160.18Y-46.864
X160.18Y-49.404
X160.18Y-51.944
X160.18Y-54.484
X160.18Y-57.024
X160.18Y-59.564
X160.18Y-62.104
X160.18Y-64.644
X160.18Y-67.184
X160.18Y-69.724
X160.18Y-72.264
X160.18Y-74.804
X160.18Y-77.344
X160.18Y-79.884
X160.18Y-82.424
X160.18Y-84.964
X160.18Y-87.504
X160.18Y-90.044
X160.18Y-92.584
X160.18Y-95.124
X160.18Y-97.664
X160.18Y-100.204
X160.18Y-102.744
X160.18Y-105.284
X160.18Y-107.824
X160.18Y-110.364
X160.18Y-112.904
X160.18Y-115.444
X160.18Y-120.524
X160.18Y-123.064
X162.72Y-41.784
X162.72Y-44.324
X162.72Y-46.864
X162.72Y-49.404
X162.72Y-51.944
X162.72Y-54.484
X162.72Y-57.024
X162.72Y-59.564
X162.72Y-62.104
X162.72Y-64.644
X162.72Y-67.184
X162.72Y-69.724
X162.72Y-72.264
X162.72Y-74.804
X162.72Y-77.344
X162.72Y-79.884
X162.72Y-82.424
X162.72Y-84.964
X162.72Y-87.504
X162.72Y-90.044
X162.72Y-92.584
X162.72Y-95.124
X162.72Y-97.664
X162.72Y-100.204
X162.72Y-102.744
X162.72Y-105.284
X162.72Y-107.824
X162.72Y-110.364
X162.72Y-112.904
X162.72Y-115.444
X162.72Y-120.524
X162.72Y-123.064
X165.26Y-41.784
X165.26Y-44.324
X165.26Y-46.864
X165.26Y-49.404
X165.26Y-51.944
X165.26Y-54.484
X165.26Y-57.024
X165.26Y-59.564
X165.26Y-62.104
X165.26Y-64.644
X165.26Y-67.184
X165.26Y-69.724
X165.26Y-72.264
X165.26Y-74.804
X165.26Y-77.344
X165.26Y-79.884
X165.26Y-82.424
X165.26Y-84.964
X165.26Y-87.504
X165.26Y-90.044
X165.26Y-92.584
X165.26Y-95.124
X165.26Y-97.664
X165.26Y-100.204
X165.26Y-102.744
X165.26Y-105.284
X165.26Y-107.824
X165.26Y-110.364
X165.26Y-112.904
X165.26Y-115.444
X165.26Y-120.524
X165.26Y-123.064
X167.8Y-41.784
X167.8Y-44.324
X167.8Y-46.864
X167.8Y-49.404
X167.8Y-51.944
X167.8Y-54.484
X167.8Y-57.024
X167.8Y-59.564
X167.8Y-62.104
X167.8Y-64.644
X167.8Y-67.184
X167.8Y-69.724
X167.8Y-72.264
X167.8Y-74.804
X167.8Y-77.344
X167.8Y-79.884
X167.8Y-82.424
X167.8Y-84.964
X167.8Y-87.504
X167.8Y-90.044
X167.8Y-92.584
X167.8Y-95.124
X167.8Y-97.664
X167.8Y-100.204
X167.8Y-102.744
X167.8Y-105.284
X167.8Y-107.824
X167.8Y-110.364
X167.8Y-112.904
X167.8Y-115.444
X167.8Y-120.524
X167.8Y-123.064
X170.34Y-41.784
X170.34Y-44.324
X170.34Y-46.864
X170.34Y-49.404
X170.34Y-51.944
X170.34Y-54.484
X170.34Y-57.024
X170.34Y-59.564
X170.34Y-62.104
X170.34Y-64.644
X170.34Y-67.184
X170.34Y-69.724
X170.34Y-72.264
X170.34Y-74.804
X170.34Y-77.344
X170.34Y-79.884
X170.34Y-82.424
X170.34Y-84.964
X170.34Y-87.504
X170.34Y-90.044
X170.34Y-92.584
X170.34Y-95.124
X170.34Y-97.664
X170.34Y-100.204
X170.34Y-102.744
X170.34Y-105.284
X170.34Y-107.824
X170.34Y-110.364
X170.34Y-112.904
X170.34Y-115.444
X170.34Y-120.524
X170.34Y-123.064
X172.88Y-41.784
X172.88Y-44.324
X172.88Y-46.864
X172.88Y-49.404
X172.88Y-51.944
X172.88Y-54.484
X172.88Y-57.024
X172.88Y-59.564
X172.88Y-62.104
X172.88Y-64.644
X172.88Y-67.184
X172.88Y-69.724
X172.88Y-72.264
X172.88Y-74.804
X172.88Y-77.344
X172.88Y-79.884
X172.88Y-82.424
X172.88Y-84.964
X172.88Y-87.504
X172.88Y-90.044
X172.88Y-92.584
X172.88Y-95.124
X172.88Y-97.664
X172.88Y-100.204
X172.88Y-102.744
X172.88Y-105.284
X172.88Y-107.824
X172.88Y-110.364
X172.88Y-112.904
X172.88Y-115.444
X172.88Y-120.524
X172.88Y-123.064
X175.42Y-41.784
X175.42Y-44.324
X175.42Y-46.864
X175.42Y-49.404
X175.42Y-51.944
X175.42Y-54.484
X175.42Y-57.024
X175.42Y-59.564
X175.42Y-62.104
X175.42Y-64.644
X175.42Y-67.184
X175.42Y-69.724
X175.42Y-72.264
X175.42Y-74.804
X175.42Y-77.344
X175.42Y-79.884
X175.42Y-82.424
X175.42Y-84.964
X175.42Y-87.504
X175.42Y-90.044
X175.42Y-92.584
X175.42Y-95.124
X175.42Y-97.664
X175.42Y-100.204
X175.42Y-102.744
X175.42Y-105.284
X175.42Y-107.824
X175.42Y-110.364
X175.42Y-112.904
X175.42Y-115.444
X175.42Y-120.524
X175.42Y-123.064
X177.96Y-41.784
X177.96Y-44.324
X177.96Y-46.864
X177.96Y-49.404
X177.96Y-51.944
X177.96Y-54.484
X177.96Y-57.024
X177.96Y-59.564
X177.96Y-62.104
X177.96Y-64.644
X177.96Y-67.184
X177.96Y-69.724
X177.96Y-72.264
X177.96Y-74.804
X177.96Y-77.344
X177.96Y-79.884
X177.96Y-82.424
X177.96Y-84.964
X177.96Y-87.504
X177.96Y-90.044
X177.96Y-92.584
X177.96Y-95.124
X177.96Y-97.664
X177.96Y-100.204
X177.96Y-102.744
X177.96Y-105.284
X177.96Y-107.824
X177.96Y-110.364
X177.96Y-112.904
X177.96Y-115.444
X177.96Y-120.524
X177.96Y-123.064
X180.5Y-41.784
X180.5Y-44.324
X180.5Y-46.864
X180.5Y-49.404
X180.5Y-51.944
X180.5Y-54.484
X180.5Y-57.024
X180.5Y-59.564
X180.5Y-62.104
X180.5Y-64.644
X180.5Y-67.184
X180.5Y-69.724
X180.5Y-72.264
X180.5Y-74.804
X180.5Y-77.344
X180.5Y-79.884
X180.5Y-82.424
X180.5Y-84.964
X180.5Y-87.504
X180.5Y-90.044
X180.5Y-92.584
X180.5Y-95.124
X180.5Y-97.664
X180.5Y-100.204
X180.5Y-102.744
X180.5Y-105.284
X180.5Y-107.824
X180.5Y-110.364
X180.5Y-112.904
X180.5Y-115.444
X180.5Y-120.524
X180.5Y-123.064
X183.04Y-41.784
X183.04Y-44.324
X183.04Y-46.864
X183.04Y-49.404
X183.04Y-51.944
X183.04Y-54.484
X183.04Y-57.024
X183.04Y-59.564
X183.04Y-62.104
X183.04Y-64.644
X183.04Y-67.184
X183.04Y-69.724
X183.04Y-72.264
X183.04Y-74.804
X183.04Y-77.344
X183.04Y-79.884
X183.04Y-82.424
X183.04Y-84.964
X183.04Y-87.504
X183.04Y-90.044
X183.04Y-92.584
X183.04Y-95.124
X183.04Y-97.664
X183.04Y-100.204
X183.04Y-102.744
X183.04Y-105.284
X183.04Y-107.824
X183.04Y-110.364
X183.04Y-112.904
X183.04Y-115.444
X183.04Y-120.524
X183.04Y-123.064
X185.58Y-41.784
X185.58Y-44.324
X185.58Y-46.864
X185.58Y-49.404
X185.58Y-51.944
X185.58Y-54.484
X185.58Y-57.024
X185.58Y-59.564
X185.58Y-62.104
X185.58Y-64.644
X185.58Y-67.184
X185.58Y-69.724
X185.58Y-72.264
X185.58Y-74.804
X185.58Y-77.344
X185.58Y-79.884
X185.58Y-82.424
X185.58Y-84.964
X185.58Y-87.504
X185.58Y-90.044
X185.58Y-92.584
X185.58Y-95.124
X185.58Y-97.664
X185.58Y-100.204
X185.58Y-102.744
X185.58Y-105.284
X185.58Y-107.824
X185.58Y-110.364
X185.58Y-112.904
X185.58Y-115.444
X185.58Y-120.524
X185.58Y-123.064
X188.12Y-41.784
X188.12Y-44.324
X188.12Y-46.864
X188.12Y-49.404
X188.12Y-51.944
X188.12Y-54.484
X188.12Y-57.024
X188.12Y-59.564
X188.12Y-62.104
X188.12Y-64.644
X188.12Y-67.184
X188.12Y-69.724
X188.12Y-72.264
X188.12Y-74.804
X188.12Y-77.344
X188.12Y-79.884
X188.12Y-82.424
X188.12Y-84.964
X188.12Y-87.504
X188.12Y-90.044
X188.12Y-92.584
X188.12Y-95.124
X188.12Y-97.664
X188.12Y-100.204
X188.12Y-102.744
X188.12Y-105.284
X188.12Y-107.824
X188.12Y-110.364
X188.12Y-112.904
X188.12Y-115.444
X188.12Y-120.524
X188.12Y-123.064
X190.66Y-41.784
X190.66Y-44.324
X190.66Y-46.864
X190.66Y-49.404
X190.66Y-51.944
X190.66Y-54.484
X190.66Y-57.024
X190.66Y-59.564
X190.66Y-62.104
X190.66Y-64.644
X190.66Y-67.184
X190.66Y-69.724
X190.66Y-72.264
X190.66Y-74.804
X190.66Y-77.344
X190.66Y-79.884
X190.66Y-82.424
X190.66Y-84.964
X190.66Y-87.504
X190.66Y-90.044
X190.66Y-92.584
X190.66Y-95.124
X190.66Y-97.664
X190.66Y-100.204
X190.66Y-102.744
X190.66Y-105.284
X190.66Y-107.824
X190.66Y-110.364
X190.66Y-112.904
X190.66Y-115.444
X190.66Y-120.524
X190.66Y-123.064
X193.2Y-41.784
X193.2Y-44.324
X193.2Y-46.864
X193.2Y-49.404
X193.2Y-51.944
X193.2Y-54.484
X193.2Y-57.024
X193.2Y-59.564
X193.2Y-62.104
X193.2Y-64.644
X193.2Y-67.184
X193.2Y-69.724
X193.2Y-72.264
X193.2Y-74.804
X193.2Y-77.344
X193.2Y-79.884
X193.2Y-82.424
X193.2Y-84.964
X193.2Y-87.504
X193.2Y-90.044
X193.2Y-92.584
X193.2Y-95.124
X193.2Y-97.664
X193.2Y-100.204
X193.2Y-102.744
X193.2Y-105.284
X193.2Y-107.824
X193.2Y-110.364
X193.2Y-112.904
X193.2Y-115.444
X193.2Y-120.524
X193.2Y-123.064
X195.74Y-41.784
X195.74Y-44.324
X195.74Y-46.864
X195.74Y-49.404
X195.74Y-51.944
X195.74Y-54.484
X195.74Y-57.024
X195.74Y-59.564
X195.74Y-62.104
X195.74Y-64.644
X195.74Y-67.184
X195.74Y-69.724
X195.74Y-72.264
X195.74Y-74.804
X195.74Y-77.344
X195.74Y-79.884
X195.74Y-82.424
X195.74Y-84.964
X195.74Y-87.504
X195.74Y-90.044
X195.74Y-92.584
X195.74Y-95.124
X195.74Y-97.664
X195.74Y-100.204
X195.74Y-102.744
X195.74Y-105.284
X195.74Y-107.824
X195.74Y-110.364
X195.74Y-112.904
X195.74Y-115.444
X195.74Y-120.524
X195.74Y-123.064
X198.28Y-41.784
X198.28Y-44.324
X198.28Y-46.864
X198.28Y-49.404
X198.28Y-51.944
X198.28Y-54.484
X198.28Y-57.024
X198.28Y-59.564
X198.28Y-62.104
X198.28Y-64.644
X198.28Y-67.184
X198.28Y-69.724
X198.28Y-72.264
X198.28Y-74.804
X198.28Y-77.344
X198.28Y-79.884
X198.28Y-82.424
X198.28Y-84.964
X198.28Y-87.504
X198.28Y-90.044
X198.28Y-92.584
X198.28Y-95.124
X198.28Y-97.664
X198.28Y-100.204
X198.28Y-102.744
X198.28Y-105.284
X198.28Y-107.824
X198.28Y-110.364
X198.28Y-112.904
X198.28Y-115.444
X198.28Y-120.524
X198.28Y-123.064
X200.82Y-41.784
X200.82Y-44.324
X200.82Y-46.864
X200.82Y-49.404
X200.82Y-51.944
X200.82Y-54.484
X200.82Y-57.024
X200.82Y-59.564
X200.82Y-62.104
X200.82Y-64.644
X200.82Y-67.184
X200.82Y-69.724
X200.82Y-72.264
X200.82Y-74.804
X200.82Y-77.344
X200.82Y-79.884
X200.82Y-82.424
X200.82Y-84.964
X200.82Y-87.504
X200.82Y-90.044
X200.82Y-92.584
X200.82Y-95.124
X200.82Y-97.664
X200.82Y-100.204
X200.82Y-102.744
X200.82Y-105.284
X200.82Y-107.824
X200.82Y-110.364
X200.82Y-112.904
X200.82Y-115.444
X200.82Y-120.524
X200.82Y-123.064
X203.36Y-41.784
X203.36Y-44.324
X203.36Y-46.864
X203.36Y-49.404
X203.36Y-51.944
X203.36Y-54.484
X203.36Y-57.024
X203.36Y-59.564
X203.36Y-62.104
X203.36Y-64.644
X203.36Y-67.184
X203.36Y-69.724
X203.36Y-72.264
X203.36Y-74.804
X203.36Y-77.344
X203.36Y-79.884
X203.36Y-82.424
X203.36Y-84.964
X203.36Y-87.504
X203.36Y-90.044
X203.36Y-92.584
X203.36Y-95.124
X203.36Y-97.664
X203.36Y-100.204
X203.36Y-102.744
X203.36Y-105.284
X203.36Y-107.824
X203.36Y-110.364
X203.36Y-112.904
X203.36Y-115.444
X203.36Y-120.524
X203.36Y-123.064
X205.9Y-41.784
X205.9Y-44.324
X205.9Y-46.864
X205.9Y-49.404
X205.9Y-51.944
X205.9Y-54.484
X205.9Y-57.024
X205.9Y-59.564
X205.9Y-62.104
X205.9Y-64.644
X205.9Y-67.184
X205.9Y-69.724
X205.9Y-72.264
X205.9Y-74.804
X205.9Y-77.344
X205.9Y-79.884
X205.9Y-82.424
X205.9Y-84.964
X205.9Y-87.504
X205.9Y-90.044
X205.9Y-92.584
X205.9Y-95.124
X205.9Y-97.664
X205.9Y-100.204
X205.9Y-102.744
X205.9Y-105.284
X205.9Y-107.824
X205.9Y-110.364
X205.9Y-112.904
X205.9Y-115.444
X205.9Y-120.524
X205.9Y-123.064
X208.44Y-41.784
X208.44Y-44.324
X208.44Y-46.864
X208.44Y-49.404
X208.44Y-51.944
X208.44Y-54.484
X208.44Y-57.024
X208.44Y-59.564
X208.44Y-62.104
X208.44Y-64.644
X208.44Y-67.184
X208.44Y-69.724
X208.44Y-72.264
X208.44Y-74.804
X208.44Y-77.344
X208.44Y-79.884
X208.44Y-82.424
X208.44Y-84.964
X208.44Y-87.504
X208.44Y-90.044
X208.44Y-92.584
X208.44Y-95.124
X208.44Y-97.664
X208.44Y-100.204
X208.44Y-102.744
X208.44Y-105.284
X208.44Y-107.824
X208.44Y-110.364
X208.44Y-112.904
X208.44Y-115.444
X208.44Y-120.524
X208.44Y-123.064
X210.98Y-41.784
X210.98Y-44.324
X210.98Y-46.864
X210.98Y-49.404
X210.98Y-51.944
X210.98Y-54.484
X210.98Y-57.024
X210.98Y-59.564
X210.98Y-62.104
X210.98Y-64.644
X210.98Y-67.184
X210.98Y-69.724
X210.98Y-72.264
X210.98Y-74.804
X210.98Y-77.344
X210.98Y-79.884
X210.98Y-82.424
X210.98Y-84.964
X210.98Y-87.504
X210.98Y-90.044
X210.98Y-92.584
X210.98Y-95.124
X210.98Y-97.664
X210.98Y-100.204
X210.98Y-102.744
X210.98Y-105.284
X210.98Y-107.824
X210.98Y-110.364
X210.98Y-112.904
X210.98Y-115.444
X210.98Y-120.524
X210.98Y-123.064
X213.52Y-41.784
X213.52Y-44.324
X213.52Y-46.864
X213.52Y-49.404
X213.52Y-51.944
X213.52Y-54.484
X213.52Y-57.024
X213.52Y-59.564
X213.52Y-62.104
X213.52Y-64.644
X213.52Y-67.184
X213.52Y-69.724
X213.52Y-72.264
X213.52Y-74.804
X213.52Y-77.344
X213.52Y-79.884
X213.52Y-82.424
X213.52Y-84.964
X213.52Y-87.504
X213.52Y-90.044
X213.52Y-92.584
X213.52Y-95.124
X213.52Y-97.664
X213.52Y-100.204
X213.52Y-102.744
X213.52Y-105.284
X213.52Y-107.824
X213.52Y-110.364
X213.52Y-112.904
X213.52Y-115.444
X213.52Y-120.524
X213.52Y-123.064
X216.06Y-41.784
X216.06Y-44.324
X216.06Y-46.864
X216.06Y-49.404
X216.06Y-51.944
X216.06Y-54.484
X216.06Y-57.024
X216.06Y-59.564
X216.06Y-62.104
X216.06Y-64.644
X216.06Y-67.184
X216.06Y-69.724
X216.06Y-72.264
X216.06Y-74.804
X216.06Y-77.344
X216.06Y-79.884
X216.06Y-82.424
X216.06Y-84.964
X216.06Y-87.504
X216.06Y-90.044
X216.06Y-92.584
X216.06Y-95.124
X216.06Y-97.664
X216.06Y-100.204
X216.06Y-102.744
X216.06Y-105.284
X216.06Y-107.824
X216.06Y-110.364
X216.06Y-112.904
X216.06Y-115.444
X216.06Y-120.524
X216.06Y-123.064
X218.6Y-41.784
X218.6Y-44.324
X218.6Y-46.864
X218.6Y-49.404
X218.6Y-51.944
X218.6Y-54.484
X218.6Y-57.024
X218.6Y-59.564
X218.6Y-62.104
X218.6Y-64.644
X218.6Y-67.184
X218.6Y-69.724
X218.6Y-72.264
X218.6Y-74.804
X218.6Y-77.344
X218.6Y-79.884
X218.6Y-82.424
X218.6Y-84.964
X218.6Y-87.504
X218.6Y-90.044
X218.6Y-92.584
X218.6Y-95.124
X218.6Y-97.664
X218.6Y-100.204
X218.6Y-102.744
X218.6Y-105.284
X218.6Y-107.824
X218.6Y-110.364
X218.6Y-112.904
X218.6Y-115.444
X218.6Y-120.524
X218.6Y-123.064
X221.14Y-41.784
X221.14Y-44.324
X221.14Y-46.864
X221.14Y-49.404
X221.14Y-51.944
X221.14Y-54.484
X221.14Y-57.024
X221.14Y-59.564
X221.14Y-62.104
X221.14Y-64.644
X221.14Y-67.184
X221.14Y-69.724
X221.14Y-72.264
X221.14Y-74.804
X221.14Y-77.344
X221.14Y-79.884
X221.14Y-82.424
X221.14Y-84.964
X221.14Y-87.504
X221.14Y-90.044
X221.14Y-92.584
X221.14Y-95.124
X221.14Y-97.664
X221.14Y-100.204
X221.14Y-102.744
X221.14Y-105.284
X221.14Y-107.824
X221.14Y-110.364
X221.14Y-112.904
X221.14Y-115.444
X221.14Y-120.524
X221.14Y-123.064
X223.68Y-41.784
X223.68Y-44.324
X223.68Y-46.864
X223.68Y-49.404
X223.68Y-51.944
X223.68Y-54.484
X223.68Y-57.024
X223.68Y-59.564
X223.68Y-62.104
X223.68Y-64.644
X223.68Y-67.184
X223.68Y-69.724
X223.68Y-72.264
X223.68Y-74.804
X223.68Y-77.344
X223.68Y-79.884
X223.68Y-82.424
X223.68Y-84.964
X223.68Y-87.504
X223.68Y-90.044
X223.68Y-92.584
X223.68Y-95.124
X223.68Y-97.664
X223.68Y-100.204
X223.68Y-102.744
X223.68Y-105.284
X223.68Y-107.824
X223.68Y-110.364
X223.68Y-112.904
X223.68Y-115.444
X223.68Y-120.524
X223.68Y-123.064
X226.22Y-41.784
X226.22Y-44.324
X226.22Y-46.864
X226.22Y-49.404
X226.22Y-51.944
X226.22Y-54.484
X226.22Y-57.024
X226.22Y-59.564
X226.22Y-62.104
X226.22Y-64.644
X226.22Y-67.184
X226.22Y-69.724
X226.22Y-72.264
X226.22Y-74.804
X226.22Y-77.344
X226.22Y-79.884
X226.22Y-82.424
X226.22Y-84.964
X226.22Y-87.504
X226.22Y-90.044
X226.22Y-92.584
X226.22Y-95.124
X226.22Y-97.664
X226.22Y-100.204
X226.22Y-102.744
X226.22Y-105.284
X226.22Y-107.824
X226.22Y-110.364
X226.22Y-112.904
X226.22Y-115.444
X226.22Y-120.524
X226.22Y-123.064
X228.76Y-41.784
X228.76Y-44.324
X228.76Y-46.864
X228.76Y-49.404
X228.76Y-51.944
X228.76Y-54.484
X228.76Y-57.024
X228.76Y-59.564
X228.76Y-62.104
X228.76Y-64.644
X228.76Y-67.184
X228.76Y-69.724
X228.76Y-72.264
X228.76Y-74.804
X228.76Y-77.344
X228.76Y-79.884
X228.76Y-82.424
X228.76Y-84.964
X228.76Y-87.504
X228.76Y-90.044
X228.76Y-92.584
X228.76Y-95.124
X228.76Y-97.664
X228.76Y-100.204
X228.76Y-102.744
X228.76Y-105.284
X228.76Y-107.824
X228.76Y-110.364
X228.76Y-112.904
X228.76Y-115.444
X228.76Y-120.524
X228.76Y-123.064
X231.3Y-41.784
X231.3Y-44.324
X231.3Y-46.864
X231.3Y-49.404
X231.3Y-51.944
X231.3Y-54.484
X231.3Y-57.024
X231.3Y-59.564
X231.3Y-62.104
X231.3Y-64.644
X231.3Y-67.184
X231.3Y-69.724
X231.3Y-72.264
X231.3Y-74.804
X231.3Y-77.344
X231.3Y-79.884
X231.3Y-82.424
X231.3Y-84.964
X231.3Y-87.504
X231.3Y-90.044
X231.3Y-92.584
X231.3Y-95.124
X231.3Y-97.664
X231.3Y-100.204
X231.3Y-102.744
X231.3Y-105.284
X231.3Y-107.824
X231.3Y-110.364
X231.3Y-112.904
X231.3Y-115.444
X231.3Y-120.524
X231.3Y-123.064
X233.84Y-41.784
X233.84Y-44.324
X233.84Y-46.864
X233.84Y-49.404
X233.84Y-51.944
X233.84Y-54.484
X233.84Y-57.024
X233.84Y-59.564
X233.84Y-62.104
X233.84Y-64.644
X233.84Y-67.184
X233.84Y-69.724
X233.84Y-72.264
X233.84Y-74.804
X233.84Y-77.344
X233.84Y-79.884
X233.84Y-82.424
X233.84Y-84.964
X233.84Y-87.504
X233.84Y-90.044
X233.84Y-92.584
X233.84Y-95.124
X233.84Y-97.664
X233.84Y-100.204
X233.84Y-102.744
X233.84Y-105.284
X233.84Y-107.824
X233.84Y-110.364
X233.84Y-112.904
X233.84Y-115.444
X233.84Y-120.524
X233.84Y-123.064
X236.38Y-41.784
X236.38Y-44.324
X236.38Y-46.864
X236.38Y-49.404
X236.38Y-51.944
X236.38Y-54.484
X236.38Y-57.024
X236.38Y-59.564
X236.38Y-62.104
X236.38Y-64.644
X236.38Y-67.184
X236.38Y-69.724
X236.38Y-72.264
X236.38Y-74.804
X236.38Y-77.344
X236.38Y-79.884
X236.38Y-82.424
X236.38Y-84.964
X236.38Y-87.504
X236.38Y-90.044
X236.38Y-92.584
X236.38Y-95.124
X236.38Y-97.664
X236.38Y-100.204
X236.38Y-102.744
X236.38Y-105.284
X236.38Y-107.824
X236.38Y-110.364
X236.38Y-112.904
X236.38Y-115.444
X236.38Y-120.524
X236.38Y-123.064
X238.92Y-41.784
X238.92Y-44.324
X238.92Y-46.864
X238.92Y-49.404
X238.92Y-51.944
X238.92Y-54.484
X238.92Y-57.024
X238.92Y-59.564
X238.92Y-62.104
X238.92Y-64.644
X238.92Y-67.184
X238.92Y-69.724
X238.92Y-72.264
X238.92Y-74.804
X238.92Y-77.344
X238.92Y-79.884
X238.92Y-82.424
X238.92Y-84.964
X238.92Y-87.504
X238.92Y-90.044
X238.92Y-92.584
X238.92Y-95.124
X238.92Y-97.664
X238.92Y-100.204
X238.92Y-102.744
X238.92Y-105.284
X238.92Y-107.824
X238.92Y-110.364
X238.92Y-112.904
X238.92Y-115.444
X241.46Y-41.784
X241.46Y-44.324
X241.46Y-46.864
X241.46Y-49.404
X241.46Y-51.944
X241.46Y-54.484
X241.46Y-57.024
X241.46Y-59.564
X241.46Y-62.104
X241.46Y-64.644
X241.46Y-67.184
X241.46Y-69.724
X241.46Y-72.264
X241.46Y-74.804
X241.46Y-77.344
X241.46Y-79.884
X241.46Y-82.424
X241.46Y-84.964
X241.46Y-87.504
X241.46Y-90.044
X241.46Y-92.584
X241.46Y-95.124
X241.46Y-97.664
X241.46Y-100.204
X241.46Y-102.744
X241.46Y-105.284
X241.46Y-107.824
X241.46Y-110.364
X241.46Y-112.904
X241.46Y-115.444
X244.0Y-41.784
X244.0Y-44.324
X244.0Y-46.864
X244.0Y-49.404
X244.0Y-51.944
X244.0Y-54.484
X244.0Y-57.024
X244.0Y-59.564
X244.0Y-62.104
X244.0Y-64.644
X244.0Y-67.184
X244.0Y-69.724
X244.0Y-72.264
X244.0Y-74.804
X244.0Y-77.344
X244.0Y-79.884
X244.0Y-82.424
X244.0Y-84.964
X244.0Y-87.504
X244.0Y-90.044
X244.0Y-92.584
X244.0Y-95.124
X244.0Y-97.664
X244.0Y-100.204
X244.0Y-102.744
X244.0Y-105.284
X244.0Y-107.824
X244.0Y-110.364
X244.0Y-112.904
X244.0Y-115.444
X246.54Y-41.784
X246.54Y-44.324
X246.54Y-46.864
X246.54Y-49.404
X246.54Y-51.944
X246.54Y-54.484
X246.54Y-57.024
X246.54Y-59.564
X246.54Y-62.104
X246.54Y-64.644
X246.54Y-67.184
X246.54Y-69.724
X246.54Y-72.264
X246.54Y-74.804
X246.54Y-77.344
X246.54Y-79.884
X246.54Y-82.424
X246.54Y-84.964
X246.54Y-87.504
X246.54Y-90.044
X246.54Y-92.584
X246.54Y-95.124
X246.54Y-97.664
X246.54Y-100.204
X246.54Y-102.744
X246.54Y-105.284
X246.54Y-107.824
X246.54Y-110.364
X246.54Y-112.904
X246.54Y-115.444
M30
